<svg width="17" height="20" viewBox="0 0 17 20" fill="none" xmlns="http://www.w3.org/2000/svg">
<path d="M8.50762 7.55811C8.50762 7.55811 11.5876 11.2781 11.5876 12.9781C11.6115 13.398 11.5494 13.8184 11.4052 14.2135C11.261 14.6085 11.0377 14.97 10.7488 15.2757C10.46 15.5815 10.1118 15.825 9.72558 15.9915C9.33934 16.158 8.9232 16.2438 8.50262 16.2438C8.08204 16.2438 7.6659 16.158 7.27966 15.9915C6.89342 15.825 6.54522 15.5815 6.2564 15.2757C5.96759 14.97 5.7442 14.6085 5.59997 14.2135C5.45574 13.8184 5.39368 13.398 5.4176 12.9781C5.4176 11.2781 8.50762 7.55811 8.50762 7.55811Z" fill="url(#paint0_linear_24_290)"/>
<path d="M0.427734 0.988037L2.42773 19.858H14.6577L16.6577 0.988037H0.427734ZM12.6077 17.628H4.39771L3.11774 5.12804C3.2548 5.23354 3.37602 5.35814 3.47772 5.49804C3.59957 5.6835 3.76379 5.83735 3.95679 5.94689C4.14978 6.05642 4.366 6.11851 4.58771 6.12804C4.80843 6.12024 5.02398 6.0588 5.21564 5.94903C5.40729 5.83927 5.56933 5.68447 5.68774 5.49804C5.7746 5.3523 5.89543 5.22977 6.03998 5.14096C6.18453 5.05214 6.3485 4.99967 6.51776 4.98804C6.90776 4.98804 7.10771 5.22804 7.33771 5.49804C7.45051 5.69098 7.61192 5.85103 7.80579 5.96225C7.99965 6.07347 8.21925 6.13199 8.44275 6.13199C8.66625 6.13199 8.88585 6.07347 9.07971 5.96225C9.27357 5.85103 9.43492 5.69098 9.54773 5.49804C9.63112 5.34932 9.75115 5.2244 9.89642 5.13513C10.0417 5.04587 10.2074 4.99524 10.3777 4.98804C10.7777 4.98804 10.9677 5.22804 11.2077 5.49804C11.3255 5.68507 11.4874 5.84033 11.6792 5.95018C11.871 6.06002 12.0868 6.1211 12.3077 6.12804C12.5285 6.12024 12.744 6.0588 12.9356 5.94903C13.1273 5.83927 13.2893 5.68447 13.4077 5.49804C13.5349 5.31046 13.7114 5.16165 13.9177 5.06804L12.6077 17.628Z" fill="url(#paint1_linear_24_290)"/>
<path d="M11.5876 12.9881C11.6115 13.408 11.5494 13.8284 11.4052 14.2235C11.261 14.6185 11.0377 14.98 10.7488 15.2858C10.46 15.5915 10.1118 15.835 9.72558 16.0015C9.33934 16.168 8.9232 16.2538 8.50262 16.2538C8.08204 16.2538 7.6659 16.168 7.27966 16.0015C6.89342 15.835 6.54522 15.5915 6.2564 15.2858C5.96759 14.98 5.7442 14.6185 5.59997 14.2235C5.45574 13.8284 5.39368 13.408 5.4176 12.9881C5.4176 11.2881 8.50762 7.56812 8.50762 7.56812C8.50762 7.56812 11.5876 11.2781 11.5876 12.9881Z" fill="url(#paint2_linear_24_290)"/>
<path d="M11.5876 12.9881C11.6115 13.408 11.5494 13.8284 11.4052 14.2235C11.261 14.6185 11.0377 14.98 10.7488 15.2858C10.46 15.5915 10.1118 15.835 9.72558 16.0015C9.33934 16.168 8.9232 16.2538 8.50262 16.2538C8.08204 16.2538 7.6659 16.168 7.27966 16.0015C6.89342 15.835 6.54522 15.5915 6.2564 15.2858C5.96759 14.98 5.7442 14.6185 5.59997 14.2235C5.45574 13.8284 5.39368 13.408 5.4176 12.9881C5.4176 11.2881 8.50762 7.56812 8.50762 7.56812C8.50762 7.56812 11.5876 11.2781 11.5876 12.9881Z" fill="url(#paint3_linear_24_290)"/>
<defs>
<linearGradient id="paint0_linear_24_290" x1="-3.40238" y1="0.538105" x2="18.2076" y2="22.148" gradientUnits="userSpaceOnUse">
<stop stop-color="#2DD4EA"/>
<stop offset="1" stop-color="#07B9D1"/>
</linearGradient>
<linearGradient id="paint1_linear_24_290" x1="-1.90226" y1="-0.961963" x2="19.7077" y2="20.648" gradientUnits="userSpaceOnUse">
<stop stop-color="#2DD4EA"/>
<stop offset="1" stop-color="#07B9D1"/>
</linearGradient>
<linearGradient id="paint2_linear_24_290" x1="-3.40238" y1="0.538115" x2="18.2076" y2="22.1481" gradientUnits="userSpaceOnUse">
<stop stop-color="#2DD4EA"/>
<stop offset="1" stop-color="#07B9D1"/>
</linearGradient>
<linearGradient id="paint3_linear_24_290" x1="-3.40238" y1="0.538115" x2="18.2076" y2="22.1481" gradientUnits="userSpaceOnUse">
<stop stop-color="#2DD4EA"/>
<stop offset="1" stop-color="#07B9D1"/>
</linearGradient>
</defs>
</svg>
