<svg width="21" height="24" viewBox="0 0 21 24" fill="none" xmlns="http://www.w3.org/2000/svg">
<path d="M14.6478 15.5581C14.3769 16.2166 13.9251 16.7849 13.3446 17.1972C12.7641 17.6096 12.0788 17.8491 11.3678 17.8881V20.8881H9.10779V17.8881C8.42516 17.8153 7.77487 17.5594 7.22568 17.1476C6.67648 16.7357 6.24879 16.183 5.98779 15.5481C6.38954 15.6909 6.81153 15.7686 7.23779 15.7781C7.4609 16.0773 7.74099 16.3294 8.06192 16.5199C8.38285 16.7104 8.73829 16.8355 9.10779 16.8881V15.4481C9.51109 15.2897 9.88599 15.0668 10.2178 14.7881C10.5601 15.0907 10.9483 15.3371 11.3678 15.5181V16.9081C11.7564 16.8798 12.1349 16.7709 12.4792 16.5884C12.8236 16.4059 13.1261 16.1538 13.3678 15.8481C13.8073 15.8209 14.2395 15.723 14.6478 15.5581Z" fill="url(#paint0_linear_24_379)"/>
<path d="M16.7578 22.1282H3.97778V23.6682H16.7578V22.1282Z" fill="url(#paint1_linear_24_379)"/>
<path d="M13.0778 15.058C12.1516 15.0605 11.2561 14.7264 10.5578 14.118L10.2178 13.828L9.87779 14.108C9.45404 14.4528 8.96157 14.7033 8.4333 14.8426C7.90504 14.9819 7.35314 15.0069 6.81444 14.9159C6.27574 14.8249 5.76265 14.62 5.30946 14.3149C4.85627 14.0098 4.47339 13.6115 4.18642 13.1466C3.89945 12.6817 3.71498 12.1609 3.64534 11.619C3.5757 11.0772 3.62249 10.5267 3.78258 10.0043C3.94267 9.48198 4.21237 8.99979 4.57368 8.58999C4.935 8.1802 5.37961 7.85224 5.87779 7.62799L6.17778 7.49798V7.16796C6.21672 6.1835 6.63255 5.25167 7.33928 4.56521C8.04601 3.87876 8.98954 3.49022 9.97472 3.47995C10.9599 3.46967 11.9114 3.83844 12.6322 4.51001C13.3531 5.18157 13.7883 6.10454 13.8478 7.08798V7.44796L14.1878 7.55798C15.0612 7.83526 15.8067 8.41573 16.2896 9.19458C16.7724 9.97343 16.9608 10.8993 16.8208 11.8049C16.6807 12.7105 16.2214 13.5362 15.5258 14.1328C14.8302 14.7294 13.9442 15.0575 13.0278 15.058H13.0778Z" fill="url(#paint2_linear_24_379)"/>
<path d="M17.4378 6.98801C17.3778 7.04801 17.3378 7.10801 17.2878 7.16801C17.2378 7.22801 17.1978 7.04801 17.1378 6.98801C16.8238 6.56343 16.4289 6.20521 15.9758 5.93403C15.5227 5.66285 15.0204 5.48409 14.4978 5.40803C15.0403 5.25218 15.6206 5.29674 16.1329 5.53361C16.6452 5.77047 17.0551 6.18379 17.2878 6.69801L17.4378 6.98801Z" fill="url(#paint3_linear_24_379)"/>
<path d="M20.0777 5.43817C19.027 5.58432 18.0774 6.14185 17.4377 6.98815C17.3777 7.04815 17.3377 7.10815 17.2877 7.16815C17.2377 7.22815 17.1977 7.04815 17.1377 6.98815L17.2877 6.69815C17.5255 6.18942 17.9376 5.78267 18.4494 5.55154C18.9612 5.32041 19.5388 5.28019 20.0777 5.43817Z" fill="url(#paint4_linear_24_379)"/>
<path d="M3.35773 6.98801L3.21774 7.16801L3.06772 6.98801C2.75375 6.56343 2.35884 6.20521 1.90573 5.93403C1.45262 5.66285 0.950288 5.48409 0.427734 5.40803C0.970184 5.25218 1.55061 5.29674 2.0629 5.53361C2.57518 5.77047 2.98511 6.18379 3.21774 6.69801C3.27038 6.79167 3.31712 6.88854 3.35773 6.98801Z" fill="url(#paint5_linear_24_379)"/>
<path d="M6.00763 5.43806C5.48331 5.51286 4.97908 5.69103 4.52417 5.96226C4.06926 6.23348 3.67275 6.59236 3.35764 7.01804L3.21765 7.19804L3.06763 7.01804L3.21765 6.72803C3.45028 6.21382 3.86021 5.8005 4.3725 5.56364C4.88478 5.32677 5.46518 5.28221 6.00763 5.43806Z" fill="url(#paint6_linear_24_379)"/>
<path d="M10.3978 2.15796L10.2478 2.33795L10.1078 2.15796C9.79264 1.73227 9.39613 1.3734 8.94122 1.10217C8.48632 0.830943 7.98208 0.652746 7.45776 0.577939C8.00021 0.422091 8.58064 0.466687 9.09293 0.703549C9.60521 0.940412 10.0151 1.35373 10.2478 1.86795L10.3978 2.15796Z" fill="url(#paint7_linear_24_379)"/>
<path d="M13.0377 0.577939C12.5151 0.654002 12.0128 0.83279 11.5597 1.10397C11.1066 1.37515 10.7116 1.73337 10.3977 2.15796L10.2477 2.33795L10.1077 2.15796C10.1483 2.05848 10.195 1.96162 10.2477 1.86795C10.4803 1.35373 10.8902 0.940412 11.4025 0.703549C11.9148 0.466687 12.4952 0.422091 13.0377 0.577939Z" fill="url(#paint8_linear_24_379)"/>
<defs>
<linearGradient id="paint0_linear_24_379" x1="-0.00221" y1="0.588072" x2="26.9878" y2="40.6181" gradientUnits="userSpaceOnUse">
<stop stop-color="#72B757"/>
<stop offset="1" stop-color="#8ED372"/>
</linearGradient>
<linearGradient id="paint1_linear_24_379" x1="-3.21222" y1="2.74845" x2="23.7773" y2="42.7882" gradientUnits="userSpaceOnUse">
<stop stop-color="#72B757"/>
<stop offset="1" stop-color="#8ED372"/>
</linearGradient>
<linearGradient id="paint2_linear_24_379" x1="2.13778" y1="-0.852021" x2="29.1278" y2="39.178" gradientUnits="userSpaceOnUse">
<stop stop-color="#72B757"/>
<stop offset="1" stop-color="#8ED372"/>
</linearGradient>
<linearGradient id="paint3_linear_24_379" x1="8.3878" y1="-5.0619" x2="35.3675" y2="34.968" gradientUnits="userSpaceOnUse">
<stop stop-color="#72B757"/>
<stop offset="1" stop-color="#8ED372"/>
</linearGradient>
<linearGradient id="paint4_linear_24_379" x1="10.1777" y1="-6.27172" x2="37.1673" y2="33.7582" gradientUnits="userSpaceOnUse">
<stop stop-color="#72B757"/>
<stop offset="1" stop-color="#8ED372"/>
</linearGradient>
<linearGradient id="paint5_linear_24_379" x1="-1.29226" y1="1.45805" x2="25.6975" y2="41.4979" gradientUnits="userSpaceOnUse">
<stop stop-color="#72B757"/>
<stop offset="1" stop-color="#8ED372"/>
</linearGradient>
<linearGradient id="paint6_linear_24_379" x1="0.507625" y1="0.24809" x2="27.4873" y2="40.288" gradientUnits="userSpaceOnUse">
<stop stop-color="#72B757"/>
<stop offset="1" stop-color="#8ED372"/>
</linearGradient>
<linearGradient id="paint7_linear_24_379" x1="5.79776" y1="-3.32207" x2="32.7879" y2="36.718" gradientUnits="userSpaceOnUse">
<stop stop-color="#72B757"/>
<stop offset="1" stop-color="#8ED372"/>
</linearGradient>
<linearGradient id="paint8_linear_24_379" x1="7.59767" y1="-4.53207" x2="34.5878" y2="35.5079" gradientUnits="userSpaceOnUse">
<stop stop-color="#72B757"/>
<stop offset="1" stop-color="#8ED372"/>
</linearGradient>
</defs>
</svg>
