<svg width="66" height="35" viewBox="0 0 66 35" fill="none" xmlns="http://www.w3.org/2000/svg">
<path d="M0.760699 1.10015H3.02752V12.7433H5.70646V14.598H0.760699V1.10015ZM6.83987 1.10015H9.1067V14.598H6.83987V1.10015ZM10.5492 1.10015H15.9072V2.9548H12.816V6.87019H15.0828V8.72485H12.816V14.701H10.5492V1.10015ZM16.9375 1.10015H22.3985V2.9548H19.2043V6.87019H21.4711V8.72485H19.2043V12.8463H22.3985V14.701H16.9375V1.10015ZM26.623 1.10015H29.9202C32.187 1.10015 32.9083 2.13048 32.9083 4.08818V5.42765C32.9083 6.56106 32.4961 7.28235 31.5688 7.59147C32.7022 7.90058 33.2174 8.62185 33.2174 9.85829V11.6099C33.2174 13.5676 32.3931 14.598 30.1263 14.598H26.623V1.10015ZM29.7141 6.87019C30.4354 6.87019 30.7445 6.45807 30.7445 5.73681V4.08818C30.7445 3.36692 30.4354 2.9548 29.6111 2.9548H28.7868V6.87019H29.7141ZM28.8898 8.62184V12.8463H29.9202C30.6414 12.8463 31.0536 12.4342 31.0536 11.7129V9.65221C31.0536 8.93095 30.7445 8.51876 29.9202 8.51876L28.8898 8.62184ZM34.2477 1.10015H39.7087V2.9548H36.5146V6.87019H38.7814V8.72485H36.5146V12.8463H39.7087V14.701H34.2477V1.10015ZM41.1512 1.10015H43.418V12.7433H46.097V14.598H41.1512V1.10015ZM47.0243 11.1978V4.60337C47.0243 2.43959 48.0547 0.99707 50.4246 0.99707C52.7944 0.99707 53.9278 2.54263 53.9278 4.60337V11.1978C53.9278 13.2585 52.8974 14.8041 50.4246 14.8041C48.0547 14.8041 47.0243 13.2585 47.0243 11.1978ZM51.5579 11.5069V4.19126C51.5579 3.36696 51.2489 2.74871 50.4246 2.74871C49.6003 2.74871 49.2911 3.36696 49.2911 4.19126V11.5069C49.2911 12.3312 49.6003 12.9494 50.4246 12.9494C51.2489 12.9494 51.5579 12.3312 51.5579 11.5069ZM59.9039 6.252L58.6675 14.598H56.5037L54.649 1.10015H56.8128L57.8432 9.65221L58.9766 1.10015H60.8313L62.0677 9.65221L63.0981 1.10015H65.0558L63.3042 14.598H61.1404L59.9039 6.252Z" fill="#21CCE2"/>
<path d="M5.70652 26.1383L4.4701 34.4843H2.30631L0.45166 20.9864H2.61541L3.64578 29.5385L4.7792 20.9864H6.63388L7.87031 29.5385L8.90068 20.9864H10.8584L9.10677 34.4843H6.94298L5.70652 26.1383ZM10.7554 34.5873L13.3313 21.0895H15.9072L18.4831 34.5873H16.1133L15.7011 32.1144H13.3313L12.9191 34.5873H10.7554ZM13.5373 30.2598H15.392L14.4647 24.7988L13.5373 30.2598ZM17.968 20.9864H24.0471V22.8411H22.1924V34.4843H19.9257V22.8411H18.071V20.9864H17.968ZM25.0775 20.9864H30.5385V22.8411H27.3443V26.7565H29.6111V28.6112H27.3443V32.7326H30.5385V34.5873H25.0775V20.9864ZM34.0417 28.3021V34.4843H31.7749V20.9864H35.0721C37.3389 20.9864 38.1632 22.1198 38.1632 23.9745V25.7261C38.1632 27.1686 37.648 27.9929 36.3085 28.3021L38.4723 34.4843H36.1024L34.0417 28.3021ZM34.0417 22.8411V27.0656H34.763C35.5873 27.0656 35.8964 26.6535 35.8964 25.9322V23.9745C35.8964 23.2532 35.5873 22.8411 34.763 22.8411H34.0417Z" fill="#21CCE2"/>
</svg>
