<svg width="50" height="55" viewBox="0 0 50 55" fill="none" xmlns="http://www.w3.org/2000/svg">
<path d="M28.5597 17.7245V9.21387H21.8493V17.7245L25.2318 19.8249L28.5597 17.7245Z" fill="white"/>
<path d="M25.7229 0.29477C25.6847 0.207165 25.6217 0.132611 25.5418 0.0802507C25.4618 0.0278904 25.3683 0 25.2727 0C25.1772 0 25.0837 0.0278904 25.0038 0.0802507C24.9238 0.132611 24.8609 0.207165 24.8227 0.29477L23.6497 3.34987H26.8139L25.7229 0.29477Z" fill="white"/>
<path d="M28.5597 9.21494L26.8685 4.41406H23.7043L21.8493 9.21494H28.5597Z" fill="white"/>
<path d="M25.0681 24.1904H23.6224L2.4822 16.0071L5.50999 13.2793L22.995 20.3442C24.0153 21.4195 24.7309 22.747 25.0681 24.1904Z" fill="white"/>
<path d="M47.8178 15.8695L26.3775 24.1892H25.3682C25.6985 22.7314 26.4364 21.3975 27.4959 20.343L44.8173 13.1963L47.8178 15.8695Z" fill="white"/>
<path d="M23.6225 54.2226L0 45.0301V15.8975L23.6225 25.0628V54.2226Z" fill="white"/>
<path d="M50 45.0301L26.3775 54.2226V25.0628L50 15.8975V45.0301Z" fill="white"/>
<path d="M26.4047 25.0625H23.6224V54.1951H26.4047V25.0625Z" fill="white"/>
</svg>
