<svg width="65" height="35" viewBox="0 0 65 35" fill="none" xmlns="http://www.w3.org/2000/svg">
<path d="M0.663086 20.7215H6.0609V22.5547H2.90371L2.90371 26.4249H5.14433L5.14433 28.2581H2.90371L2.90371 32.3319H6.0609V34.1652H0.663086L0.663086 20.7215ZM14.1067 24.2861L14.1067 30.4987C14.1067 32.5356 13.292 34.0633 10.8477 34.0633H7.38495L7.38495 20.7215L10.8477 20.7215C13.292 20.7215 14.1067 22.2492 14.1067 24.2861ZM10.5421 32.2301C11.4588 32.2301 11.8661 31.7209 11.8661 30.9061L11.8661 23.8787C11.8661 23.064 11.5606 22.5547 10.5421 22.5547H9.6255L9.6255 32.2301H10.5421ZM22.1526 20.7215L22.1526 30.8042C22.1526 32.8412 21.2359 34.267 18.9953 34.267C16.6529 34.267 15.6344 32.943 15.6344 30.8042L15.6344 20.7215H17.875L17.875 31.1098C17.875 31.9246 18.1806 32.4338 18.9953 32.4338C19.8101 32.4338 20.1157 31.9246 20.1157 31.1098L20.1157 20.7215H22.1526ZM23.5784 30.6006L23.5784 24.0824C23.5784 21.9437 24.5968 20.5178 26.9393 20.5178C29.3836 20.5178 30.0965 21.9437 30.0965 23.8787L30.0965 25.5083H28.0596L28.0596 23.7769C28.0596 22.9621 27.7541 22.4529 26.9393 22.4529C26.1245 22.4529 25.819 23.064 25.819 23.8787L25.819 31.1098C25.819 31.9246 26.1245 32.5356 26.9393 32.5356C27.7541 32.5356 28.0596 32.0264 28.0596 31.2116V28.7673H30.0965V31.1098C30.0965 33.0449 29.2817 34.4707 26.9393 34.4707C24.5968 34.267 23.5784 32.7393 23.5784 30.6006ZM30.9113 34.0633L33.4574 20.7215H36.0036L38.5497 34.0633H36.2073L35.7999 31.619H33.4574L33.05 34.0633H30.9113ZM33.6611 29.8876H35.4944L34.5777 24.4898L33.6611 29.8876ZM38.2442 20.7215L44.2531 20.7215V22.5547H42.4199V34.0633H40.1792V22.5547H38.346V20.7215H38.2442ZM45.4752 20.7215H47.7159V34.0633H45.4752V20.7215ZM49.2435 30.6006V24.0824C49.2435 21.9437 50.262 20.5178 52.6044 20.5178C54.9469 20.5178 56.0672 22.0455 56.0672 24.0824V30.6006C56.0672 32.6375 55.0487 34.1652 52.6044 34.1652C50.262 34.267 49.2435 32.7393 49.2435 30.6006ZM53.8266 31.0079V23.7769C53.8266 22.9621 53.5211 22.351 52.7063 22.351C51.8916 22.351 51.586 22.9621 51.586 23.7769V31.0079C51.586 31.8227 51.8916 32.4338 52.7063 32.4338C53.4192 32.3319 53.8266 31.8227 53.8266 31.0079ZM59.4281 25.712V34.1652H57.493V20.8234H59.7336L62.178 28.4618V20.8234H64.0112V34.1652H62.0761L59.4281 25.712Z" fill="#BC2429"/>
<path d="M3.20923 15.3237V14.4071C1.37601 14.1015 0.663086 12.7775 0.663086 10.9443L0.663086 4.42617C0.663086 2.28741 1.68153 0.861572 4.02398 0.861572C6.36644 0.861572 7.48677 2.38926 7.48677 4.42617L7.48677 10.9443C7.48677 12.3701 6.97756 13.5923 5.85726 14.1015L7.48677 14.4071L7.48677 16.0366L3.20923 15.3237ZM5.24615 11.4535L5.24615 4.12063C5.24615 3.30587 4.94063 2.6948 4.12587 2.6948C3.3111 2.6948 3.00553 3.30587 3.00553 4.12063L3.00553 11.4535C3.00553 12.2683 3.3111 12.8794 4.12587 12.8794C4.83879 12.8794 5.24615 12.2683 5.24615 11.4535ZM15.4307 1.06526L15.4307 11.148C15.4307 13.1849 14.5141 14.6108 12.2735 14.6108C9.93108 14.6108 8.91263 13.2867 8.91263 11.148L8.91263 1.06526L11.1532 1.06526L11.1532 11.4535C11.1532 12.2683 11.4588 12.7775 12.2735 12.7775C13.0883 12.7775 13.3938 12.2683 13.3938 11.4535L13.3938 1.06526L15.4307 1.06526ZM16.3474 14.4071L18.8935 1.06526L21.4397 1.06526L23.9858 14.4071H21.6434L21.2359 11.9628L18.8935 11.9628L18.4861 14.4071H16.3474ZM19.0972 10.2314L20.9304 10.2314L20.0138 4.83355L19.0972 10.2314ZM25.0043 1.06526L27.2449 1.06526L27.2449 12.5738L29.8928 12.5738V14.4071L25.0043 14.4071L25.0043 1.06526ZM31.0131 1.06526L33.2537 1.06526V14.4071H31.0131L31.0131 1.06526ZM34.3741 1.06526L40.3829 1.06526V2.89849L38.5497 2.89849V14.4071L36.3091 14.4071V2.89849L34.4759 2.89849L34.3741 1.06526ZM45.7808 9.31478V14.4071L43.5402 14.4071V9.31478L40.9941 1.06526L43.3365 1.06526L44.6605 6.15755L45.9845 1.06526L48.1233 1.06526L45.7808 9.31478Z" fill="#BC2429"/>
</svg>
