<svg width="61" height="29" viewBox="0 0 61 29" fill="none" xmlns="http://www.w3.org/2000/svg">
<path d="M1.91304 6.42548L1.91304 11.4151H0.0834961L0.0834961 0.437902L2.74465 0.437902C4.57419 0.437902 5.23947 1.35267 5.23947 2.84956V4.2633C5.23947 5.42755 4.82363 6.09284 3.74254 6.34232L5.48894 11.332H3.57626L1.91304 6.42548ZM1.91304 1.93479L1.91304 5.34438H2.49513C3.16041 5.34438 3.40993 5.01173 3.40993 4.42961L3.40993 2.84956C3.40993 2.26743 3.16041 1.93479 2.49513 1.93479H1.91304ZM6.48688 0.437902L10.8944 0.437902V1.93479L8.31638 1.93479V5.09491H10.1459V6.59179H8.31638V9.91822H10.8944V11.4151H6.48688L6.48688 0.437902ZM17.1314 3.43169V8.5045C17.1314 10.1677 16.4661 11.4151 14.4703 11.4151H11.6428V0.437902L14.4703 0.437902C16.4661 0.437902 17.1314 1.68532 17.1314 3.43169ZM14.2208 9.91822C14.9693 9.91822 15.3019 9.50243 15.3019 8.83714V3.09906C15.3019 2.43377 15.0524 2.01795 14.2208 2.01795H13.4724V9.91822H14.2208ZM23.7011 0.437902V8.67081C23.7011 10.334 22.9527 11.4983 21.1232 11.4983C19.2105 11.4983 18.3789 10.4172 18.3789 8.67081V0.437902L20.2084 0.437902V8.92031C20.2084 9.58559 20.4579 10.0014 21.1232 10.0014C21.7884 10.0014 22.0379 9.58559 22.0379 8.92031V0.437902L23.7011 0.437902ZM24.8654 8.58764V3.26536C24.8654 1.51899 25.697 0.354736 27.6097 0.354736C29.6055 0.354736 30.1877 1.519 30.1877 3.09906V4.42961H28.5245V2.93272C28.5245 2.26744 28.275 1.85164 27.6097 1.85164C26.9444 1.85164 26.6949 2.3506 26.6949 3.01589V8.92031C26.6949 9.58559 26.9444 10.0846 27.6097 10.0846C28.275 10.0846 28.5245 9.66873 28.5245 9.00345V7.00759H30.1877V8.92031C30.1877 10.5004 29.5224 11.6646 27.6097 11.6646C25.697 11.4983 24.8654 10.2509 24.8654 8.58764ZM31.3519 0.437902L35.7594 0.437902V1.93479L33.1815 1.93479V5.09491H35.011V6.59179H33.1815V9.91822H35.7594V11.4151H31.3519V0.437902ZM42.4123 3.43169V8.5045C42.4123 10.1677 41.747 11.4151 39.7512 11.4151H36.9237V0.437902L39.7512 0.437902C41.747 0.437902 42.4123 1.68532 42.4123 3.43169ZM39.5017 9.91822C40.2501 9.91822 40.5828 9.50243 40.5828 8.83714V3.09906C40.5828 2.43377 40.3333 2.01795 39.5017 2.01795H38.7532V9.91822H39.5017Z" fill="#F22F7A"/>
<path d="M0.0834961 16.4048H1.91304L1.91304 27.2988H0.0834961L0.0834961 16.4048ZM4.65734 20.3965L4.65734 27.2988H3.07726L3.07726 16.4048H4.90681L6.90269 22.6418L6.90269 16.4048H8.39957V27.2988H6.81949L4.65734 20.3965ZM9.48065 16.4048H13.8882V17.9017H11.3102V21.0618H13.1397V22.5587H11.3102V25.8851H13.8882V27.382H9.48065V16.4048ZM16.6324 28.0473V27.2988C15.1356 27.0493 14.5534 25.9683 14.5534 24.4714V19.1491C14.5534 17.4027 15.3851 16.2385 17.2978 16.2385C19.2105 16.2385 20.1252 17.4859 20.1252 19.1491V24.4714C20.1252 25.6356 19.7094 26.6335 18.7947 27.0493L20.1252 27.2988V28.6294L16.6324 28.0473ZM18.2957 24.8872V18.8996C18.2957 18.2343 18.0462 17.7353 17.3809 17.7353C16.7156 17.7353 16.4662 18.2343 16.4662 18.8996V24.8872C16.4662 25.5524 16.7156 26.0514 17.3809 26.0514C17.963 25.9682 18.2957 25.5524 18.2957 24.8872ZM26.4455 16.4048V24.6377C26.4455 26.3009 25.697 27.4652 23.8674 27.4652C21.9547 27.4652 21.1232 26.3841 21.1232 24.6377V16.4048H22.9527V24.8872C22.9527 25.5524 23.2022 25.9683 23.8674 25.9683C24.5327 25.9683 24.7822 25.5524 24.7822 24.8872V16.4048H26.4455ZM27.0275 27.2988L29.1066 16.4048L31.1856 16.4048L33.2646 27.2988H31.3519L31.0193 25.303L29.1066 25.303L28.7739 27.2988H27.0275ZM29.3561 23.8061H30.853L30.1045 19.3986L29.3561 23.8061ZM34.0962 16.4048H35.9257V25.8019H38.088V27.2988H34.0962V16.4048ZM38.9196 16.4048H40.7491V27.2988H38.9196V16.4048ZM41.5807 16.4048H46.4872V17.9017H44.9903V27.2988H43.1607V17.9017H41.6639V16.4048H41.5807ZM47.3188 16.4048H49.1483V27.2988H47.3188V16.4048ZM50.2294 16.4048H54.6369V17.9017H52.0589V21.0618H53.8885V22.5587H52.0589V25.8851H54.6369V27.382H50.2294V16.4048ZM55.3854 24.9703V23.4734H57.1317V24.9703C57.1317 25.5525 57.3812 25.9683 58.0465 25.9683C58.6287 25.9683 58.8781 25.5525 58.8781 24.9703V24.5545C58.8781 23.8892 58.6287 23.5566 58.0465 22.9745L56.9654 21.8934C55.8843 20.8954 55.4685 20.2302 55.4685 18.9827V18.6501C55.4685 17.3195 56.3002 16.2385 58.0465 16.2385C59.8761 16.2385 60.6245 17.1532 60.6245 18.7333V19.648H58.9613V18.7333C58.9613 18.068 58.7118 17.8185 58.1297 17.8185C57.6307 17.8185 57.2981 18.068 57.2981 18.7333V18.9827C57.2981 19.5649 57.6307 19.9807 58.1297 20.4797L59.2939 21.6439C60.2919 22.6418 60.7908 23.3071 60.7908 24.4714V24.9703C60.7908 26.4672 59.9592 27.5483 58.1297 27.5483C56.0507 27.4652 55.3854 26.3841 55.3854 24.9703Z" fill="#F22F7A"/>
</svg>
