<svg width="65" height="37" viewBox="0 0 65 37" fill="none" xmlns="http://www.w3.org/2000/svg">
<path d="M2.20614 5.48438L2.20614 9.40916H0.76709L0.76709 0.840062L2.86027 0.840062C4.29936 0.840062 4.82266 1.5596 4.82266 2.73703V3.84906C4.82266 4.76484 4.49564 5.28815 3.64527 5.48438L5.01893 9.40916H3.5144L2.20614 5.48438ZM2.20614 2.01749V4.69942H2.66408C3.18738 4.69942 3.38361 4.43776 3.38361 3.97987V2.73703C3.38361 2.27914 3.18738 2.01749 2.66408 2.01749H2.20614ZM5.80385 0.840062L9.27077 0.840062V2.01749H7.24298V4.50319H8.68204V5.68061H7.24298V8.29713H9.27077V9.47456H5.80385L5.80385 0.840062ZM10.0557 7.57759V6.40016H11.4293V7.57759C11.4293 8.03548 11.6257 8.36255 12.149 8.36255C12.6068 8.36255 12.8031 8.03548 12.8031 7.57759V7.25052C12.8031 6.72722 12.6068 6.46557 12.149 6.00768L11.2986 5.15732C10.4482 4.37236 10.1211 3.84906 10.1211 2.86787V2.6062C10.1211 1.55959 10.7753 0.709229 12.149 0.709229C13.588 0.709229 14.1767 1.42877 14.1767 2.67162V3.39116H12.8685V2.67162C12.8685 2.14831 12.6722 1.95207 12.2144 1.95207C11.8219 1.95207 11.5602 2.14831 11.5602 2.67162V2.86787C11.5602 3.32576 11.8219 3.65281 12.2144 4.04529L13.1301 4.96107C13.9151 5.74602 14.3075 6.26932 14.3075 7.1851V7.57759C14.3075 8.75502 13.6534 9.60539 12.2144 9.60539C10.6444 9.53998 10.0557 8.6896 10.0557 7.57759ZM15.0925 0.840062L17.2511 0.840062C18.6902 0.840062 19.2135 1.5596 19.2135 2.73703V4.56859C19.2135 5.74602 18.6902 6.53097 17.2511 6.53097H16.5316V9.47456H15.0925V0.840062ZM16.5316 2.01749V5.41897H17.0549C17.5782 5.41897 17.7744 5.15731 17.7744 4.69942V2.73703C17.7744 2.27914 17.5782 2.01749 17.0549 2.01749H16.5316ZM20.1293 7.1851V2.99868C20.1293 1.62501 20.7835 0.709229 22.288 0.709229C23.7925 0.709229 24.5119 1.69042 24.5119 2.99868V7.1851C24.5119 8.49336 23.8579 9.47456 22.288 9.47456C20.7835 9.53997 20.1293 8.49336 20.1293 7.1851ZM23.0729 7.44677V2.80245C23.0729 2.27915 22.8767 1.88667 22.3534 1.88667C21.83 1.88667 21.6338 2.27915 21.6338 2.80245V7.44677C21.6338 7.97007 21.83 8.36255 22.3534 8.36255C22.8112 8.29714 23.0729 7.97007 23.0729 7.44677ZM26.6706 3.97987V9.40916H25.4277V0.840062L26.8669 0.840062L28.4367 5.74603V0.840062H29.6142V9.40916H28.3713L26.6706 3.97987ZM30.5954 7.57759V6.40016H31.969V7.57759C31.969 8.03548 32.1652 8.36255 32.6885 8.36255C33.1464 8.36255 33.3427 8.03548 33.3427 7.57759V7.25052C33.3427 6.72722 33.1464 6.46557 32.6885 6.00768L31.8382 5.15732C30.9879 4.37236 30.6608 3.84906 30.6608 2.86787V2.6062C30.6608 1.55959 31.3149 0.709229 32.6885 0.709229C34.1276 0.709229 34.7164 1.42877 34.7164 2.67162V3.39116H33.4082V2.67162C33.4082 2.14831 33.2119 1.95207 32.754 1.95207C32.3615 1.95207 32.0999 2.14831 32.0999 2.67162V2.86787C32.0999 3.32576 32.3615 3.65281 32.754 4.04529L33.6697 4.96107C34.4547 5.74602 34.8472 6.26932 34.8472 7.1851V7.57759C34.8472 8.75502 34.1931 9.60539 32.754 9.60539C31.1187 9.53998 30.5954 8.6896 30.5954 7.57759ZM35.5667 0.840062H37.0059V9.40916H35.5667V0.840062ZM37.9871 0.840062L40.0802 0.840062C41.5193 0.840062 41.9772 1.49419 41.9772 2.73703V3.58739C41.9772 4.30694 41.7155 4.76483 41.1268 4.96107C41.8464 5.15731 42.1734 5.61521 42.1734 6.40016V7.51217C42.1734 8.75501 41.6501 9.40916 40.211 9.40916H37.9871V0.840062ZM39.4915 4.43777H40.0148C40.4727 4.43777 40.669 4.17612 40.669 3.71823V2.67162C40.669 2.21373 40.4727 1.95207 39.9494 1.95207H39.4261L39.4915 4.43777ZM39.4915 8.23171H40.1456C40.6035 8.23171 40.8652 7.97006 40.8652 7.51217V6.20391C40.8652 5.74602 40.6689 5.48438 40.1456 5.48438H39.4915V8.23171ZM43.0892 0.840062L44.5284 0.840062V8.23171H46.2291V9.40916H43.0892V0.840062ZM47.0794 0.840062L50.5463 0.840062V2.01749H48.5185V4.50319H49.9576V5.68061H48.5185V8.29713H50.5463V9.47456L47.0794 9.47456V0.840062Z" fill="#DF782A"/>
<path d="M0.76709 20.0545L0.76709 15.8681C0.76709 14.4944 1.42117 13.5786 2.92567 13.5786C4.49558 13.5786 4.95353 14.4944 4.95353 15.7372V16.7838H3.64527V15.6718C3.64527 15.1485 3.44897 14.8215 2.92567 14.8215C2.40237 14.8215 2.20614 15.2139 2.20614 15.7372V20.3816C2.20614 20.9049 2.40237 21.2973 2.92567 21.2973C3.44897 21.2973 3.64527 20.9703 3.64527 20.447V18.877H4.95353V20.3816C4.95353 21.6244 4.43017 22.5402 2.92567 22.5402C1.42117 22.4093 0.76709 21.4282 0.76709 20.0545ZM5.86925 20.0545V15.8681C5.86925 14.4944 6.52341 13.5786 8.02791 13.5786C9.53241 13.5786 10.252 14.5598 10.252 15.8681L10.252 20.0545C10.252 21.3627 9.59782 22.3439 8.02791 22.3439C6.52341 22.4094 5.86925 21.4282 5.86925 20.0545ZM8.81283 20.3161L8.81283 15.6718C8.81283 15.1485 8.61661 14.756 8.09331 14.756C7.57 14.756 7.37378 15.1485 7.37378 15.6718V20.3161C7.37378 20.8394 7.57 21.2319 8.09331 21.2319C8.61661 21.1665 8.81283 20.8394 8.81283 20.3161ZM12.4105 16.9147V22.3439H11.1678L11.1678 13.7748H12.6068L14.1767 18.6808L14.1767 13.7748H15.3541L15.3541 22.3439H14.1113L12.4105 16.9147ZM16.2699 20.447V19.2695H17.6436V20.447C17.6436 20.9049 17.8399 21.2319 18.3632 21.2319C18.8211 21.2319 19.0173 20.9049 19.0173 20.447V20.1199C19.0173 19.5966 18.8211 19.3349 18.3632 18.877L17.5128 18.0267C16.6624 17.2417 16.3353 16.7184 16.3353 15.7372V15.4756C16.3353 14.429 16.9895 13.5786 18.3632 13.5786C19.8023 13.5786 20.391 14.2982 20.391 15.541V16.2605H19.0827V15.541C19.0827 15.0177 18.8865 14.8215 18.4286 14.8215C18.0361 14.8215 17.7745 15.0177 17.7745 15.541V15.7372C17.7745 16.1951 18.0361 16.5222 18.4286 16.9147L19.3444 17.8305C20.1293 18.6154 20.5218 19.1387 20.5218 20.0545V20.447C20.5218 21.6244 19.8677 22.4748 18.4286 22.4748C16.8587 22.4093 16.2699 21.559 16.2699 20.447ZM25.4931 13.7094V20.1853C25.4931 21.4936 24.9044 22.4094 23.4653 22.4094C21.9608 22.4094 21.3068 21.559 21.3068 20.1853V13.7094H22.7458V20.3816C22.7458 20.9049 22.942 21.2319 23.4653 21.2319C23.9886 21.2319 24.1849 20.9049 24.1849 20.3816V13.7094H25.4931ZM30.4646 16.7184L29.4179 22.2785H28.7638L27.7172 16.7184V22.2785H26.5398V13.7094H28.2405L29.1563 18.55L30.0066 13.7094H31.8382V22.2785H30.53V16.7184H30.4646ZM32.754 13.7094H34.9126C36.3517 13.7094 36.875 14.429 36.875 15.6064V17.438C36.875 18.6154 36.3517 19.4004 34.9126 19.4004H34.1931V22.3439L32.754 22.3439V13.7094ZM34.1931 14.8869V18.2883H34.7164C35.2397 18.2883 35.4359 18.0267 35.4359 17.5688V15.6064C35.4359 15.1485 35.2397 14.8869 34.7164 14.8869H34.1931ZM37.3329 13.7094H41.1922V14.8869H40.0149V22.2785H38.5757V14.8869H37.3983L37.3329 13.7094ZM41.8464 13.7094H43.2855V22.2785H41.8464V13.7094ZM44.1358 20.0545V15.8681C44.1358 14.4944 44.79 13.5786 46.2945 13.5786C47.799 13.5786 48.5185 14.5598 48.5185 15.8681V20.0545C48.5185 21.3627 47.8644 22.3439 46.2945 22.3439C44.79 22.4094 44.1358 21.4282 44.1358 20.0545ZM47.0794 20.3161V15.6718C47.0794 15.1485 46.8832 14.756 46.3599 14.756C45.8366 14.756 45.6403 15.1485 45.6403 15.6718V20.3161C45.6403 20.8394 45.8366 21.2319 46.3599 21.2319C46.8178 21.1665 47.0794 20.8394 47.0794 20.3161ZM50.6117 16.9147V22.3439H49.3689V13.7748H50.808L52.3779 18.6808V13.7748H53.5553V22.3439H52.3124L50.6117 16.9147Z" fill="#DF782A"/>
<path d="M0.76709 36.4091L2.40242 27.8401H4.03774L5.67306 36.4091H4.16861L3.90694 34.8392H2.40242L2.14075 36.4091H0.76709ZM2.53329 33.7272H3.71067L3.12194 30.2603L2.53329 33.7272ZM7.50465 31.0453V36.4746H6.2618V27.9055H7.70085L9.27077 32.8114V27.9055H10.4482V36.4746H9.20538L7.50465 31.0453ZM15.6813 30.1295V34.1197C15.6813 35.4279 15.1579 36.4091 13.588 36.4091H11.364V27.8401H13.588C15.0925 27.8401 15.6813 28.8213 15.6813 30.1295ZM13.3918 35.2317C13.9805 35.2317 14.2421 34.9047 14.2421 34.3814V29.8678C14.2421 29.3445 14.0459 29.0175 13.3918 29.0175H12.8031V35.2317H13.3918ZM17.9053 27.8401H20.0639C21.503 27.8401 22.0263 28.5596 22.0263 29.737V31.5686C22.0263 32.746 21.503 33.531 20.0639 33.531H19.3444V36.4746H17.9053L17.9053 27.8401ZM19.3444 29.0175V32.419H19.8677C20.391 32.419 20.5872 32.1573 20.5872 31.6994V29.737C20.5872 29.2791 20.391 29.0175 19.8677 29.0175H19.3444ZM24.2504 32.4844L24.2504 36.4091H22.8113L22.8113 27.8401H24.9045C26.3436 27.8401 26.8669 28.5596 26.8669 29.737V30.849C26.8669 31.7648 26.5398 32.2881 25.6894 32.4844L27.0631 36.4091H25.5586L24.2504 32.4844ZM24.2504 29.0175V31.6994H24.7082C25.2315 31.6994 25.4278 31.4378 25.4278 30.9799V29.737C25.4278 29.2791 25.2315 29.0175 24.7082 29.0175H24.2504ZM27.7173 34.1851L27.7173 29.9987C27.7173 28.625 28.3713 27.7092 29.8758 27.7092C31.3803 27.7092 32.0999 28.6904 32.0999 29.9987V34.1851C32.0999 35.4934 31.4458 36.4746 29.8758 36.4746C28.3713 36.54 27.7173 35.5588 27.7173 34.1851ZM30.6608 34.4468L30.6608 29.8025C30.6608 29.2791 30.4645 28.8867 29.9412 28.8867C29.4179 28.8867 29.2217 29.2791 29.2217 29.8025L29.2217 34.4468C29.2217 34.9701 29.4179 35.3625 29.9412 35.3625C30.4645 35.2971 30.6608 34.9701 30.6608 34.4468ZM37.3329 30.1295V34.1197C37.3329 35.4279 36.8097 36.4091 35.2398 36.4091H33.0157V27.8401H35.2398C36.7443 27.8401 37.3329 28.8213 37.3329 30.1295ZM35.0435 35.2317C35.6322 35.2317 35.8939 34.9047 35.8939 34.3814V29.8678C35.8939 29.3445 35.6976 29.0175 35.0435 29.0175H34.4548V35.2317H35.0435ZM42.3697 27.8401V34.3159C42.3697 35.6242 41.781 36.54 40.3419 36.54C38.8374 36.54 38.1833 35.6896 38.1833 34.3159V27.8401H39.6224V34.5122C39.6224 35.0355 39.8186 35.3625 40.3419 35.3625C40.8652 35.3625 41.0614 35.0355 41.0614 34.5122V27.8401H42.3697ZM43.2201 34.1851V29.9987C43.2201 28.625 43.8743 27.7092 45.3788 27.7092C46.9487 27.7092 47.4065 28.625 47.4065 29.8678V30.9145H46.0983V29.8025C46.0983 29.2791 45.9021 28.9521 45.3788 28.9521C44.8554 28.9521 44.6591 29.3445 44.6591 29.8678V34.5122C44.6591 35.0355 44.8554 35.4279 45.3788 35.4279C45.9021 35.4279 46.0983 35.1009 46.0983 34.5776V33.0077H47.4065V34.5122C47.4065 35.755 46.8833 36.6708 45.3788 36.6708C43.8743 36.54 43.2201 35.5588 43.2201 34.1851ZM48.1261 27.8401H51.9854V29.0175H50.808V36.4091H49.3689V29.0175H48.1915L48.1261 27.8401ZM52.6396 27.8401H54.0786V36.4091H52.6396V27.8401ZM54.929 34.1851V29.9987C54.929 28.625 55.5831 27.7092 57.0876 27.7092C58.5921 27.7092 59.3117 28.6904 59.3117 29.9987V34.1851C59.3117 35.4934 58.6575 36.4746 57.0876 36.4746C55.5831 36.54 54.929 35.5588 54.929 34.1851ZM57.8726 34.4468V29.8025C57.8726 29.2791 57.6764 28.8867 57.1531 28.8867C56.6298 28.8867 56.4335 29.2791 56.4335 29.8025V34.4468C56.4335 34.9701 56.6298 35.3625 57.1531 35.3625C57.611 35.2971 57.8726 34.9701 57.8726 34.4468ZM61.3394 31.0453V36.4746H60.0967V27.9055H61.5357L63.1056 32.8114V27.9055H64.283V36.4746H63.0402L61.3394 31.0453Z" fill="#DF782A"/>
</svg>
