<svg width="50" height="47" viewBox="0 0 50 47" fill="none" xmlns="http://www.w3.org/2000/svg">
<path d="M17.2856 24.3926V46.1945H5.82294V35.8552C9.19295 32.5769 13.9385 27.7855 17.2856 24.3926Z" fill="white"/>
<path d="M31.4535 25.3095V46.1944H20.0596V23.8652L26.4787 30.2843L31.4535 25.3095Z" fill="white"/>
<path d="M45.8735 10.8896V46.1945H34.5025V22.2835L45.8735 10.8896Z" fill="white"/>
<path d="M38.6061 0V3.43879H44.1082L26.4787 21.0454L18.9363 13.503L17.7212 14.718C11.3251 21.1829 0.87116 31.7286 0 32.4392L1.05454 33.7919L2.08617 35.1674C2.95733 34.5254 14.0073 23.3608 18.9363 18.3631L26.4787 25.9056L46.5612 5.823V11.4626H50V0H38.6061Z" fill="white"/>
</svg>
