<svg width="75" height="27" viewBox="0 0 75 27" fill="none" xmlns="http://www.w3.org/2000/svg">
<path d="M0.258789 10.7261L2.21715 0.464295L4.17551 0.464295L6.13386 10.7261L4.33218 10.7261L4.01884 8.84605H2.21715L1.90381 10.7261H0.258789ZM2.45215 7.43604L3.86217 7.43604L3.15717 3.28434L2.45215 7.43604ZM6.76054 0.464295L10.8339 0.464295V1.8743L8.48389 1.8743V4.85102H10.2073L10.2073 6.26103H8.48389V10.8044H6.76054L6.76054 0.464295ZM11.5389 0.464295L15.6123 0.464295V1.8743L13.2623 1.8743V4.85102L14.9856 4.85102L14.9856 6.26103L13.2623 6.26103V10.8044H11.5389L11.5389 0.464295ZM16.0823 8.06271V3.04932C16.0823 1.4043 16.8657 0.307617 18.6674 0.307617C20.469 0.307617 21.3307 1.48263 21.3307 3.04932V8.06271C21.3307 9.62939 20.5474 10.8044 18.6674 10.8044C16.8657 10.8827 16.0823 9.62939 16.0823 8.06271ZM19.6074 8.37607V2.81432C19.6074 2.18765 19.3724 1.71765 18.7457 1.71765C18.119 1.71765 17.884 2.18765 17.884 2.81432V8.37607C17.884 9.00274 18.119 9.47274 18.7457 9.47274C19.3724 9.39441 19.6074 9.00274 19.6074 8.37607ZM23.9941 6.02604V10.7261H22.2707V0.464295L24.7774 0.464295C26.5008 0.464295 27.1275 1.32597 27.1275 2.73599V4.06768C27.1275 5.16436 26.7358 5.79103 25.7174 6.02604L27.3625 10.7261L25.5608 10.7261L23.9941 6.02604ZM23.9941 1.8743V5.08601L24.5424 5.08601C25.1691 5.08601 25.4041 4.77267 25.4041 4.22433V2.73599C25.4041 2.18765 25.1691 1.8743 24.5424 1.8743H23.9941ZM33.2375 3.206V7.98439C33.2375 9.55108 32.6109 10.7261 30.7308 10.7261H28.0675V0.464295L30.7308 0.464295C32.5325 0.464295 33.2375 1.63931 33.2375 3.206ZM30.4958 9.31606C31.2009 9.31606 31.5142 8.9244 31.5142 8.29773V2.89266C31.5142 2.26599 31.2792 1.8743 30.4958 1.8743L29.7908 1.8743V9.31606H30.4958ZM33.6292 10.7261L35.5876 0.464295L37.5459 0.464295L39.5043 10.7261H37.7026L37.3893 8.84605H35.5876L35.2742 10.7261H33.6292ZM35.8226 7.43604H37.2326L36.5276 3.28434L35.8226 7.43604ZM40.131 0.464295L42.6377 0.464295C44.361 0.464295 44.9094 1.24763 44.9094 2.73599V3.75432C44.9094 4.616 44.596 5.16434 43.891 5.39935C44.7527 5.63435 45.1444 6.1827 45.1444 7.12271V8.45438C45.1444 9.94273 44.5177 10.7261 42.7943 10.7261H40.131V0.464295ZM42.481 4.77268C43.0293 4.77268 43.2643 4.45934 43.2643 3.911V2.65765C43.2643 2.10931 43.0293 1.79596 42.4027 1.79596L41.776 1.79596V4.77268H42.481ZM41.8543 9.31606H42.6377C43.186 9.31606 43.4993 9.00272 43.4993 8.45438V6.88769C43.4993 6.33935 43.2643 6.02604 42.6377 6.02604H41.8543V9.31606ZM46.006 0.464295L47.7294 0.464295V9.31606L49.7661 9.31606V10.7261L46.006 10.7261V0.464295ZM50.5494 0.464295L54.7011 0.464295V1.8743L52.2728 1.8743V4.85102H53.9961V6.26103H52.2728V9.3944H54.7011V10.8044H50.5494V0.464295ZM56.7378 10.7261L58.6962 0.464295L60.6546 0.464295L62.6129 10.7261H60.8112L60.4979 8.84605L58.6962 8.84605L58.3829 10.7261H56.7378ZM58.9312 7.43604H60.3412L59.6362 3.28434L58.9312 7.43604ZM64.7279 4.22433V10.7261H63.2396V0.464295L64.9629 0.464295L66.843 6.33937V0.464295L68.253 0.464295V10.7261H66.7646L64.7279 4.22433ZM74.3631 3.206V7.98439C74.3631 9.55108 73.7364 10.7261 71.8564 10.7261L69.193 10.7261V0.464295L71.8564 0.464295C73.7364 0.464295 74.3631 1.63931 74.3631 3.206ZM71.6997 9.31606C72.4047 9.31606 72.718 8.9244 72.718 8.29773V2.89266C72.718 2.26599 72.483 1.8743 71.6997 1.8743L70.9947 1.8743V9.31606H71.6997Z" fill="#FFB724"/>
<path d="M0.494167 23.181L0.494167 18.2459C0.494167 16.6792 1.27751 15.5042 3.0792 15.5042C4.95923 15.5042 5.50757 16.6009 5.50757 18.0893L5.50757 19.2643H3.94088V17.9326C3.94088 17.3059 3.70588 16.9143 3.0792 16.9143C2.45253 16.9143 2.21752 17.3843 2.21752 18.0109L2.21752 23.4943C2.21752 24.121 2.45253 24.591 3.0792 24.591C3.70588 24.591 3.94088 24.1993 3.94088 23.5727L3.94088 21.6927H5.50757V23.4943C5.50757 24.9827 4.88089 26.0794 3.0792 26.0794C1.27751 26.001 0.494167 24.826 0.494167 23.181ZM6.60425 15.5826H8.3276L8.3276 24.4344H10.3643V25.8444H6.60425L6.60425 15.5826ZM11.3043 15.5826H15.3777L15.3777 16.9926H13.0277V19.891H14.751V21.301H13.0277V24.4344H15.3777V25.8444H11.3043L11.3043 15.5826ZM16.2394 25.8444L18.1977 15.5826H20.1561L22.1144 25.8444H20.3127L19.9994 23.9643H18.1977L17.8844 25.8444H16.2394ZM18.4327 22.6327H19.8427L19.1377 18.4809L18.4327 22.6327ZM24.3861 19.4209V25.8444H22.8978V15.5826H24.6211L26.5012 21.4576V15.5826L27.9112 15.5826V25.8444H26.4228L24.3861 19.4209ZM32.5329 15.5826H36.6063V16.9926H34.2563V19.891H35.9796V21.301H34.2563L34.2563 24.4344H36.6063V25.8444H32.5329L32.5329 15.5826ZM39.113 19.4209L39.113 25.8444H37.6246L37.6246 15.5826H39.348L41.228 21.4576V15.5826H42.638L42.638 25.8444H41.1497L39.113 19.4209ZM43.813 15.5826H47.8864V16.9926H45.5364V19.891H47.2597V21.301H45.5364L45.5364 24.4344H47.8864V25.8444H43.813L43.813 15.5826ZM50.7065 21.1443L50.7065 25.8444H48.9831L48.9831 15.5826H51.4898C53.2132 15.5826 53.8398 16.4442 53.8398 17.8543V19.1859C53.8398 20.2826 53.4482 20.9093 52.4298 21.1443L54.0748 25.766L52.2731 25.766L50.7065 21.1443ZM50.7065 16.9926V20.2043H51.2548C51.8815 20.2043 52.1165 19.891 52.1165 19.3426V17.8543C52.1165 17.3059 51.8815 16.9926 51.2548 16.9926H50.7065ZM57.5215 20.361H59.9499L59.9499 25.8444H58.6966V24.7477C58.4616 25.531 57.9915 26.001 57.0515 26.001C55.5632 26.001 54.8582 24.826 54.8582 23.2593L54.8582 18.3243C54.8582 16.7576 55.6415 15.5826 57.4432 15.5826C59.3232 15.5826 59.8716 16.6793 59.8716 18.1676V19.1076H58.3049V18.0893C58.3049 17.4626 58.0699 17.0709 57.4432 17.0709C56.8165 17.0709 56.5815 17.5409 56.5815 18.1676L56.5815 23.651C56.5815 24.2777 56.8165 24.7477 57.4432 24.7477C57.9915 24.7477 58.3049 24.4343 58.3049 23.7293V21.9276H57.5215L57.5215 20.361ZM64.415 21.9276V25.8444H62.6916V21.9276L60.7333 15.5826H62.5349L63.5533 19.4993L64.5716 15.5826H66.2167L64.415 21.9276Z" fill="#FFB724"/>
</svg>
