<svg width="26" height="17" viewBox="0 0 26 17" fill="none" xmlns="http://www.w3.org/2000/svg">
<path d="M24.4478 10.988L25.3777 9.168C25.391 9.08959 25.3806 9.00903 25.3479 8.93656C25.3151 8.86409 25.2615 8.803 25.1939 8.76114C25.1263 8.71928 25.0477 8.69854 24.9682 8.70154C24.8888 8.70454 24.812 8.73118 24.7477 8.77802L21.2477 11.448C18.675 9.82801 15.7944 8.75887 12.7878 8.30802L12.9677 6.77802C12.9677 6.77802 9.01775 6.66801 7.54774 7.20801C6.63728 7.6532 5.9042 8.39333 5.46774 9.30802C3.71772 10.1302 2.17088 11.3287 0.937744 12.818L1.93774 13.288L1.36775 13.688C2.3062 14.1496 3.27912 14.5374 4.27774 14.848C4.73929 14.1727 5.07784 13.4212 5.27774 12.628C5.37846 13.4583 5.37846 14.2977 5.27774 15.128C6.26165 15.3925 7.26469 15.5797 8.27774 15.688C8.37746 15.8985 8.52542 16.0824 8.70961 16.2249C8.8938 16.3673 9.10902 16.4643 9.33775 16.508C10.7419 16.6272 12.1536 16.6272 13.5578 16.508V15.398C16.4186 14.766 19.0676 13.4053 21.2477 11.448L24.7377 13.988C24.801 14.0369 24.8777 14.0652 24.9575 14.0691C25.0373 14.0729 25.1164 14.0522 25.184 14.0096C25.2517 13.9671 25.3046 13.9048 25.3357 13.8312C25.3667 13.7576 25.3744 13.6761 25.3577 13.598L24.4478 11.898C24.3758 11.7571 24.3382 11.6012 24.3382 11.443C24.3382 11.2848 24.3758 11.1289 24.4478 10.988ZM3.44775 12.578C3.31249 12.578 3.18277 12.5243 3.08713 12.4286C2.99148 12.333 2.93774 12.2033 2.93774 12.068C2.96096 11.9525 3.02346 11.8486 3.11461 11.774C3.20576 11.6993 3.31993 11.6585 3.43774 11.6585C3.55556 11.6585 3.66975 11.6993 3.76089 11.774C3.85204 11.8486 3.91453 11.9525 3.93774 12.068C3.93008 12.198 3.87299 12.3201 3.77817 12.4094C3.68334 12.4986 3.55797 12.5482 3.42775 12.548L3.44775 12.578Z" fill="url(#paint0_linear_24_389)"/>
<path d="M24.9977 0.987976C24.5372 1.22042 24.1419 1.56414 23.8477 1.98798C23.5878 2.4186 23.2211 2.77479 22.7831 3.02203C22.3451 3.26928 21.8507 3.3992 21.3477 3.3992C20.8448 3.3992 20.3503 3.26928 19.9123 3.02203C19.4743 2.77479 19.1076 2.4186 18.8477 1.98798C18.6711 1.64127 18.402 1.35016 18.0702 1.14685C17.7384 0.943539 17.3568 0.835938 16.9677 0.835938C16.5786 0.835938 16.1971 0.943539 15.8653 1.14685C15.5335 1.35016 15.2644 1.64127 15.0877 1.98798C14.8279 2.4186 14.4611 2.77479 14.0231 3.02203C13.5851 3.26928 13.0907 3.3992 12.5877 3.3992C12.0848 3.3992 11.5903 3.26928 11.1523 3.02203C10.7143 2.77479 10.3476 2.4186 10.0877 1.98798C9.91107 1.64127 9.64196 1.35016 9.31018 1.14685C8.9784 0.943539 8.59686 0.835938 8.20773 0.835938C7.81861 0.835938 7.43707 0.943539 7.10529 1.14685C6.7735 1.35016 6.50439 1.64127 6.32773 1.98798C6.06784 2.4186 5.70114 2.77479 5.26314 3.02203C4.82514 3.26928 4.33069 3.3992 3.82773 3.3992C3.32476 3.3992 2.83032 3.26928 2.39232 3.02203C1.95432 2.77479 1.58761 2.4186 1.32773 1.98798C1.09172 1.67007 0.808441 1.39018 0.487732 1.15799L0.427734 5.15799H24.9777L24.9977 0.987976Z" fill="url(#paint1_linear_24_389)"/>
<defs>
<linearGradient id="paint0_linear_24_389" x1="0.937744" y1="11.658" x2="25.3877" y2="11.658" gradientUnits="userSpaceOnUse">
<stop stop-color="#2DD4EA"/>
<stop offset="1" stop-color="#07B9D1"/>
</linearGradient>
<linearGradient id="paint1_linear_24_389" x1="0.397734" y1="3.02798" x2="24.9977" y2="3.02798" gradientUnits="userSpaceOnUse">
<stop stop-color="#2DD4EA"/>
<stop offset="1" stop-color="#07B9D1"/>
</linearGradient>
</defs>
</svg>
