<svg width="50" height="29" viewBox="0 0 50 29" fill="none" xmlns="http://www.w3.org/2000/svg">
<path d="M37.859 0.700253C35.6417 0.641113 33.4423 1.11364 31.4449 2.07831C29.4475 3.04299 27.71 4.47176 26.3778 6.24525L29.1843 8.38844C30.186 7.04583 31.4988 5.96663 33.0099 5.24368C34.521 4.52073 36.1851 4.17567 37.859 4.23817C39.0815 4.18518 40.302 4.38021 41.4471 4.81149C42.5922 5.24278 43.6381 5.90139 44.5219 6.74767C45.4057 7.59396 46.109 8.61039 46.5894 9.73572C47.0699 10.8611 47.3176 12.072 47.3176 13.2956C47.3176 14.5193 47.0699 15.7302 46.5894 16.8555C46.109 17.9808 45.4057 18.9973 44.5219 19.8436C43.6381 20.6898 42.5922 21.3485 41.4471 21.7797C40.302 22.211 39.0815 22.4061 37.859 22.3531C28.691 22.3531 26.82 13.4062 26.7349 12.964C26.1219 9.53511 24.3257 6.42989 21.659 4.18901C18.9923 1.94813 15.6241 0.713559 12.141 0.700253C8.88056 0.820088 5.79365 2.19953 3.5294 4.54853C1.26515 6.89752 0 10.033 0 13.2956C0 16.5583 1.26515 19.6937 3.5294 22.0427C5.79365 24.3917 8.88056 25.7712 12.141 25.891C14.098 25.9135 16.0402 25.5494 17.8561 24.8194L16.9886 27.3708L20.3905 28.5104L23.2991 20.0058L14.7944 17.0972L13.6548 20.4991L16.8695 21.5877C15.3659 22.1782 13.7546 22.4448 12.141 22.3701C10.9185 22.4231 9.69796 22.2281 8.55287 21.7968C7.40779 21.3655 6.36186 20.7069 5.4781 19.8606C4.59434 19.0143 3.89104 17.9979 3.41057 16.8725C2.9301 15.7472 2.6824 14.5362 2.6824 13.3126C2.6824 12.089 2.9301 10.8781 3.41057 9.75275C3.89104 8.62742 4.59434 7.61098 5.4781 6.7647C6.36186 5.91842 7.40779 5.25981 8.55287 4.82852C9.69796 4.39723 10.9185 4.2022 12.141 4.25519C21.309 4.25519 23.18 13.2021 23.265 13.6443C23.8812 17.0717 25.6783 20.1751 28.3443 22.4154C31.0103 24.6557 34.3768 25.8914 37.859 25.908C41.1194 25.7882 44.2064 24.4087 46.4706 22.0597C48.7348 19.7107 50 16.5752 50 13.3126C50 10.05 48.7348 6.91455 46.4706 4.56555C44.2064 2.21655 41.1194 0.837062 37.859 0.717227V0.700253Z" fill="white"/>
</svg>
