<svg width="50" height="42" viewBox="0 0 50 42" fill="none" xmlns="http://www.w3.org/2000/svg">
<path d="M14.5186 35.5596L12.6294 41.7967L36.9306 41.952L35.0932 35.7925C41.0281 33.1191 45.6752 28.221 48.0331 22.1538L1.44926 21.8691C3.83113 27.9768 8.52811 32.8969 14.5186 35.5596Z" fill="white"/>
<path d="M0 13.7422C0.074554 15.0605 0.221423 16.3737 0.439954 17.6759C0.454386 17.8914 0.454386 18.1075 0.439954 18.3229C0.452387 18.1074 0.452387 17.8914 0.439954 17.6759L49.4048 17.9606C49.7274 16.68 49.9267 15.3714 50 14.0527L0 13.7422Z" fill="white"/>
<path d="M1.60455 21.7652L1.2681 20.9111L1.60455 21.7652Z" fill="white"/>
<path d="M48.1884 22.0503C48.1991 21.9557 48.1991 21.8602 48.1884 21.7656C48.1561 21.8651 48.1127 21.9605 48.059 22.0503H48.1884Z" fill="white"/>
<path d="M14.5186 9.23922C15.2426 9.73023 15.7661 10.465 15.9938 11.3096C15.9918 11.3922 16.0077 11.4742 16.0406 11.55C16.0734 11.6257 16.1224 11.6935 16.184 11.7484C16.2456 11.8034 16.3185 11.8443 16.3975 11.8683C16.4766 11.8923 16.5598 11.8988 16.6416 11.8874C16.7234 11.876 16.8018 11.8469 16.8712 11.8022C16.9406 11.7575 16.9995 11.6982 17.0438 11.6285C17.088 11.5587 17.1165 11.4802 17.1274 11.3983C17.1382 11.3164 17.1311 11.2332 17.1066 11.1543C16.843 10.0423 16.1798 9.06596 15.2433 8.41107C14.7969 8.13705 14.4243 7.75794 14.1582 7.30683C13.892 6.85571 13.7403 6.3463 13.7163 5.82307C13.7431 5.29744 13.8987 4.78645 14.1695 4.33514C14.4403 3.88383 14.8179 3.50605 15.2691 3.23508C16.1886 2.63215 16.8523 1.71027 17.1325 0.647089C17.1479 0.567581 17.1454 0.485626 17.1251 0.407219C17.1048 0.328812 17.0672 0.255935 17.0151 0.193918C16.963 0.1319 16.8977 0.0823102 16.824 0.0487747C16.7503 0.0152393 16.67 -0.00139407 16.589 9.14271e-05C16.4611 -0.002246 16.3365 0.0405903 16.2371 0.121063C16.1377 0.201536 16.0699 0.31449 16.0455 0.44005C15.8237 1.28778 15.2869 2.01897 14.5445 2.48456C13.9751 2.84882 13.5015 3.34457 13.1637 3.93007C12.826 4.51558 12.6338 5.17368 12.6035 5.84895C12.6269 6.52634 12.8131 7.18813 13.1465 7.77827C13.4799 8.36841 13.9505 8.86954 14.5186 9.23922Z" fill="white"/>
<path d="M25.3623 9.3168C26.0966 9.79721 26.6232 10.5363 26.8375 11.3872C26.8642 11.5162 26.9313 11.6334 27.029 11.7218C27.1267 11.8101 27.2499 11.8652 27.381 11.8789C27.4627 11.8797 27.5437 11.8628 27.6184 11.8295C27.6931 11.7961 27.7597 11.7471 27.8137 11.6857C27.8677 11.6243 27.9079 11.552 27.9315 11.4737C27.955 11.3954 27.9615 11.3129 27.9503 11.2319C27.6972 10.1084 27.0324 9.12044 26.087 8.46276C25.639 8.19046 25.2653 7.81175 24.9989 7.36027C24.7325 6.9088 24.5818 6.39852 24.56 5.87477C24.5822 5.34806 24.736 4.83528 25.0072 4.38323C25.2784 3.93117 25.6585 3.55423 26.1128 3.28678C27.0272 2.67302 27.6961 1.75671 28.0021 0.698789C28.0132 0.617774 28.0068 0.535307 27.9832 0.457C27.9597 0.378693 27.9195 0.306383 27.8655 0.24499C27.8114 0.183598 27.7448 0.134564 27.6701 0.101225C27.5955 0.067887 27.5145 0.0510265 27.4327 0.0517909C27.3079 0.0503798 27.1868 0.0941289 27.0916 0.174978C26.9965 0.255826 26.9338 0.368326 26.9151 0.491749C26.6718 1.32957 26.1282 2.04828 25.3882 2.51038C24.8183 2.88031 24.3449 3.38089 24.0073 3.97054C23.6697 4.56019 23.4777 5.22189 23.4472 5.90065C23.4664 6.58248 23.6507 7.24946 23.9843 7.84444C24.3178 8.43942 24.7907 8.94464 25.3623 9.3168Z" fill="white"/>
<path d="M36.3613 9.36862C37.0852 9.85962 37.6087 10.5944 37.8364 11.439C37.8344 11.5216 37.8504 11.6036 37.8832 11.6794C37.9161 11.7551 37.965 11.8229 38.0266 11.8778C38.0883 11.9328 38.1611 11.9737 38.2401 11.9977C38.3192 12.0217 38.4025 12.0282 38.4843 12.0168C38.5661 12.0054 38.6444 11.9763 38.7138 11.9316C38.7833 11.8869 38.8422 11.8276 38.8864 11.7579C38.9306 11.6881 38.9592 11.6096 38.97 11.5277C38.9809 11.4458 38.9738 11.3626 38.9492 11.2837C38.6791 10.1677 38.0063 9.19079 37.06 8.54046C36.6121 8.26816 36.2383 7.88945 35.972 7.43797C35.7056 6.98649 35.5548 6.47622 35.5331 5.95247C35.5331 4.73611 36.2577 4.14087 37.0859 3.36448C38.0036 2.75975 38.6668 1.83861 38.9492 0.776484C38.9642 0.69568 38.9615 0.612592 38.9413 0.532928C38.9212 0.453264 38.884 0.378912 38.8323 0.314981C38.7807 0.25105 38.7158 0.199054 38.6422 0.162567C38.5686 0.12608 38.4879 0.105966 38.4057 0.103606C38.2779 0.101269 38.1533 0.144105 38.0539 0.224578C37.9545 0.305051 37.8866 0.418005 37.8623 0.543565C37.6404 1.39129 37.1036 2.12249 36.3613 2.58808C35.7918 2.95233 35.3183 3.44809 34.9805 4.03359C34.6427 4.61909 34.4506 5.27719 34.4203 5.95247C34.4423 6.63664 34.6306 7.30515 34.9687 7.90032C35.3069 8.49548 35.7848 8.99941 36.3613 9.36862Z" fill="white"/>
</svg>
