<svg width="75" height="27" viewBox="0 0 75 27" fill="none" xmlns="http://www.w3.org/2000/svg">
<path d="M0.984863 26.1778L2.97996 15.7235H4.97511L6.97021 26.1778H5.13468L4.81545 24.2625H2.97996L2.66078 26.1778H0.984863ZM3.21937 22.9059H4.65588L3.93762 18.6762L3.21937 22.9059ZM9.20467 19.6339V26.2576H7.68837V15.8033H9.44412L11.3594 21.7886V15.8033H12.7959V26.2576H11.2796L9.20467 19.6339ZM19.3398 18.5166V23.3847C19.3398 24.9808 18.7013 26.1778 16.7861 26.1778H14.0727V15.7235H16.7861C18.7013 15.7235 19.3398 16.9206 19.3398 18.5166ZM16.6265 24.7414C17.3447 24.7414 17.6639 24.3423 17.6639 23.7039V18.1974C17.6639 17.559 17.4245 17.16 16.6265 17.16H15.9082V24.7414H16.6265ZM23.33 23.9433V22.5068H25.0059V23.9433C25.0059 24.5019 25.2453 24.901 25.8837 24.901C26.4424 24.901 26.6818 24.5019 26.6818 23.9433V23.5443C26.6818 22.9059 26.4424 22.5866 25.8837 22.028L24.8462 20.9906C23.8088 20.0329 23.4098 19.3945 23.4098 18.1974V17.8782C23.4098 16.6013 24.2078 15.5639 25.8837 15.5639C27.6394 15.5639 28.3576 16.4417 28.3576 17.958V18.8358H26.7616V17.958C26.7616 17.3196 26.5221 17.0802 25.9635 17.0802C25.4847 17.0802 25.1655 17.3196 25.1655 17.958V18.1974C25.1655 18.756 25.4847 19.1551 25.9635 19.6339L27.0808 20.7511C28.0384 21.7088 28.5173 22.3472 28.5173 23.4645V23.9433C28.5173 25.3798 27.7192 26.4172 25.9635 26.4172C23.9684 26.3374 23.33 25.3 23.33 23.9433ZM28.9163 26.1778L30.9114 15.7235H32.9065L34.9016 26.1778H33.0661L32.7469 24.2625H30.9114L30.5922 26.1778H28.9163ZM31.071 22.9059H32.5075L31.7892 18.6762L31.071 22.9059ZM37.2159 19.6339V26.2576H35.6997V15.8033H37.4553L39.3706 21.7886V15.8033H40.807V26.2576H39.2908L37.2159 19.6339ZM42.2436 15.7235H43.9992V26.1778H42.2436V15.7235ZM44.8771 15.7235H49.5855V17.16H48.1491V26.1778H46.3933V17.16H44.9569L44.8771 15.7235ZM49.1067 26.1778L51.1018 15.7235H53.0969L55.092 26.1778H53.2566L52.9373 24.2625H51.1018L50.7825 26.1778H49.1067ZM51.3412 22.9059H52.7777L52.0595 18.6762L51.3412 22.9059ZM54.5334 15.7235H59.2419V17.16H57.8053V26.1778H56.0497V17.16H54.6132L54.5334 15.7235ZM60.1995 15.7235H61.9551V26.1778H60.1995V15.7235ZM63.0724 23.4645V18.357C63.0724 16.6811 63.8705 15.5639 65.706 15.5639C67.5415 15.5639 68.4193 16.7609 68.4193 18.357V23.4645C68.4193 25.0606 67.6213 26.2576 65.706 26.2576C63.9503 26.3374 63.0724 25.1404 63.0724 23.4645ZM66.6636 23.7837V18.1176C66.6636 17.4792 66.4242 17.0004 65.7857 17.0004C65.1473 17.0004 64.9079 17.4792 64.9079 18.1176V23.7837C64.9079 24.4221 65.1473 24.901 65.7857 24.901C66.4242 24.8212 66.6636 24.4221 66.6636 23.7837ZM71.1326 19.6339V26.2576H69.6164V15.8033H71.372L73.2873 21.7886V15.8033H74.7238V26.2576H73.2076L71.1326 19.6339Z" fill="#1FCAE1"/>
<path d="M1.22386 7.98313V2.87566C1.22386 1.19978 2.02194 0.0825195 3.85743 0.0825195C5.77273 0.0825195 6.33134 1.19978 6.33134 2.71606V3.99292H4.73526V2.63625C4.73526 1.99781 4.49587 1.5988 3.85743 1.5988C3.219 1.5988 2.97956 2.07762 2.97956 2.71606V8.38215C2.97956 9.02058 3.219 9.4994 3.85743 9.4994C4.49587 9.4994 4.73526 9.10038 4.73526 8.46194V6.54665H6.33134V8.38215C6.33134 9.89842 5.69293 11.0157 3.85743 11.0157C1.94214 10.8561 1.22386 9.65901 1.22386 7.98313ZM7.44861 0.242125H9.20426V9.25998H11.2791V10.6965H7.44861V0.242125ZM12.2369 0.242125H16.4664V1.6786H13.9925V4.71116H15.7483V6.14763H13.9925V9.33979H16.4664V10.7763H12.2369V0.242125ZM17.2645 10.6965L19.2596 0.242125H21.2547L23.2498 10.6965H21.4143L21.0951 8.78117H19.2596L18.9404 10.6965H17.2645ZM19.499 7.42449H20.9355L20.2173 3.19488L19.499 7.42449ZM25.6439 4.15253V10.7763H24.1277V0.321934H25.8833L27.7986 6.30724V0.321934H29.2351V10.7763H27.7189L25.6439 4.15253ZM36.8164 4.23233L35.8588 10.6965H34.183L32.7465 0.242125H34.4223L35.2204 6.86586L36.0983 0.242125H37.5347L38.4924 6.86586L39.2904 0.242125H40.8066L39.45 10.6965H37.7741L36.8164 4.23233ZM40.8865 10.6965L42.8816 0.242125H44.8767L46.8718 10.6965H45.0363L44.7171 8.78117H42.8816L42.5624 10.6965H40.8865ZM43.0412 7.42449H44.4777L43.7594 3.19488L43.0412 7.42449ZM46.6324 0.242125H51.3408V1.6786H49.9043V10.6965H48.1487V1.6786H46.7122L46.6324 0.242125ZM52.1389 0.242125H56.3684V1.6786H53.8945V4.71116H55.6503V6.14763H53.8945V9.33979H56.3684V10.7763H52.1389V0.242125ZM59.0818 5.90822V10.6965H57.3261V0.242125H59.8798C61.6355 0.242125 62.2739 1.11998 62.2739 2.55645V3.91312C62.2739 5.03037 61.875 5.6688 60.8375 5.90822L62.5134 10.6965H60.6779L59.0818 5.90822ZM59.0818 1.6786V4.95057H59.6405C60.2789 4.95057 60.5183 4.63135 60.5183 4.07272V2.55645C60.5183 1.99782 60.2789 1.6786 59.6405 1.6786H59.0818Z" fill="#1FCAE1"/>
</svg>
