<svg width="50" height="51" viewBox="0 0 50 51" fill="none" xmlns="http://www.w3.org/2000/svg">
<path d="M25.0097 11.5898C22.3401 11.5898 19.7304 12.3815 17.5107 13.8647C15.2909 15.3478 13.5609 17.4559 12.5393 19.9223C11.5177 22.3887 11.2504 25.1027 11.7712 27.721C12.292 30.3393 13.5775 32.7444 15.4652 34.6322C17.3529 36.5199 19.7581 37.8054 22.3764 38.3262C24.9947 38.847 27.7087 38.5797 30.1751 37.5581C32.6415 36.5365 34.7496 34.8064 36.2328 32.5867C37.7159 30.367 38.5076 27.7573 38.5076 25.0877C38.4823 21.5157 37.0521 18.0971 34.5262 15.5712C32.0003 13.0453 28.5818 11.6151 25.0097 11.5898ZM25.0097 36.9851C22.6719 36.9851 20.3865 36.2919 18.4427 34.993C16.4988 33.6942 14.9838 31.8481 14.0892 29.6883C13.1945 27.5284 12.9604 25.1517 13.4165 22.8588C13.8726 20.5659 14.9984 18.4597 16.6515 16.8066C18.3046 15.1535 20.4107 14.0278 22.7036 13.5717C24.9966 13.1156 27.3732 13.3497 29.5331 14.2443C31.693 15.139 33.539 16.654 34.8379 18.5978C36.1367 20.5417 36.8299 22.827 36.8299 25.1648C36.8401 26.7236 36.5419 28.2689 35.9524 29.7119C35.3629 31.155 34.4939 32.4672 33.3953 33.573C32.2966 34.6788 30.9901 35.5563 29.551 36.1551C28.1118 36.754 26.5685 37.0623 25.0097 37.0623V36.9851Z" fill="white"/>
<path d="M31.0065 20.3249L29.946 19.2451L27.497 21.694H18.8006V23.7958H25.4145L22.4836 26.7075H18.8006V28.79H20.401L19.0127 30.1784L20.0925 31.2389L22.5221 28.79H31.2186V26.7075H24.6239L27.5356 23.7958H31.2186V21.694H29.6374L31.0065 20.3249Z" fill="white"/>
<path d="M25.0097 50.6945L33.9954 41.6895H16.0047L25.0097 50.6945Z" fill="white"/>
<path d="M25.0097 0.695312L16.0047 9.70033H33.9954L25.0097 0.695312Z" fill="white"/>
<path d="M40.995 16.6992V34.69L50 25.6849L40.995 16.6992Z" fill="white"/>
<path d="M9.00497 34.69V16.6992L0 25.6849L9.00497 34.69Z" fill="white"/>
</svg>
