<svg width="73" height="20" viewBox="0 0 73 20" fill="none" xmlns="http://www.w3.org/2000/svg">
<path d="M0.24707 0.0615357L1.54437 0.0615357L1.54437 7.59822H0.24707L0.24707 0.0615357ZM3.33587 2.90324L3.33587 7.66H2.28567L2.28567 0.123316L3.52119 0.123316L4.88027 4.44764V0.123316L5.93046 0.123316V7.66H4.81849L3.33587 2.90324ZM10.5019 2.10016V5.62138C10.5019 6.79513 10.0077 7.66 8.64862 7.66L6.67178 7.66V0.123316L8.64862 0.123316C10.0695 0.0615395 10.5019 0.926412 10.5019 2.10016ZM8.52506 6.6098C9.01927 6.6098 9.26638 6.30091 9.26638 5.86848V1.91482C9.26638 1.48239 9.08104 1.17352 8.52506 1.17352H7.96908V6.67158L8.52506 6.6098ZM15.0115 0.0615357V5.74494C15.0115 6.91869 14.5173 7.66 13.22 7.66C11.861 7.66 11.305 6.91869 11.305 5.74494V0.0615357L12.6023 0.0615357V5.86848C12.6023 6.30091 12.7876 6.6098 13.22 6.6098C13.6525 6.6098 13.8378 6.30091 13.8378 5.86848V0.0615357L15.0115 0.0615357ZM15.6911 5.99204V5.00362H16.8648V6.05382C16.8648 6.48625 17.0502 6.73336 17.4826 6.73336C17.8532 6.73336 18.0386 6.48625 18.0386 6.05382V5.74494C18.0386 5.31251 17.8532 5.0654 17.4826 4.69474L16.7413 3.95344C16 3.21213 15.6911 2.77968 15.6911 1.91482V1.66772C15.6911 0.741076 16.2471 -0.000244141 17.4826 -0.000244141C18.7799 -0.000244141 19.2741 0.617528 19.2741 1.7295V2.34726H18.1003V1.66772C18.1003 1.23528 17.915 1.04996 17.4826 1.04996C17.1119 1.04996 16.8648 1.23528 16.8648 1.66772V1.85304C16.8648 2.28547 17.1119 2.53258 17.4826 2.90324L18.2857 3.70632C18.9652 4.38586 19.3359 4.8183 19.3359 5.68316V6.05382C19.3359 7.10401 18.7799 7.84532 17.4826 7.84532C16.1853 7.72177 15.6911 6.98046 15.6911 5.99204ZM19.6447 0.0615357L23.0424 0.0615357V1.11174L21.9922 1.11174V7.59822H20.695V1.11174H19.6447V0.0615357ZM24.8957 4.13876V7.59822L23.6602 7.59822V0.0615357L25.5135 0.0615357C26.8108 0.0615357 27.2432 0.679304 27.2432 1.7295V2.71792C27.2432 3.52101 26.9343 4.01521 26.2548 4.20054L27.4903 7.59822H26.1312L24.8957 4.13876ZM24.8957 1.11174V3.45922H25.3282C25.7606 3.45922 25.9459 3.21211 25.9459 2.84146V1.7295C25.9459 1.29706 25.7606 1.11174 25.3282 1.11174H24.8957ZM30.2084 4.75652V7.59822H28.9112V4.75652L27.4903 0.0615357L28.7876 0.0615357L29.5289 2.90324L30.2702 0.0615357L31.5058 0.0615357L30.2084 4.75652ZM32.8648 6.48624L32.2471 8.21598H31.5058L31.6911 6.42448H32.8648V6.48624ZM34.9034 0.0615357L36.2007 0.0615357V7.59822H34.9034V0.0615357ZM37.9922 2.90324V7.66H36.942V0.123316L38.1776 0.123316L39.5366 4.44764V0.123316L40.5868 0.123316V7.66L39.4748 7.66L37.9922 2.90324ZM42.4401 2.90324V7.66H41.3899V0.123316L42.6255 0.123316L43.9845 4.44764V0.123316L45.0347 0.123316V7.66H43.9227L42.4401 2.90324ZM45.8378 5.68316V2.03838C45.8378 0.864632 46.3938 -0.000244141 47.7529 -0.000244141C49.1119 -0.000244141 49.6679 0.864632 49.6679 2.03838V5.68316C49.6679 6.85691 49.1119 7.72176 47.7529 7.72176C46.3938 7.72176 45.8378 6.85691 45.8378 5.68316ZM48.4324 5.86848V1.79128C48.4324 1.35884 48.2471 0.988177 47.7529 0.988177C47.3204 0.988177 47.1351 1.29707 47.1351 1.79128V5.86848C47.1351 6.30091 47.3204 6.67158 47.7529 6.67158C48.1853 6.67158 48.4324 6.36269 48.4324 5.86848ZM54.5482 0.0615357L53.1274 7.59822H51.7683L50.3475 0.0615357L51.6447 0.0615357L52.5096 5.3125L53.3745 0.0615357L54.5482 0.0615357ZM54.3629 7.59822L55.7837 0.0615357L57.2046 0.0615357L58.6254 7.59822H57.3281L57.081 6.23914L55.7837 6.23914L55.5366 7.59822H54.3629ZM55.9073 5.25072L56.8957 5.25072L56.4015 2.2237L55.9073 5.25072ZM58.5019 0.0615357L61.8996 0.0615357V1.11174H60.8494V7.59822H59.5521V1.11174H58.5019V0.0615357ZM62.5173 0.0615357L63.8146 0.0615357V7.59822H62.5173V0.0615357ZM64.6177 5.68316V2.03838C64.6177 0.864632 65.1737 -0.000244141 66.5328 -0.000244141C67.8919 -0.000244141 68.4478 0.864632 68.4478 2.03838V5.68316C68.4478 6.85691 67.8919 7.72176 66.5328 7.72176C65.1737 7.72176 64.6177 6.85691 64.6177 5.68316ZM67.1506 5.86848V1.79128C67.1506 1.35884 66.9652 0.988177 66.471 0.988177C66.0386 0.988177 65.8532 1.29707 65.8532 1.79128V5.86848C65.8532 6.30091 66.0386 6.67158 66.471 6.67158C66.9652 6.67158 67.1506 6.36269 67.1506 5.86848ZM70.3011 2.90324V7.66H69.2509V0.123316L70.4864 0.123316L71.8455 4.44764V0.123316L72.8957 0.123316V7.66L71.7838 7.66L70.3011 2.90324Z" fill="#F45E2F"/>
<path d="M0 19.5832L1.42084 12.0465H2.84168L4.26254 19.5832H2.96524L2.71814 18.2241H1.42084L1.17374 19.5832H0ZM1.60616 17.1739H2.59458L2.10038 14.1469L1.60616 17.1739ZM5.86873 14.8264V19.5832H4.81853V12.0465H6.05405L7.41313 16.3708V12.0465H8.46331L8.46331 19.5832H7.35135L5.86873 14.8264ZM13.0347 14.0233L13.0347 17.5446C13.0347 18.7183 12.5405 19.5832 11.1815 19.5832H9.20463L9.20463 12.0465H11.1815C12.5405 12.0465 13.0347 12.9113 13.0347 14.0233ZM11.0579 18.533C11.5521 18.533 11.7992 18.2241 11.7992 17.7917L11.7992 13.838C11.7992 13.4056 11.6139 13.0967 11.0579 13.0967H10.5019L10.5019 18.5947L11.0579 18.533ZM15.0116 12.0465L16.3089 12.0465V19.5832H15.0116L15.0116 12.0465ZM18.1622 14.8264V19.5832H17.112V12.0465H18.3475L19.7066 16.3708V12.0465H20.7567V19.5832H19.6448L18.1622 14.8264ZM21.5598 12.0465H24.5251V13.0967H22.7953V15.2588H24.0927V16.309H22.7953V19.6449H21.4981L21.5598 12.0465ZM26.3784 16.1237V19.5832H25.0811V12.0465H26.9343C28.2316 12.0465 28.6641 12.6642 28.6641 13.7144V14.7029C28.6641 15.5059 28.3552 16.0001 27.6757 16.1855L28.9112 19.5832H27.5521L26.3784 16.1237ZM26.3784 13.0349V15.3824H26.8108C27.2432 15.3824 27.4285 15.1353 27.4285 14.7646V13.6527C27.4285 13.2202 27.2432 13.0349 26.8108 13.0349H26.3784ZM29.2818 19.5832L30.7027 12.0465H32.1236L33.5444 19.5832H32.2471L32 18.2241H30.6409L30.3938 19.5832H29.2818ZM30.8262 17.1739H31.8147L31.3205 14.1469L30.8262 17.1739ZM33.9768 17.9152V16.9268H35.1506V17.977C35.1506 18.4094 35.3359 18.6565 35.7683 18.6565C36.139 18.6565 36.3243 18.4094 36.3243 17.977V17.6681C36.3243 17.2357 36.139 16.9886 35.7683 16.6179L35.027 15.8766C34.2857 15.1353 33.9768 14.7029 33.9768 13.838V13.5909C33.9768 12.6642 34.5328 11.9229 35.7683 11.9229C37.0656 11.9229 37.5598 12.5407 37.5598 13.6527V14.2704H36.3861V13.5909C36.3861 13.1584 36.2007 12.9731 35.7683 12.9731C35.3977 12.9731 35.1506 13.1584 35.1506 13.5909V13.7762C35.1506 14.2086 35.3977 14.4557 35.7683 14.8264L36.5714 15.6295C37.251 16.309 37.6216 16.7415 37.6216 17.6063V17.977C37.6216 19.0272 37.0656 19.7685 35.7683 19.7685C34.471 19.7685 33.9768 18.9036 33.9768 17.9152ZM37.9923 12.0465H41.39V13.0967H40.3398V19.5832H39.0425V13.0967H37.9923V12.0465ZM43.305 16.1237V19.5832H42.0077V12.0465H43.861C45.1583 12.0465 45.5907 12.6642 45.5907 13.7144V14.7029C45.5907 15.5059 45.2819 16.0001 44.6023 16.1855L45.8378 19.5832H44.4788L43.305 16.1237ZM43.305 13.0349V15.3824H43.7374C44.1699 15.3824 44.3552 15.1353 44.3552 14.7646V13.6527C44.3552 13.2202 44.1699 13.0349 43.7374 13.0349H43.305ZM50.0386 12.0465V17.7299C50.0386 18.9036 49.5444 19.6449 48.2471 19.6449C46.888 19.6449 46.332 18.9036 46.332 17.7299V12.0465H47.6293V17.8534C47.6293 18.2859 47.8147 18.5947 48.2471 18.5947C48.6795 18.5947 48.8648 18.2859 48.8648 17.8534V12.0465H50.0386ZM50.8417 17.6063V13.9615C50.8417 12.7878 51.3977 11.9229 52.7567 11.9229C54.1776 11.9229 54.5483 12.726 54.5483 13.838V14.7029H53.3745V13.7144C53.3745 13.2202 53.1892 12.9731 52.7567 12.9731C52.3243 12.9731 52.139 13.282 52.139 13.7762V17.8534C52.139 18.2859 52.3243 18.6565 52.7567 18.6565C53.1892 18.6565 53.3745 18.3476 53.3745 17.9152V16.4944H54.5483V17.7917C54.5483 18.8419 54.1158 19.6449 52.7567 19.6449C51.3977 19.6449 50.8417 18.7801 50.8417 17.6063ZM54.7954 12.0465H58.1931V13.0967H57.1429V19.5832H55.8455V13.0967H54.7954V12.0465ZM62.5174 12.0465V17.7299C62.5174 18.9036 62.0232 19.6449 60.7259 19.6449C59.3668 19.6449 58.8108 18.9036 58.8108 17.7299V12.0465H60.1081V17.8534C60.1081 18.2859 60.2934 18.5947 60.7259 18.5947C61.1583 18.5947 61.3436 18.2859 61.3436 17.8534V12.0465H62.5174ZM64.556 16.1237V19.5832H63.2587V12.0465H65.1119C66.4092 12.0465 66.8417 12.6642 66.8417 13.7144V14.7029C66.8417 15.5059 66.5328 16.0001 65.8533 16.1855L67.0888 19.5832H65.7297L64.556 16.1237ZM64.556 13.0349V15.3824H64.9884C65.4209 15.3824 65.6062 15.1353 65.6062 14.7646V13.6527C65.6062 13.2202 65.4209 13.0349 64.9884 13.0349H64.556ZM67.6448 12.0465H70.6718V13.0967H68.9421V15.2588H70.1776V16.309H68.9421V18.5947H70.6718V19.6449H67.6448V12.0465Z" fill="#F45E2F"/>
</svg>
