<svg width="30" height="17" viewBox="0 0 30 17" fill="none" xmlns="http://www.w3.org/2000/svg">
<path d="M22.2578 0.248022C20.9542 0.213253 19.6612 0.491056 18.4869 1.0582C17.3126 1.62535 16.2911 2.46534 15.5078 3.508L17.1578 4.76801C17.7467 3.97867 18.5186 3.3442 19.407 2.91916C20.2954 2.49413 21.2737 2.29126 22.2578 2.32801C22.9765 2.29686 23.6941 2.41151 24.3673 2.66508C25.0405 2.91864 25.6554 3.30584 26.175 3.80338C26.6946 4.30092 27.1081 4.8985 27.3905 5.56009C27.673 6.22169 27.8186 6.93364 27.8186 7.65302C27.8186 8.3724 27.673 9.08432 27.3905 9.74592C27.1081 10.4075 26.6946 11.0051 26.175 11.5026C25.6554 12.0002 25.0405 12.3874 24.3673 12.6409C23.6941 12.8945 22.9765 13.0092 22.2578 12.978C16.8678 12.978 15.7678 7.71801 15.7178 7.45801C15.3574 5.44215 14.3014 3.61655 12.7336 2.29911C11.1658 0.981664 9.18564 0.255845 7.13783 0.248022C5.221 0.318474 3.40616 1.12947 2.07498 2.51047C0.743799 3.89148 0 5.73489 0 7.65302C0 9.57115 0.743799 11.4145 2.07498 12.7955C3.40616 14.1765 5.221 14.9876 7.13783 15.058C8.28838 15.0712 9.43022 14.8571 10.4978 14.428L9.98783 15.928L11.9878 16.598L13.6978 11.598L8.69783 9.88801L8.02783 11.888L9.91783 12.528C9.03385 12.8752 8.08654 13.032 7.13783 12.988C6.41913 13.0192 5.70156 12.9045 5.02835 12.6509C4.35514 12.3974 3.74022 12.0102 3.22065 11.5126C2.70107 11.0151 2.28759 10.4175 2.00512 9.75593C1.72264 9.09433 1.57702 8.38238 1.57702 7.663C1.57702 6.94362 1.72264 6.2317 2.00512 5.5701C2.28759 4.90851 2.70107 4.31093 3.22065 3.81339C3.74022 3.31585 4.35514 2.92864 5.02835 2.67508C5.70156 2.42152 6.41913 2.30687 7.13783 2.33802C12.5278 2.33802 13.6278 7.59801 13.6778 7.85801C14.0401 9.87301 15.0966 11.6975 16.664 13.0146C18.2314 14.3317 20.2106 15.0582 22.2578 15.068C24.1747 14.9975 25.9895 14.1866 27.3207 12.8055C28.6519 11.4245 29.3957 9.58113 29.3957 7.663C29.3957 5.74487 28.6519 3.90149 27.3207 2.52048C25.9895 1.13948 24.1747 0.328453 22.2578 0.258001V0.248022Z" fill="url(#paint0_linear_24_397)"/>
<defs>
<linearGradient id="paint0_linear_24_397" x1="-1.16217" y1="-11.532" x2="26.2678" y2="21.648" gradientUnits="userSpaceOnUse">
<stop stop-color="#CC6517"/>
<stop offset="1" stop-color="#EF873A"/>
</linearGradient>
</defs>
</svg>
