<svg width="58" height="40" viewBox="0 0 58 40" fill="none" xmlns="http://www.w3.org/2000/svg">
<path d="M0.615662 12.139L0.615662 4.31979C0.615662 1.75414 1.83739 0.0437012 4.64739 0.0437012C7.57957 0.0437012 8.43479 1.75412 8.43479 4.07543V6.03026L5.99131 6.03026V3.95328C5.99131 2.97589 5.62478 2.36504 4.64739 2.36504C3.67 2.36504 3.30349 3.09804 3.30349 4.07543L3.30349 12.7498C3.30349 13.7272 3.67 14.4602 4.64739 14.4602C5.62478 14.4602 5.99131 13.8494 5.99131 12.872V9.93984H8.43479V12.7498C8.43479 15.0711 7.45739 16.7816 4.64739 16.7816C1.83739 16.415 0.615662 14.5824 0.615662 12.139ZM10.1452 0.16592L12.8331 0.16592V13.9716H16.0096V16.1707H10.1452L10.1452 0.16592ZM17.5978 0.16592L20.2857 0.16592V16.1707H17.5978V0.16592ZM29.6931 5.7859L27.7383 16.1707H26.5166L24.5618 5.7859V16.1707H22.3626V0.16592L25.5392 0.16592L27.2496 9.20675L28.8379 0.16592L32.2587 0.16592V16.1707L29.8153 16.1707L29.6931 5.7859ZM33.6027 16.2928L36.657 0.288064L39.7114 0.288064L42.7657 16.2928H39.9557L39.467 13.3607H36.657L36.1683 16.2928H33.6027ZM36.9014 11.1616H39.1005L38.0009 4.6863L36.9014 11.1616ZM42.3992 0.16592L49.6074 0.16592V2.36504H47.4083V16.1707H44.7205V2.36504L42.5213 2.36504L42.3992 0.16592ZM51.0735 0.16592L57.5488 0.16592V2.36504H53.7614V7.00764L56.4492 7.00764V9.20675H53.7614V14.0937H57.5488V16.2928H51.0735V0.16592ZM0.126953 39.5059L3.18131 23.5011H6.23566L9.29001 39.5059H6.60218L6.11349 36.5738H3.30349L2.81478 39.5059H0.126953ZM3.54783 34.3746H5.74697L4.64739 27.8994L3.54783 34.3746ZM10.1452 35.352V27.5329C10.1452 24.9672 11.367 23.2568 14.177 23.2568C17.1091 23.2568 17.9644 24.9672 17.9644 27.2885V29.2433H15.5209V27.1663C15.5209 26.189 15.1544 25.5781 14.177 25.5781C13.1996 25.5781 12.8331 26.3111 12.8331 27.2885V35.9629C12.8331 36.9403 13.1996 37.6733 14.177 37.6733C15.1544 37.6733 15.5209 37.0624 15.5209 36.085V33.1529H17.9644V35.9629C17.9644 38.2842 16.987 39.9946 14.177 39.9946C11.2448 39.7503 10.1452 37.7955 10.1452 35.352ZM18.9418 23.5011H26.15V25.7002H23.9509L23.9509 39.5059H21.2631L21.2631 25.7002H19.0639L18.9418 23.5011ZM27.6161 23.5011H30.3039L30.3039 39.5059H27.6161L27.6161 23.5011ZM32.1365 35.352V27.5329C32.1365 24.9672 33.3583 23.2568 36.1683 23.2568C38.9783 23.2568 40.3222 25.0894 40.3222 27.5329V35.352C40.3222 37.7955 39.1005 39.6281 36.1683 39.6281C33.3583 39.7503 32.1365 37.7955 32.1365 35.352ZM37.5122 35.8407V27.1663C37.5122 26.189 37.1457 25.4559 36.1683 25.4559C35.1909 25.4559 34.8244 26.189 34.8244 27.1663V35.8407C34.8244 36.8181 35.1909 37.5511 36.1683 37.5511C37.1457 37.429 37.5122 36.8181 37.5122 35.8407ZM44.354 29.3655V39.5059H42.0327V23.5011H44.7205L47.6527 32.6642V23.5011H49.8518V39.5059H47.5305L44.354 29.3655Z" fill="#467042"/>
</svg>
