<svg width="50" height="70" viewBox="0 0 50 70" fill="none" xmlns="http://www.w3.org/2000/svg">
<path d="M17.004 69.6953V61.7119H11.6615V57.2194H17.004V50.3591H16.1844C11.3737 49.4421 7.06967 46.7845 4.09485 42.8943C1.12004 39.004 -0.316921 34.154 0.0586849 29.2711C0.434291 24.3882 2.59611 19.815 6.13091 16.4255C9.66571 13.036 14.3255 11.0679 19.2199 10.8975C23.5022 10.904 27.6668 12.2994 31.0887 14.874L31.7869 15.39L42.4416 4.7354H35.976V0H50V13.9633H45.5074V7.89233L34.8224 18.3041L35.3081 19.0023C37.746 22.3647 39.0535 26.4144 39.0419 30.5676C39.01 35.3081 37.3006 39.8842 34.2168 43.4847C31.133 47.0852 26.874 49.4776 22.1947 50.2377H21.3752V57.0979H26.7176V61.5905H21.3752V69.5739L17.004 69.6953ZM19.2503 15.0561C16.2023 15.0801 13.2295 16.0051 10.7059 17.7147C8.18242 19.4243 6.22098 21.8421 5.06837 24.6638C3.91576 27.4856 3.62344 30.5852 4.22834 33.5727C4.83325 36.5601 6.30832 39.3019 8.46785 41.453C10.6274 43.6042 13.3749 45.0685 16.3647 45.6617C19.3545 46.2549 22.453 45.9506 25.2702 44.787C28.0875 43.6233 30.4976 41.6524 32.1973 39.1222C33.897 36.5921 34.8104 33.6157 34.8224 30.5676C34.8225 28.5283 34.4189 26.5092 33.6348 24.6267C32.8508 22.7441 31.7018 21.0354 30.2542 19.5991C28.8066 18.1628 27.0889 17.0272 25.2003 16.2579C23.3117 15.4886 21.2895 15.1008 19.2503 15.1168V15.0561Z" fill="white"/>
<path d="M25.9587 25.4072H12.8453V28.5338H25.9587V25.4072Z" fill="white"/>
<path d="M25.9587 32.875H12.8453V36.0016H25.9587V32.875Z" fill="white"/>
</svg>
