<svg width="59" height="43" viewBox="0 0 59 43" fill="none" xmlns="http://www.w3.org/2000/svg">
<path d="M3.32947 15.5114L7.69699 15.5114L7.69699 17.8236H0.375L0.375 15.5114L4.87095 3.30813L0.888815 3.30813L0.888815 0.995941L7.95388 0.995941V3.30813L3.32947 15.5114ZM9.49537 0.867477L16.3035 0.867477V3.17969L12.3214 3.17969L12.3214 8.06101H15.1474V10.3732H12.3214V15.5114H16.3035V17.8236L9.49537 17.8236L9.49537 0.867477ZM20.9279 9.98785L20.9279 17.6952H18.1019L18.1019 0.867477L22.2125 0.867477C25.0385 0.867477 26.0662 2.28048 26.0662 4.59269V6.77645C26.0662 8.57483 25.4239 9.60248 23.754 9.98785L26.4515 17.6952H23.497L20.9279 9.98785ZM20.9279 3.17969V8.44636H21.8271C22.8548 8.44636 23.2401 7.93255 23.2401 7.03336V4.59269C23.2401 3.6935 22.8548 3.17969 21.8271 3.17969L20.9279 3.17969ZM27.8645 13.4561V5.23497C27.8645 2.53739 29.1491 0.739014 32.1036 0.739014C35.0581 0.739014 36.4711 2.66585 36.4711 5.23497V13.4561C36.4711 16.0253 35.1865 17.9521 32.1036 17.9521C29.1491 17.9521 27.8645 16.0253 27.8645 13.4561ZM33.645 13.8415V4.72115C33.645 3.6935 33.2597 2.92278 32.232 2.92278C31.2044 2.92278 30.819 3.6935 30.819 4.72115L30.819 13.8415C30.819 14.8692 31.2044 15.6399 32.232 15.6399C33.2597 15.6399 33.645 14.8692 33.645 13.8415Z" fill="#FF8A4B"/>
<path d="M6.02713 35.0373H3.32955L3.32955 42.4878H0.503549L0.503549 25.6601H3.32955L3.32955 32.8536H6.02713L6.02713 25.6601H8.85318L8.85318 42.4878H6.02713L6.02713 35.0373ZM19.0012 25.6601V38.3772C19.0012 40.9463 17.8451 42.7447 15.019 42.7447C12.0646 42.7447 10.78 41.0747 10.78 38.3772L10.78 25.6601L13.606 25.6601L13.606 38.7625C13.606 39.7902 13.9914 40.4325 15.019 40.4325C16.0467 40.4325 16.4321 39.7902 16.4321 38.7625V25.6601H19.0012ZM23.2402 31.9544L23.2402 42.6162H20.928L20.928 25.7885H23.7541L26.837 35.4227V25.7885H29.1492L29.1492 42.6162H26.7085L23.2402 31.9544ZM35.3151 33.4959H39.2972V42.4878H37.2419V40.6894C36.8565 41.9739 36.0858 42.7447 34.5443 42.7447C32.1037 42.7447 30.9475 40.8178 30.9475 38.2487V30.0276C30.9475 27.33 32.2321 25.5316 35.1866 25.5316C38.2696 25.5316 39.2972 27.33 39.2972 29.7706V31.3121L36.7281 31.3121V29.6422C36.7281 28.6145 36.3427 27.9723 35.3151 27.9723C34.2874 27.9723 33.9021 28.743 33.9021 29.7706V38.891C33.9021 39.9187 34.2874 40.6894 35.3151 40.6894C36.2143 40.6894 36.7281 40.1756 36.7281 39.0195V36.065H35.4435V33.4959H35.3151ZM41.224 25.6601H48.0322L48.0322 27.9723H44.0501V32.8536H46.8761V35.1658H44.0501V40.304H48.0322V42.6162H41.224L41.224 25.6601ZM52.5281 34.7804V42.4878H49.7021L49.7021 25.6601H53.8127C56.6387 25.6601 57.6664 27.0731 57.6664 29.3853V31.569C57.6664 33.3674 57.0241 34.395 55.3541 34.7804L58.0517 42.4878H55.0973L52.5281 34.7804ZM52.5281 27.9723V33.2389H53.4273C54.455 33.2389 54.8403 32.7251 54.8403 31.8259V29.3853C54.8403 28.4861 54.455 27.9723 53.4273 27.9723H52.5281Z" fill="#FF8A4B"/>
</svg>
