<svg width="20" height="17" viewBox="0 0 20 17" fill="none" xmlns="http://www.w3.org/2000/svg">
<path d="M6.02803 13.8982L5.29803 16.3082L14.688 16.3682L13.978 13.9882C16.2713 12.9551 18.0669 11.0625 18.978 8.71815L0.978027 8.60815C1.89838 10.9681 3.71329 12.8693 6.02803 13.8982Z" fill="url(#paint0_linear_24_311)"/>
<path d="M0.417969 5.46802C0.446776 5.97741 0.503527 6.48484 0.587967 6.98802C0.593544 7.07126 0.593544 7.15478 0.587967 7.23802C0.592771 7.15475 0.592771 7.07128 0.587967 6.98802L19.508 7.09802C19.6326 6.60317 19.7096 6.09753 19.738 5.58802L0.417969 5.46802Z" fill="url(#paint1_linear_24_311)"/>
<path d="M1.03796 8.56804L0.907959 8.23804L1.03796 8.56804Z" fill="url(#paint2_linear_24_311)"/>
<path d="M19.038 8.67811C19.0422 8.64156 19.0422 8.60467 19.038 8.56812C19.0255 8.60654 19.0088 8.64343 18.988 8.67811H19.038Z" fill="url(#paint3_linear_24_311)"/>
<path d="M6.02808 3.72799C6.30783 3.91772 6.51012 4.20163 6.59808 4.52799C6.59731 4.5599 6.60348 4.59159 6.61617 4.62086C6.62887 4.65014 6.64778 4.67631 6.67159 4.69755C6.69541 4.71879 6.72356 4.73459 6.7541 4.74387C6.78463 4.75314 6.81681 4.75566 6.84842 4.75125C6.88002 4.74684 6.9103 4.7356 6.93713 4.71833C6.96396 4.70105 6.98671 4.67814 7.0038 4.6512C7.02089 4.62425 7.03192 4.5939 7.03611 4.56227C7.0403 4.53063 7.03757 4.49847 7.02808 4.46799C6.92623 4.0383 6.66998 3.66105 6.30808 3.40799C6.1356 3.30212 5.99165 3.15563 5.88881 2.98132C5.78597 2.80701 5.72735 2.61017 5.71809 2.40799C5.72842 2.20489 5.78856 2.00744 5.89319 1.83306C5.99782 1.65867 6.14374 1.5127 6.31808 1.40799C6.67335 1.17502 6.92982 0.818808 7.03809 0.407994C7.04405 0.377272 7.04307 0.345605 7.03522 0.315308C7.02738 0.285012 7.01286 0.256852 6.99273 0.232889C6.9726 0.208925 6.94737 0.189764 6.91888 0.176806C6.8904 0.163847 6.85937 0.15742 6.82808 0.157994C6.77867 0.157091 6.73053 0.173643 6.69212 0.204738C6.6537 0.235833 6.62749 0.279478 6.61808 0.327994C6.53235 0.655556 6.32493 0.93809 6.03809 1.11799C5.81806 1.25874 5.63508 1.4503 5.50456 1.67654C5.37404 1.90278 5.2998 2.15707 5.28809 2.41799C5.29712 2.67974 5.36908 2.93545 5.49789 3.16348C5.62671 3.39151 5.80857 3.58515 6.02808 3.72799Z" fill="url(#paint4_linear_24_311)"/>
<path d="M10.218 3.75799C10.5018 3.94362 10.7052 4.22921 10.788 4.55799C10.7984 4.60784 10.8243 4.65311 10.862 4.68727C10.8998 4.72142 10.9474 4.74269 10.998 4.74799C11.0296 4.74829 11.0609 4.74177 11.0898 4.72889C11.1186 4.71601 11.1444 4.69706 11.1652 4.67334C11.1861 4.64962 11.2016 4.62168 11.2107 4.59142C11.2199 4.56116 11.2223 4.5293 11.218 4.49799C11.1202 4.06386 10.8633 3.68212 10.498 3.42799C10.325 3.32277 10.1805 3.17644 10.0776 3.00199C9.97468 2.82754 9.91643 2.63037 9.90803 2.42799C9.9166 2.22447 9.97601 2.02633 10.0808 1.85166C10.1856 1.67698 10.3325 1.53133 10.508 1.42799C10.8613 1.19083 11.1198 0.836773 11.238 0.427991C11.2423 0.396687 11.2399 0.364822 11.2308 0.334564C11.2216 0.304306 11.2061 0.276366 11.1852 0.252644C11.1644 0.228921 11.1386 0.209975 11.1098 0.197093C11.0809 0.184211 11.0496 0.177696 11.018 0.177991C10.9698 0.177446 10.923 0.194351 10.8862 0.225591C10.8495 0.256831 10.8253 0.300301 10.818 0.347991C10.724 0.671725 10.514 0.949435 10.228 1.12799C10.0078 1.27093 9.82489 1.46436 9.69444 1.6922C9.564 1.92004 9.4898 2.17572 9.47803 2.43799C9.48547 2.70145 9.55668 2.95917 9.68556 3.18907C9.81445 3.41897 9.99716 3.61419 10.218 3.75799Z" fill="url(#paint5_linear_24_311)"/>
<path d="M14.468 3.77803C14.7478 3.96776 14.9501 4.25166 15.038 4.57803C15.0372 4.60994 15.0434 4.64163 15.0561 4.6709C15.0688 4.70018 15.0877 4.72635 15.1115 4.74759C15.1353 4.76883 15.1635 4.78463 15.194 4.79391C15.2246 4.80318 15.2567 4.8057 15.2884 4.80129C15.32 4.79688 15.3502 4.78564 15.3771 4.76837C15.4039 4.75109 15.4266 4.72818 15.4437 4.70123C15.4608 4.67429 15.4719 4.64394 15.476 4.61231C15.4802 4.58067 15.4775 4.5485 15.468 4.51803C15.3636 4.08681 15.1037 3.70932 14.738 3.45803C14.5649 3.35281 14.4205 3.20648 14.3176 3.03203C14.2147 2.85758 14.1564 2.66041 14.148 2.45803C14.148 1.98803 14.428 1.75803 14.748 1.45803C15.1026 1.22437 15.3589 0.868438 15.468 0.458033C15.4738 0.426811 15.4728 0.394705 15.465 0.363923C15.4572 0.333141 15.4428 0.304411 15.4228 0.279708C15.4029 0.255005 15.3778 0.234914 15.3494 0.220816C15.3209 0.206717 15.2898 0.198945 15.258 0.198033C15.2086 0.19713 15.1605 0.213682 15.122 0.244777C15.0836 0.275871 15.0574 0.319517 15.048 0.368033C14.9623 0.695595 14.7549 0.978129 14.468 1.15803C14.248 1.29878 14.065 1.49034 13.9345 1.71658C13.804 1.94282 13.7297 2.19711 13.718 2.45803C13.7266 2.7224 13.7993 2.98071 13.93 3.21068C14.0606 3.44065 14.2453 3.63537 14.468 3.77803Z" fill="url(#paint6_linear_24_311)"/>
<defs>
<linearGradient id="paint0_linear_24_311" x1="1.04803" y1="12.4682" x2="19.028" y2="12.4682" gradientUnits="userSpaceOnUse">
<stop stop-color="#FF7A45"/>
<stop offset="1" stop-color="#FFA052"/>
</linearGradient>
<linearGradient id="paint1_linear_24_311" x1="0.417969" y1="6.32802" x2="19.698" y2="6.32802" gradientUnits="userSpaceOnUse">
<stop stop-color="#FF7A45"/>
<stop offset="1" stop-color="#FFA052"/>
</linearGradient>
<linearGradient id="paint2_linear_24_311" x1="0.917959" y1="8.40804" x2="1.04796" y2="8.40804" gradientUnits="userSpaceOnUse">
<stop stop-color="#FF7A45"/>
<stop offset="1" stop-color="#FFA052"/>
</linearGradient>
<linearGradient id="paint3_linear_24_311" x1="19.028" y1="8.62812" x2="19.078" y2="8.62812" gradientUnits="userSpaceOnUse">
<stop stop-color="#FF7A45"/>
<stop offset="1" stop-color="#FFA052"/>
</linearGradient>
<linearGradient id="paint4_linear_24_311" x1="5.28809" y1="2.43799" x2="7.04808" y2="2.43799" gradientUnits="userSpaceOnUse">
<stop stop-color="#FF7A45"/>
<stop offset="1" stop-color="#FFA052"/>
</linearGradient>
<linearGradient id="paint5_linear_24_311" x1="9.47803" y1="2.46799" x2="11.238" y2="2.46799" gradientUnits="userSpaceOnUse">
<stop stop-color="#FF7A45"/>
<stop offset="1" stop-color="#FFA052"/>
</linearGradient>
<linearGradient id="paint6_linear_24_311" x1="13.728" y1="2.48803" x2="15.488" y2="2.48803" gradientUnits="userSpaceOnUse">
<stop stop-color="#FF7A45"/>
<stop offset="1" stop-color="#FFA052"/>
</linearGradient>
</defs>
</svg>
