<svg width="60" height="42" viewBox="0 0 60 42" fill="none" xmlns="http://www.w3.org/2000/svg">
<path d="M0.0239258 0.699951L2.79016 0.699951L2.79016 14.9083H6.05934L6.05934 17.1715H0.0239258L0.0239258 0.699951ZM7.69391 0.699951L10.4602 0.699951V17.1715H7.69391L7.69391 0.699951ZM12.4719 0.699951L19.0103 0.699951V2.96321H15.2382V7.74121L18.0044 7.74121V10.0045H15.2382V17.2972H12.4719V0.699951ZM20.5191 0.699951L27.1832 0.699951V2.96321L23.2853 2.96321V7.74121H26.0515V10.0045H23.2853V15.034H27.1832V17.2972H20.5191V0.699951Z" fill="#79BE5E"/>
<path d="M0.0239258 37.2899L0.0239258 29.2427C0.0239258 26.6022 1.28132 24.8419 4.17328 24.8419C7.06524 24.8419 8.44835 26.728 8.44835 29.2427L8.44835 37.2899C8.44835 39.8047 7.19098 41.6908 4.17328 41.6908C1.28132 41.6908 0.0239258 39.8047 0.0239258 37.2899ZM5.68211 37.6671V28.7398C5.68211 27.7339 5.30489 26.9795 4.29899 26.9795C3.29309 26.9795 2.91591 27.7339 2.91591 28.7398V37.6671C2.91591 38.673 3.29309 39.4275 4.29899 39.4275C5.17915 39.4275 5.68211 38.673 5.68211 37.6671ZM12.3462 31.1288L12.3462 41.565H9.95717L9.95717 25.0934H12.7234L15.7411 34.5237L15.7411 25.0934H18.0044V41.565H15.6154L12.3462 31.1288ZM24.0398 24.9677H26.806V39.176H30.0752V41.4393H24.0398V24.9677ZM30.8296 41.565L33.9731 25.0934H37.1165L40.2599 41.565H37.3679L36.865 38.5473H33.9731L33.4701 41.565H30.8296ZM34.3503 36.2841H36.6135L35.4818 29.62L34.3503 36.2841ZM43.7806 31.1288V41.565H41.3915V25.0934H44.1578L47.1755 34.5237V25.0934H49.4387V41.565H47.0497L43.7806 31.1288ZM59.6234 29.4942V37.1642C59.6234 39.679 58.6175 41.565 55.5998 41.565H51.3248V25.0934H55.5998C58.4918 24.9677 59.6234 26.8537 59.6234 29.4942ZM55.2226 39.3017C56.3543 39.3017 56.8572 38.673 56.8572 37.6671V28.9913C56.8572 27.9854 56.48 27.3567 55.2226 27.3567H54.091V39.3017H55.2226Z" fill="#79BE5E"/>
</svg>
