<svg width="81" height="30" viewBox="0 0 81 30" fill="none" xmlns="http://www.w3.org/2000/svg">
<path d="M3.40119 6.27773H6.10353L6.10353 12.3798H4.70877V11.1594C4.44725 12.0311 3.92424 12.5541 2.87818 12.5541C1.22191 12.5541 0.43734 11.2465 0.43734 9.5031L0.43734 3.92407C0.43734 2.09346 1.30908 0.873047 3.31404 0.873047C5.40617 0.873047 6.10353 2.09346 6.10353 3.74973V4.79579L4.36009 4.79579V3.66257C4.36009 2.96519 4.09856 2.52933 3.40119 2.52933C2.70381 2.52933 2.44232 3.05235 2.44232 3.74973L2.44232 9.93896C2.44232 10.6363 2.70381 11.1594 3.40119 11.1594C4.01139 11.1594 4.36009 10.8107 4.36009 10.0261V8.02117H3.48837L3.48837 6.27773H3.40119ZM7.41111 9.5031L7.41111 3.92407C7.41111 2.09346 8.28285 0.873047 10.2878 0.873047C12.2928 0.873047 13.2517 2.18063 13.2517 3.92407L13.2517 9.5031C13.2517 11.2465 12.3799 12.5541 10.2878 12.5541C8.28285 12.5541 7.41111 11.2465 7.41111 9.5031ZM11.3339 9.76462L11.3339 3.57539C11.3339 2.87801 11.0723 2.35498 10.375 2.35498C9.67758 2.35498 9.41609 2.87801 9.41609 3.57539L9.41609 9.76462C9.41609 10.462 9.67758 10.985 10.375 10.985C10.9852 10.985 11.3339 10.462 11.3339 9.76462ZM14.4721 9.5031L14.4721 3.92407C14.4721 2.09346 15.3438 0.873047 17.3487 0.873047C19.3537 0.873047 20.3126 2.18063 20.3126 3.92407L20.3126 9.5031C20.3126 11.2465 19.4409 12.5541 17.3487 12.5541C15.3438 12.5541 14.4721 11.2465 14.4721 9.5031ZM18.3948 9.76462L18.3948 3.57539C18.3948 2.87801 18.1333 2.35498 17.4359 2.35498C16.7385 2.35498 16.477 2.87801 16.477 3.57539L16.477 9.76462C16.477 10.462 16.7385 10.985 17.4359 10.985C18.1333 10.985 18.3948 10.462 18.3948 9.76462ZM27.3735 4.01125L27.3735 9.32875C27.3735 11.0722 26.6761 12.3798 24.584 12.3798H21.6202L21.6202 0.960224L24.584 0.960224C26.589 0.960224 27.3735 2.26781 27.3735 4.01125ZM24.3225 10.8107C25.1071 10.8107 25.4557 10.3748 25.4557 9.67744L25.4557 3.66257C25.4557 2.96519 25.1942 2.52933 24.3225 2.52933H23.538L23.538 10.8107H24.3225ZM35.0447 7.41096L33.2141 7.41096V12.4669H31.2963L31.2963 1.0474L33.2141 1.0474V5.92903L35.0447 5.92903V1.0474L36.9625 1.0474V12.4669L35.0447 12.4669V7.41096ZM38.3572 0.960224L42.9774 0.960224V2.52933L40.275 2.52933V5.84187L42.1928 5.84187V7.41096L40.275 7.41096V10.8978H42.9774V12.4669H38.3572V0.960224ZM43.8491 12.4669L46.0284 1.0474L48.2077 1.0474L50.387 12.4669H48.382L48.0333 10.3748H46.0284L45.6797 12.4669L43.8491 12.4669ZM46.2899 8.80572H47.859L47.0745 4.18559L46.2899 8.80572ZM51.3459 0.960224L53.2637 0.960224V10.8107H55.5301V12.3798L51.3459 12.3798V0.960224ZM55.2686 0.960224L60.4118 0.960224V2.52933H58.8427V12.3798H56.9249V2.52933H55.3558V0.960224H55.2686ZM65.2934 7.41096H63.4628V12.4669H61.545V1.0474L63.4628 1.0474V5.92903H65.2934V1.0474L67.2112 1.0474V12.4669H65.2934V7.41096Z" fill="#2F9242"/>
<path d="M0.175781 29.2038L2.35508 17.7843H4.53439L6.71369 29.2038H4.70872L4.36003 27.1117H2.35508L2.0064 29.2038H0.175781ZM2.61659 25.6298H4.18571L3.40113 21.0096L2.61659 25.6298ZM9.1545 22.0557L9.1545 29.291L7.49824 29.291L7.49824 17.8714L9.41603 17.8714L11.5082 24.4093L11.5082 17.8714H13.0772L13.0772 29.291H11.421L9.1545 22.0557ZM20.2254 20.8353L20.2254 26.1528C20.2254 27.8962 19.528 29.2038 17.4359 29.2038H14.472L14.472 17.7843H17.4359C19.528 17.7843 20.2254 19.0918 20.2254 20.8353ZM17.1743 27.6347C17.9589 27.6347 18.3076 27.1989 18.3076 26.5015L18.3076 20.4866C18.3076 19.7892 18.0461 19.3534 17.1743 19.3534H16.3898L16.3898 27.6347H17.1743ZM27.635 22.1429L26.589 29.2038H24.7583L23.1892 17.7843L25.0198 17.7843L25.8915 25.0196L26.8505 17.7843H28.4195L29.4656 25.0196L30.3373 17.7843H31.9936L30.5117 29.2038H28.6811L27.635 22.1429ZM33.0397 17.7843H37.6598V19.3534H34.9575V22.6659H36.8753V24.235H34.9575V27.7219H37.6598V29.291H33.0397V17.7843ZM38.8802 17.7843L40.798 17.7843V27.6347H43.0645V29.2038L38.8802 29.2038V17.7843ZM44.1105 17.7843H46.0283V27.6347H48.2948V29.2038H44.1105V17.7843ZM48.1204 22.4916H50.8228V24.0607H48.1204V22.4916ZM51.956 17.7843H54.7455C56.6633 17.7843 57.2735 18.656 57.2735 20.3123V21.4455C57.2735 22.4044 56.9248 23.0146 56.1403 23.2761C57.0992 23.5376 57.5351 24.1478 57.5351 25.1939V26.6758C57.5351 28.3321 56.8377 29.2038 54.9199 29.2038H51.956V17.7843ZM53.8738 22.5787H54.5712C55.1814 22.5787 55.4429 22.23 55.4429 21.6198V20.2251C55.4429 19.6149 55.1814 19.2662 54.484 19.2662H53.7866L53.8738 22.5787ZM53.8738 27.6347H54.7455C55.3558 27.6347 55.7044 27.286 55.7044 26.6758V24.9324C55.7044 24.3222 55.4429 23.9735 54.7455 23.9735H53.8738V27.6347ZM58.7554 17.7843H63.3756V19.3534H60.6732V22.6659H62.591V24.235H60.6732V27.7219H63.3756V29.291H58.7554V17.7843ZM64.5088 17.7843H66.4266V29.2038H64.5088V17.7843ZM69.4776 22.0557V29.291H67.8214V17.8714H69.7392L71.8313 24.4093V17.8714L73.4004 17.8714V29.291L71.7441 29.291L69.4776 22.0557ZM77.6718 23.1018H80.3741V29.2038H78.9794V27.9834C78.7179 28.8551 78.1949 29.3782 77.1488 29.3782C75.4925 29.3782 74.7079 28.0706 74.7079 26.3271V20.7481C74.7079 18.9175 75.5797 17.6971 77.5847 17.6971C79.6768 17.6971 80.3741 18.9175 80.3741 20.5738V21.6198H78.6307V20.4866C78.6307 19.7892 78.3692 19.3534 77.6718 19.3534C76.9744 19.3534 76.7129 19.8764 76.7129 20.5738V26.763C76.7129 27.4604 76.9744 27.9834 77.6718 27.9834C78.282 27.9834 78.6307 27.6347 78.6307 26.8502V24.8452H77.759V23.1018H77.6718Z" fill="#2F9242"/>
</svg>
