<svg width="61" height="42" viewBox="0 0 61 42" fill="none" xmlns="http://www.w3.org/2000/svg">
<path d="M2.40791 6.52825L2.40791 16.7901H0.176758L0.176758 0.593704L2.7602 0.593704L5.57851 9.86643L5.57851 0.593704L7.69223 0.593704L7.69223 16.7901H5.46108L2.40791 6.52825ZM9.45367 12.5864L9.45367 4.67371C9.45367 2.07734 10.628 0.346436 13.3288 0.346436C16.0297 0.346436 17.3214 2.20098 17.3214 4.67371V12.5864C17.3214 15.0592 16.1471 16.9137 13.3288 16.9137C10.628 16.9137 9.45367 15.0592 9.45367 12.5864ZM14.738 12.9573L14.738 4.17917C14.738 3.19008 14.3857 2.44825 13.4463 2.44825C12.5068 2.44825 12.1545 3.19008 12.1545 4.17917L12.1545 12.9573C12.1545 13.9464 12.5068 14.6883 13.4463 14.6883C14.2683 14.6883 14.738 13.9464 14.738 12.9573ZM0.294194 24.5792H4.16935C6.75279 24.5792 7.69223 25.9392 7.69223 28.1646V31.6264C7.69223 33.8519 6.75279 35.3355 4.16935 35.3355H2.87764L2.87764 40.8992H0.294194L0.294194 24.5792ZM2.87764 26.8046L2.87764 33.2337H3.81707C4.75651 33.2337 5.10879 32.7392 5.10879 31.8737V28.1646C5.10879 27.2992 4.75651 26.8046 3.81707 26.8046H2.87764ZM9.21881 36.6955L9.21881 28.7828C9.21881 26.1864 10.3931 24.4555 13.094 24.4555C15.7949 24.4555 17.0866 26.3101 17.0866 28.7828V36.6955C17.0866 39.1683 15.9123 41.0228 13.094 41.0228C10.3931 41.0228 9.21881 39.1683 9.21881 36.6955ZM14.5031 37.0664L14.5031 28.2883C14.5031 27.2992 14.1509 26.5573 13.2114 26.5573C12.272 26.5573 11.9197 27.2992 11.9197 28.2883L11.9197 37.0664C11.9197 38.0555 12.272 38.7973 13.2114 38.7973C14.0334 38.7973 14.5031 38.0555 14.5031 37.0664ZM26.7158 24.5792L23.7801 40.7755H20.9617L18.026 24.5792H20.6095L22.3709 35.9537L24.2498 24.5792H26.7158ZM28.0075 24.5792H34.2313V26.8046H30.5909V31.5028H33.1744V33.7283H30.5909V38.6737H34.2313V40.8992H28.0075V24.5792ZM38.3413 33.3573V40.7755H35.7578V24.5792H39.5156C42.099 24.5792 43.0385 25.9392 43.0385 28.1646V30.2664C43.0385 31.9973 42.4513 32.9864 40.9247 33.3573L43.3907 40.7755L40.6899 40.7755L38.3413 33.3573ZM38.3413 26.8046V31.8737H39.1633C40.1027 31.8737 40.455 31.3792 40.455 30.5137V28.1646C40.455 27.2992 40.1027 26.8046 39.1633 26.8046H38.3413ZM44.2127 24.5792H51.1411V26.8046H49.0274V40.8992H46.4439V26.9283H44.3302L44.2127 24.5792ZM57.5997 34.5937V40.7755H55.0162V34.5937L52.0805 24.5792H54.7814L56.308 30.761L57.8346 24.5792H60.3006L57.5997 34.5937Z" fill="#FA5155"/>
</svg>
