<svg width="50" height="40" viewBox="0 0 50 40" fill="none" xmlns="http://www.w3.org/2000/svg">
<path d="M12.5779 4.02544C12.5779 4.81777 12.3426 5.59226 11.9019 6.25072C11.4613 6.90918 10.835 7.42197 10.1025 7.72408C9.37002 8.02618 8.56433 8.104 7.78758 7.94767C7.01082 7.79135 6.29797 7.40791 5.73939 6.84596C5.18081 6.28402 4.80166 5.56888 4.65 4.7912C4.49834 4.01352 4.581 3.20832 4.8875 2.47767C5.194 1.74702 5.71053 1.12383 6.37163 0.687091C7.03273 0.250355 7.80862 0.0197413 8.60093 0.0244858C9.6579 0.0308151 10.6694 0.455136 11.4146 1.20478C12.1597 1.95441 12.578 2.96846 12.5779 4.02544Z" fill="white"/>
<path d="M28.0306 21.8975C28.0306 22.6854 27.7176 23.441 27.1605 23.9982C26.6033 24.5553 25.8477 24.8683 25.0598 24.8683C24.2719 24.8683 23.5163 24.5553 22.9592 23.9982C22.402 23.441 22.089 22.6854 22.089 21.8975C22.089 21.1096 22.402 20.354 22.9592 19.7969C23.5163 19.2397 24.2719 18.9268 25.0598 18.9268C25.8477 18.9268 26.6033 19.2397 27.1605 19.7969C27.7176 20.354 28.0306 21.1096 28.0306 21.8975Z" fill="white"/>
<path d="M13.7039 9.08008H3.28222C2.42369 9.09208 1.60296 9.43522 0.991382 10.0379C0.379799 10.6405 0.0246246 11.4561 0 12.3144V21.8975C0.0469958 22.2742 0.229976 22.6208 0.514541 22.872C0.799106 23.1233 1.16566 23.262 1.54528 23.262C1.9249 23.262 2.29145 23.1233 2.57602 22.872C2.86058 22.6208 3.04356 22.2742 3.09056 21.8975V12.9612H3.56971V36.9191C3.57601 37.3978 3.77062 37.8548 4.11141 38.1911C4.45219 38.5274 4.91173 38.7159 5.39051 38.7159C5.86513 38.7097 6.31856 38.5184 6.6542 38.1827C6.98984 37.8471 7.18114 37.3937 7.18734 36.9191V26.5214C7.23065 26.1994 7.3893 25.9041 7.63383 25.6903C7.87836 25.4765 8.19216 25.3586 8.517 25.3586C8.84184 25.3586 9.15565 25.4765 9.40018 25.6903C9.64471 25.9041 9.80335 26.1994 9.84666 26.5214V36.8472C9.84666 37.3237 10.036 37.7808 10.3729 38.1177C10.7099 38.4547 11.1669 38.644 11.6435 38.644C12.1181 38.6378 12.5716 38.4465 12.9072 38.1109C13.2428 37.7752 13.4341 37.3218 13.4403 36.8472V12.8894H13.9195V21.8975C13.9195 22.3105 14.0836 22.7066 14.3756 22.9987C14.6676 23.2907 15.0637 23.4548 15.4767 23.4548C15.8898 23.4548 16.2859 23.2907 16.5779 22.9987C16.8699 22.7066 17.034 22.3105 17.034 21.8975V12.3144C17.0091 11.4479 16.6472 10.6253 16.0254 10.0213C15.4035 9.41739 14.5707 9.07972 13.7039 9.08008Z" fill="white"/>
<path d="M25.2995 33.4212C25.4168 33.4179 25.5335 33.4385 25.6426 33.4819C25.7516 33.5253 25.8507 33.5905 25.9336 33.6735C26.0166 33.7564 26.0818 33.8555 26.1252 33.9645C26.1686 34.0736 26.1892 34.1903 26.1859 34.3076V37.5898C26.1921 37.9882 26.3531 38.3685 26.6348 38.6503C26.9166 38.932 27.2969 39.093 27.6953 39.0992C28.0956 39.0992 28.4795 38.9402 28.7625 38.6571C29.0456 38.3741 29.2046 37.9901 29.2046 37.5898V29.0848L33.541 24.7724C33.6482 24.6656 33.7332 24.5386 33.7913 24.3988C33.8493 24.2591 33.8792 24.1092 33.8792 23.9578C33.8792 23.8065 33.8493 23.6566 33.7913 23.5168C33.7332 23.3771 33.6482 23.2501 33.541 23.1433C33.4334 23.0287 33.3035 22.9374 33.1593 22.8749C33.0151 22.8125 32.8596 22.7803 32.7024 22.7803C32.5453 22.7803 32.3898 22.8125 32.2456 22.8749C32.1014 22.9374 31.9715 23.0287 31.8639 23.1433L29.2525 25.5391C28.858 25.8755 28.3575 26.0622 27.839 26.0661H22.7839C22.2646 26.0664 21.7627 25.8792 21.3704 25.5391L18.759 23.1433C18.6514 23.0287 18.5216 22.9374 18.3773 22.8749C18.2331 22.8125 18.0776 22.7803 17.9205 22.7803C17.7633 22.7803 17.6078 22.8125 17.4636 22.8749C17.3194 22.9374 17.1895 23.0287 17.0819 23.1433C16.9747 23.2501 16.8897 23.3771 16.8316 23.5168C16.7736 23.6566 16.7437 23.8065 16.7437 23.9578C16.7437 24.1092 16.7736 24.2591 16.8316 24.3988C16.8897 24.5386 16.9747 24.6656 17.0819 24.7724L21.3944 29.0848V37.6138C21.4006 38.0163 21.565 38.4002 21.8518 38.6826C22.1387 38.9649 22.5251 39.1232 22.9277 39.1231C23.326 39.117 23.7064 38.956 23.9881 38.6742C24.2698 38.3925 24.4308 38.0122 24.437 37.6138V34.3076C24.4338 34.1924 24.4537 34.0776 24.4956 33.9702C24.5375 33.8628 24.6006 33.7648 24.681 33.6822C24.7614 33.5996 24.8576 33.5339 24.9638 33.489C25.07 33.4442 25.1842 33.4211 25.2995 33.4212Z" fill="white"/>
<path d="M41.6147 8.00184C42.408 8.00658 43.1849 7.77535 43.8465 7.33755C44.5081 6.89974 45.0246 6.27513 45.3304 5.54308C45.6362 4.81103 45.7174 4.0046 45.5638 3.22627C45.4102 2.44793 45.0287 1.73284 44.4677 1.17185C43.9067 0.610872 43.1916 0.229332 42.4133 0.0757185C41.6349 -0.0778946 40.8285 0.00335544 40.0965 0.309143C39.3644 0.614931 38.7398 1.13145 38.302 1.79306C37.8642 2.45468 37.633 3.23151 37.6377 4.02484C37.644 5.07767 38.065 6.08558 38.8095 6.83006C39.554 7.57453 40.5619 7.99555 41.6147 8.00184Z" fill="white"/>
<path d="M46.6699 9.08008H36.3201C35.4532 9.07972 34.6204 9.41739 33.9986 10.0213C33.3767 10.6253 33.0149 11.4479 32.99 12.3144V21.8975C33.037 22.2742 33.2199 22.6208 33.5045 22.872C33.7891 23.1233 34.1556 23.262 34.5352 23.262C34.9149 23.262 35.2814 23.1233 35.566 22.872C35.8505 22.6208 36.0335 22.2742 36.0805 21.8975V12.9612H36.5597V22.3287L34.1639 27.1203H36.5597V36.9191C36.6108 37.3629 36.8234 37.7725 37.157 38.0698C37.4905 38.3671 37.9217 38.5313 38.3685 38.5313C38.8153 38.5313 39.2465 38.3671 39.58 38.0698C39.9136 37.7725 40.1261 37.3629 40.1773 36.9191V27.0484H42.8127V36.8472C42.8638 37.291 43.0764 37.7006 43.4099 37.9979C43.7435 38.2952 44.1747 38.4595 44.6215 38.4595C45.0683 38.4595 45.4995 38.2952 45.833 37.9979C46.1665 37.7006 46.3791 37.291 46.4303 36.8472V27.0484H48.8261L46.4303 22.2569V12.9612H46.9094V21.8975C46.9564 22.2742 47.1394 22.6208 47.424 22.872C47.7086 23.1233 48.0751 23.262 48.4547 23.262C48.8344 23.262 49.2009 23.1233 49.4855 22.872C49.77 22.6208 49.953 22.2742 50 21.8975V12.3144C49.9751 11.4479 49.6132 10.6253 48.9914 10.0213C48.3696 9.41739 47.5367 9.07972 46.6699 9.08008Z" fill="white"/>
</svg>
