<svg width="26" height="19" viewBox="0 0 26 19" fill="none" xmlns="http://www.w3.org/2000/svg">
<path d="M13.6678 15.1681C13.5709 15.1642 13.4775 15.1304 13.4005 15.0713C13.3235 15.0122 13.2667 14.9308 13.2379 14.8381L9.23785 2.13808L5.50786 8.85808C5.46842 8.93501 5.40809 8.99926 5.3338 9.04348C5.25952 9.0877 5.17429 9.11009 5.08786 9.10808H1.28786C1.22482 9.10808 1.16241 9.09567 1.10417 9.07154C1.04594 9.04742 0.993013 9.01206 0.948441 8.96749C0.903868 8.92292 0.868513 8.87001 0.844391 8.81177C0.820269 8.75353 0.807861 8.69112 0.807861 8.62808C0.810418 8.50158 0.861809 8.38097 0.951279 8.2915C1.04075 8.20203 1.16135 8.15064 1.28786 8.14808H4.73785L8.87785 0.708082C8.92109 0.625488 8.98791 0.557618 9.06982 0.513101C9.15173 0.468585 9.24504 0.449433 9.33786 0.458082C9.43051 0.468388 9.5183 0.50491 9.59093 0.563363C9.66355 0.621815 9.71798 0.699772 9.74785 0.788082L13.7478 13.3081L17.8179 3.69808C17.8569 3.61357 17.9188 3.54165 17.9966 3.49041C18.0743 3.43917 18.1648 3.41066 18.2579 3.40808C18.3523 3.41034 18.4441 3.43986 18.5222 3.49309C18.6002 3.54632 18.6613 3.62098 18.6979 3.70808L20.6979 8.70808H25.0379C25.152 8.72469 25.2563 8.78183 25.3318 8.86905C25.4072 8.95627 25.4487 9.06775 25.4487 9.18308C25.4487 9.29841 25.4072 9.40989 25.3318 9.49711C25.2563 9.58434 25.152 9.64148 25.0379 9.65808H20.3779C20.2836 9.66064 20.1909 9.6342 20.1122 9.58233C20.0335 9.53047 19.9726 9.45568 19.9379 9.36808L18.1979 5.13808L14.0579 14.8881C14.024 14.9655 13.9699 15.0324 13.9013 15.0816C13.8327 15.1309 13.752 15.1608 13.6678 15.1681Z" fill="url(#paint0_linear_24_308)"/>
<path d="M25.1979 11.4881C24.9914 11.2789 24.7454 11.1127 24.4741 10.9993C24.2029 10.886 23.9119 10.8276 23.6179 10.8276C23.3239 10.8276 23.0328 10.886 22.7616 10.9993C22.4904 11.1127 22.2444 11.2789 22.0379 11.4881L21.5279 11.9881L21.0279 11.4881C20.8238 11.2653 20.5768 11.086 20.3016 10.9612C20.0265 10.8363 19.729 10.7684 19.4269 10.7616C19.1249 10.7547 18.8245 10.809 18.544 10.9212C18.2635 11.0335 18.0086 11.2013 17.7946 11.4146C17.5806 11.6279 17.412 11.8823 17.2989 12.1624C17.1858 12.4426 17.1305 12.7427 17.1364 13.0448C17.1423 13.3469 17.2093 13.6447 17.3333 13.9202C17.4573 14.1957 17.6357 14.4433 17.8579 14.6481L18.3679 15.1581L21.5279 18.3281L24.7379 15.1581L25.2379 14.6481C25.4471 14.4416 25.6132 14.1956 25.7266 13.9243C25.84 13.6531 25.8984 13.3621 25.8984 13.0681C25.8984 12.7741 25.84 12.4831 25.7266 12.2118C25.6132 11.9406 25.4471 11.6946 25.2379 11.4881H25.1979Z" fill="url(#paint1_linear_24_308)"/>
<defs>
<linearGradient id="paint0_linear_24_308" x1="0.767861" y1="7.81808" x2="25.5578" y2="7.81808" gradientUnits="userSpaceOnUse">
<stop stop-color="#3DA551"/>
<stop offset="1" stop-color="#207F32"/>
</linearGradient>
<linearGradient id="paint1_linear_24_308" x1="17.1979" y1="14.5781" x2="25.8579" y2="14.5781" gradientUnits="userSpaceOnUse">
<stop stop-color="#3DA551"/>
<stop offset="1" stop-color="#207F32"/>
</linearGradient>
</defs>
</svg>
