<svg width="29" height="18" viewBox="0 0 29 18" fill="none" xmlns="http://www.w3.org/2000/svg">
<path d="M9.92798 17.2181H12.928V11.9881H15.548V17.2481H18.548V0.0480957H10.008L9.92798 17.2181ZM14.538 5.07809H15.948V6.4881H14.538V5.07809ZM12.018 2.5481H13.438V3.9881H12.018V2.5481Z" fill="url(#paint0_linear_24_326)"/>
<path d="M0.187988 12.0179V17.2179H3.11798V15.5779L4.44797 14.7579L5.80798 15.5779V17.2179H8.73798V12.0179L4.41797 9.38794L0.187988 12.0179Z" fill="url(#paint1_linear_24_326)"/>
<path d="M26.138 7.40804V5.98804H21.738V7.43803H19.688V17.248H22.558V13.988H25.338V17.178H28.228V7.36804L26.138 7.40804ZM26.138 11.598H21.738V10.598H26.178L26.138 11.598Z" fill="url(#paint2_linear_24_326)"/>
<defs>
<linearGradient id="paint0_linear_24_326" x1="4.44798" y1="-4.2619" x2="24.358" y2="22.0681" gradientUnits="userSpaceOnUse">
<stop stop-color="#FFA23C"/>
<stop offset="1" stop-color="#F46A25"/>
</linearGradient>
<linearGradient id="paint1_linear_24_326" x1="-4.622" y1="2.59794" x2="15.288" y2="28.9279" gradientUnits="userSpaceOnUse">
<stop stop-color="#FFA23C"/>
<stop offset="1" stop-color="#F46A25"/>
</linearGradient>
<linearGradient id="paint2_linear_24_326" x1="8.86802" y1="-7.60196" x2="28.768" y2="18.718" gradientUnits="userSpaceOnUse">
<stop stop-color="#FFA23C"/>
<stop offset="1" stop-color="#F46A25"/>
</linearGradient>
</defs>
</svg>
