<svg width="66" height="42" viewBox="0 0 66 42" fill="none" xmlns="http://www.w3.org/2000/svg">
<path d="M0.789063 24.0621H7.16984L7.16984 26.2291H3.43768L3.43768 30.8039H6.08629V32.971H3.43768L3.43768 37.7866H7.16984V39.9537H0.789063L0.789063 24.0621ZM11.3835 40.9168V39.8333C9.21648 39.4721 8.37374 37.907 8.37374 35.74L8.37374 28.035C8.37374 25.5068 9.57764 23.8213 12.3466 23.8213C15.1156 23.8213 16.4399 25.6272 16.4399 28.035V35.74C16.4399 37.4254 15.8379 38.8701 14.5136 39.4721L16.4399 39.8333V41.7595L11.3835 40.9168ZM13.7913 36.3419V27.6738C13.7913 26.7107 13.4301 25.9883 12.467 25.9883C11.5039 25.9883 11.1427 26.7107 11.1427 27.6738V36.3419C11.1427 37.3051 11.5039 38.0274 12.467 38.0274C13.4301 38.0274 13.7913 37.3051 13.7913 36.3419ZM25.9508 24.0621L25.9508 35.9808C25.9508 38.3886 24.8673 40.0741 22.2187 40.0741C19.4497 40.0741 18.2457 38.509 18.2457 35.9808L18.2457 24.0621H20.8943L20.8943 36.3419C20.8943 37.3051 21.2556 37.907 22.2187 37.907C23.1818 37.907 23.543 37.3051 23.543 36.3419L23.543 24.0621H25.9508ZM27.275 39.8333L30.2848 24.0621L33.2946 24.0621L36.3044 39.8333H33.5354L33.0539 36.9439H30.2848L29.8033 39.8333H27.275ZM30.6461 34.8972H32.8131L31.7295 28.5165L30.6461 34.8972ZM37.6287 24.0621H40.2773V37.6662H43.4075V39.8333H37.6287V24.0621ZM44.8522 24.0621H47.5008V39.8333H44.8522V24.0621ZM48.9454 24.0621L56.0485 24.0621V26.2291L53.8815 26.2291V39.8333H51.2329V26.2291H49.0658V24.0621H48.9454ZM62.67 33.8137V39.8333H60.0214V33.8137L57.0116 24.0621H59.7806L61.3457 30.0816L62.9108 24.0621H65.439L62.67 33.8137Z" fill="#FF6D5B"/>
<path d="M4.88238 8.16981H8.61447L8.61447 16.5972H6.68824V14.9117C6.32707 16.1156 5.60476 16.838 4.16006 16.838C1.87264 16.838 0.789063 15.0321 0.789063 12.6243L0.789063 4.91925C0.789063 2.39104 1.99303 0.705566 4.76202 0.705566C7.6514 0.705566 8.61447 2.39104 8.61447 4.67847V6.12315H6.20665V4.55809C6.20665 3.59496 5.84551 2.993 4.88238 2.993C3.91925 2.993 3.55811 3.71534 3.55811 4.67847L3.55811 13.2262C3.55811 14.1894 3.91925 14.9117 4.88238 14.9117C5.72512 14.9117 6.20665 14.4301 6.20665 13.3466V10.5776L5.00274 10.5776L5.00274 8.16981H4.88238ZM10.4203 0.825965L16.8011 0.825965V2.993L13.0689 2.993L13.0689 7.56786L15.7176 7.56786V9.73488H13.0689V14.5505L16.8011 14.5505V16.7176L10.4203 16.7176L10.4203 0.825965ZM20.6536 6.72511L20.6536 16.7176H18.3662L18.3662 0.946363L21.0148 0.946363L23.9041 9.97568V0.946363L26.0711 0.946363L26.0711 16.7176H23.7838L20.6536 6.72511ZM35.8228 5.03964V12.3835C35.8228 14.7913 34.8597 16.5972 31.9703 16.5972H27.877L27.877 0.825965L31.9703 0.825965C34.8597 0.825965 35.8228 2.63183 35.8228 5.03964ZM31.6092 14.4301C32.6927 14.4301 33.1742 13.8282 33.1742 12.865V4.55809C33.1742 3.59496 32.8131 2.993 31.6092 2.993L30.5256 2.993L30.5256 14.4301H31.6092ZM37.6287 0.825965L44.0094 0.825965V2.993L40.2773 2.993V7.56786L42.9259 7.56786V9.73488H40.2773V14.5505H44.0094V16.7176H37.6287V0.825965ZM48.2231 9.37372V16.5972H45.5745V0.825965L49.427 0.825965C52.0756 0.825965 53.0387 2.15026 53.0387 4.31729V6.36395C53.0387 8.04942 52.4368 9.01255 50.8717 9.37372L53.3999 16.5972H50.6309L48.2231 9.37372ZM48.2231 2.993V7.92902H49.0658C50.029 7.92902 50.3901 7.44746 50.3901 6.60473V4.31729C50.3901 3.47456 50.029 2.993 49.0658 2.993H48.2231Z" fill="#FF6D5B"/>
</svg>
