<svg width="50" height="60" viewBox="0 0 50 60" fill="none" xmlns="http://www.w3.org/2000/svg">
<path d="M36.1832 39.0462C35.4939 40.7218 34.3442 42.1678 32.8672 43.2171C31.3901 44.2663 29.6462 44.8757 27.8371 44.975V52.6085H22.0865V44.975C20.3495 44.7898 18.6948 44.1387 17.2974 43.0906C15.8999 42.0426 14.8117 40.6364 14.1476 39.0208C15.1698 39.3841 16.2436 39.5817 17.3282 39.606C17.8959 40.3673 18.6086 41.0088 19.4252 41.4936C20.2418 41.9783 21.1463 42.2967 22.0865 42.4304V38.7663C23.1127 38.3632 24.0666 37.796 24.9109 37.0869C25.782 37.8569 26.7696 38.4839 27.8371 38.9444V42.4814C28.826 42.4092 29.7891 42.1321 30.6652 41.6678C31.5413 41.2035 32.3113 40.562 32.9262 39.7841C34.0445 39.7151 35.1443 39.4659 36.1832 39.0462Z" fill="white"/>
<path d="M41.5521 55.7627H9.03305V59.6812H41.5521V55.7627Z" fill="white"/>
<path d="M32.1882 37.7727C29.8315 37.7791 27.5528 36.9291 25.776 35.3808L24.9109 34.6429L24.0458 35.3553C22.9675 36.2328 21.7144 36.8701 20.3702 37.2246C19.026 37.5791 17.6217 37.6427 16.251 37.4112C14.8802 37.1796 13.5747 36.6583 12.4215 35.8819C11.2684 35.1055 10.2941 34.092 9.56391 32.9091C8.83371 31.7262 8.36434 30.401 8.18713 29.0222C8.00993 27.6434 8.12898 26.2427 8.53634 24.9135C8.94369 23.5844 9.62996 22.3574 10.5493 21.3147C11.4687 20.272 12.6 19.4375 13.8677 18.8669L14.631 18.5361V17.6963C14.7301 15.1913 15.7882 12.8202 17.5865 11.0735C19.3847 9.32684 21.7856 8.3382 24.2924 8.31206C26.7992 8.28591 29.2202 9.22426 31.0546 10.9331C32.8889 12.6419 33.9962 14.9904 34.1475 17.4928V18.4088L35.0127 18.6887C37.2351 19.3943 39.132 20.8713 40.3607 22.8531C41.5894 24.8349 42.0687 27.1908 41.7123 29.4952C41.3559 31.7996 40.1872 33.9004 38.4172 35.4185C36.6472 36.9365 34.3928 37.7715 32.061 37.7727H32.1882Z" fill="white"/>
<path d="M43.2824 17.2382C43.1298 17.3909 43.0279 17.5435 42.9007 17.6962C42.7735 17.8488 42.6717 17.3909 42.519 17.2382C41.7201 16.1578 40.7152 15.2463 39.5622 14.5563C38.4093 13.8663 37.1312 13.4114 35.8015 13.2179C37.1818 12.8213 38.6586 12.9347 39.9621 13.5374C41.2657 14.1401 42.3087 15.1918 42.9007 16.5002L43.2824 17.2382Z" fill="white"/>
<path d="M50 13.2942C47.3264 13.6661 44.9101 15.0848 43.2825 17.2382C43.1298 17.3909 43.028 17.5435 42.9008 17.6962C42.7735 17.8489 42.6718 17.3909 42.5191 17.2382L42.9008 16.5003C43.5058 15.2058 44.5545 14.1708 45.8568 13.5827C47.159 12.9946 48.6288 12.8923 50 13.2942Z" fill="white"/>
<path d="M7.45544 17.2382L7.09925 17.6962L6.71751 17.2382C5.9186 16.1578 4.91375 15.2463 3.7608 14.5563C2.60785 13.8663 1.32965 13.4114 0 13.2179C1.38028 12.8213 2.85719 12.9347 4.16071 13.5374C5.46423 14.1401 6.50731 15.1918 7.09925 16.5002C7.23319 16.7386 7.35212 16.9851 7.45544 17.2382Z" fill="white"/>
<path d="M14.1984 13.295C12.8642 13.4854 11.5812 13.9387 10.4236 14.6289C9.26613 15.319 8.25719 16.2322 7.45537 17.3153L7.09918 17.7733L6.71744 17.3153L7.09918 16.5774C7.69112 15.269 8.73419 14.2173 10.0377 13.6146C11.3412 13.0118 12.8181 12.8985 14.1984 13.295Z" fill="white"/>
<path d="M25.3689 4.94819L24.9872 5.40619L24.6309 4.94819C23.8291 3.86503 22.8202 2.95186 21.6626 2.26172C20.5051 1.57157 19.2221 1.11815 17.8879 0.927798C19.2682 0.531239 20.7451 0.644713 22.0487 1.24742C23.3522 1.85012 24.3952 2.90181 24.9872 4.21026L25.3689 4.94819Z" fill="white"/>
<path d="M32.0864 0.927798C30.7568 1.12134 29.4787 1.57627 28.3257 2.2663C27.1727 2.95632 26.1678 3.86783 25.3689 4.94819L24.9873 5.40619L24.631 4.94819C24.7343 4.69507 24.8533 4.4486 24.9873 4.21026C25.5792 2.90181 26.6223 1.85012 27.9258 1.24742C29.2293 0.644713 30.7061 0.531239 32.0864 0.927798Z" fill="white"/>
</svg>
