<svg width="68" height="21" viewBox="0 0 68 21" fill="none" xmlns="http://www.w3.org/2000/svg">
<path d="M0.686035 7.03564V5.94308H1.96068L1.96068 7.03564C1.96068 7.46052 2.14279 7.76402 2.62838 7.76402C3.05326 7.76402 3.23536 7.46052 3.23536 7.03564V6.73215C3.23536 6.24656 3.05326 6.00377 2.62838 5.57889L1.83927 4.78982C1.0502 4.06145 0.746718 3.57587 0.746718 2.6654V2.42259C0.746718 1.45142 1.35372 0.662354 2.62838 0.662354C3.96373 0.662354 4.51 1.33003 4.51 2.48329V3.15097H3.29604V2.48329C3.29604 1.99771 3.11394 1.81561 2.68906 1.81561C2.32487 1.81561 2.08208 1.99771 2.08208 2.48329V2.6654C2.08208 3.09028 2.32487 3.39376 2.68906 3.75795L3.53885 4.60772C4.26722 5.33609 4.6314 5.82167 4.6314 6.67144V7.03564C4.6314 8.1282 4.02441 8.91728 2.68906 8.91728C1.3537 8.91728 0.686035 8.0675 0.686035 7.03564ZM9.00166 0.783757V6.79285C9.00166 8.00681 8.45535 8.85657 7.12 8.85657C5.72395 8.85657 5.11698 8.0675 5.11698 6.79285V0.783757L6.45234 0.783757V6.97493C6.45234 7.46052 6.63442 7.76402 7.12 7.76402C7.60558 7.76402 7.7877 7.46052 7.7877 6.97493V0.783757H9.00166ZM9.73 7.03564V5.94308H11.0047V7.03564C11.0047 7.46052 11.1868 7.76402 11.6723 7.76402C12.0972 7.76402 12.2793 7.46052 12.2793 7.03564V6.73215C12.2793 6.24656 12.0972 6.00377 11.6723 5.57889L10.8833 4.78982C10.0942 4.06145 9.79072 3.57587 9.79072 2.6654V2.42259C9.79072 1.45142 10.337 0.662354 11.6723 0.662354C13.0077 0.662354 13.554 1.33003 13.554 2.48329V3.15097L12.34 3.15097V2.48329C12.34 1.99771 12.158 1.81561 11.7331 1.81561C11.3689 1.81561 11.1261 1.99771 11.1261 2.48329V2.6654C11.1261 3.09028 11.3689 3.39376 11.7331 3.75795L12.5828 4.60772C13.3112 5.33609 13.6754 5.82167 13.6754 6.67144V7.03564C13.6754 8.1282 13.0684 8.91728 11.7331 8.91728C10.2156 8.85658 9.73 8.0675 9.73 7.03564ZM13.8575 0.783757L17.4386 0.783757V1.87631H16.3461V8.73519H15.0107V1.87631L13.9182 1.87631V0.783757H13.8575ZM17.1959 8.73519L18.7133 0.783757L20.2308 0.783757L21.7482 8.73519H20.3521L20.1094 7.27842H18.7133L18.4705 8.73519H17.1959ZM18.8954 6.18587H19.988L19.4417 2.96889L18.8954 6.18587ZM22.2945 0.783757L23.6298 0.783757V8.73519H22.2945V0.783757ZM25.5115 3.69725V8.73519H24.3582V0.783757H25.6936L27.1503 5.3361V0.783757L28.2429 0.783757V8.73519H27.0896L25.5115 3.69725ZM28.7285 8.73519L30.2459 0.783757L31.7634 0.783757L33.2808 8.73519H31.8847L31.642 7.27842H30.2459L30.0031 8.73519H28.7285ZM30.428 6.18587H31.5206L30.9743 2.96889L30.428 6.18587ZM33.7057 0.783757L35.648 0.783757C36.9834 0.783757 37.4083 1.39073 37.4083 2.54399V3.33306C37.4083 4.00074 37.1655 4.42562 36.6192 4.60772C37.2869 4.78981 37.5904 5.21471 37.5904 5.94308V6.97493C37.5904 8.12819 37.1048 8.73519 35.7694 8.73519H33.7057V0.783757ZM35.041 4.12214H35.5266C35.9515 4.12214 36.1336 3.87935 36.1336 3.45446V2.48329C36.1336 2.05841 35.9515 1.81561 35.4659 1.81561H34.9804L35.041 4.12214ZM35.041 7.64261H35.648C36.0729 7.64261 36.3157 7.39982 36.3157 6.97493V5.76098C36.3157 5.33609 36.1336 5.09331 35.648 5.09331H35.041V7.64261ZM38.1973 0.783757H39.5327V7.64261L41.1108 7.64261V8.73519H38.1973V0.783757ZM41.6571 0.783757L44.8741 0.783757V1.87631H42.9925V4.18284H44.3278V5.2754H42.9925V7.70332H44.8741V8.79587H41.6571V0.783757ZM47.1199 6.67144V2.78678C47.1199 1.51212 47.7269 0.662354 49.123 0.662354C50.5797 0.662354 51.0046 1.51214 51.0046 2.6654V3.63655H49.7906V2.54399C49.7906 2.05841 49.6086 1.75493 49.123 1.75493C48.6374 1.75493 48.4553 2.11911 48.4553 2.60469V6.91425C48.4553 7.39983 48.6374 7.76402 49.123 7.76402C49.6086 7.76402 49.7906 7.46052 49.7906 6.97493V5.51819H51.0046V6.91425C51.0046 8.06751 50.519 8.91728 49.123 8.91728C47.6662 8.85658 47.1199 7.8854 47.1199 6.67144ZM51.6116 0.783757H52.9469V8.73519H51.6116V0.783757ZM53.4325 0.783757L57.0137 0.783757V1.87631H55.9211V8.73519H54.5858V1.87631H53.4932V0.783757H53.4325ZM57.56 0.783757L58.8953 0.783757V8.73519H57.56V0.783757ZM59.6237 0.783757L62.8407 0.783757V1.87631L60.9591 1.87631V4.18284H62.2944V5.2754H60.9591V7.70332H62.8407V8.79587H59.6237V0.783757ZM63.1442 7.03564V5.94308H64.4189V7.03564C64.4189 7.46052 64.6009 7.76402 65.0865 7.76402C65.5114 7.76402 65.6935 7.46052 65.6935 7.03564V6.73215C65.6935 6.24656 65.5114 6.00377 65.0865 5.57889L64.2975 4.78982C63.5084 4.06145 63.2049 3.57587 63.2049 2.6654V2.42259C63.2049 1.45142 63.8119 0.662354 65.0865 0.662354C66.4219 0.662354 66.9682 1.33003 66.9682 2.48329V3.15097H65.7542V2.48329C65.7542 1.99771 65.5721 1.81561 65.1472 1.81561C64.7831 1.81561 64.5403 1.99771 64.5403 2.48329V2.6654C64.5403 3.09028 64.7831 3.39376 65.1472 3.75795L65.997 4.60772C66.7254 5.33609 67.0895 5.82167 67.0895 6.67144V7.03564C67.0895 8.1282 66.4826 8.91728 65.1472 8.91728C63.8119 8.91728 63.1442 8.0675 63.1442 7.03564Z" fill="#FB8F34"/>
<path d="M0.686035 20.45L2.20348 12.4986H3.72093L5.23838 20.45H3.90302L3.66021 18.9933H2.26417L2.0214 20.45H0.686035ZM2.38557 17.9614H3.47813L2.93187 14.7444L2.38557 17.9614ZM6.93792 15.4728V20.5107H5.78464V12.5593H7.12L8.57677 17.1116V12.5593H9.66932L9.66932 20.5107H8.51605L6.93792 15.4728ZM14.4645 14.623L14.4645 18.3256C14.4645 19.5395 13.9789 20.45 12.5221 20.45H10.4584L10.4584 12.4986H12.5221C13.9182 12.4986 14.4645 13.4091 14.4645 14.623ZM12.34 19.3575C12.8863 19.3575 13.1291 19.054 13.1291 18.5684L13.1291 14.3802C13.1291 13.8946 12.947 13.5912 12.34 13.5912H11.7937L11.7937 19.3575H12.34ZM16.4068 18.3863V14.5016C16.4068 13.227 17.0138 12.3772 18.4098 12.3772C19.8666 12.3772 20.2915 13.227 20.2915 14.3802V15.3514H19.0775V14.3195C19.0775 13.8339 18.8954 13.5305 18.4098 13.5305C17.9243 13.5305 17.7421 13.8946 17.7421 14.3802V18.6898C17.7421 19.1754 17.9243 19.5395 18.4098 19.5395C18.8954 19.5395 19.0775 19.2361 19.0775 18.7505V17.2937H20.2915V18.6898C20.2915 19.843 19.8059 20.6928 18.4098 20.6928C16.9531 20.5714 16.4068 19.6609 16.4068 18.3863ZM21.0198 18.3863V14.5016C21.0198 13.227 21.6268 12.3772 23.0229 12.3772C24.4189 12.3772 25.0866 13.2877 25.0866 14.5016V18.3863C25.0866 19.6002 24.4796 20.5107 23.0229 20.5107C21.6268 20.5714 21.0198 19.6609 21.0198 18.3863ZM23.6905 18.6291V14.3195C23.6905 13.8339 23.5085 13.4698 23.0229 13.4698C22.5373 13.4698 22.3552 13.8339 22.3552 14.3195V18.6291C22.3552 19.1147 22.5373 19.4788 23.0229 19.4788C23.5085 19.4181 23.6905 19.1147 23.6905 18.6291ZM29.5176 15.2907L28.5464 20.45H27.9394L26.9682 15.2907V20.45H25.8757V12.4986H27.4538L28.3036 16.9902L29.0927 12.4986H30.7922V20.45H29.5782L29.5176 15.2907ZM35.1625 15.2907L34.1913 20.45H33.5843L32.6131 15.2907V20.45H31.5206V12.4986H33.0987L33.9485 16.9902L34.7376 12.4986H36.4371V20.45H35.2231V15.2907H35.1625ZM41.0502 12.4986V18.5077C41.0502 19.7216 40.5039 20.5714 39.1685 20.5714C37.7725 20.5714 37.1655 19.7823 37.1655 18.5077V12.4986H38.5008V18.6898C38.5008 19.1754 38.6829 19.4788 39.1685 19.4788C39.6541 19.4788 39.8362 19.1754 39.8362 18.6898V12.4986H41.0502ZM42.8711 15.4728V20.5107H41.7178V12.5593H43.0532L44.51 17.1116V12.5593H45.6025V20.5107H44.4492L42.8711 15.4728ZM46.3916 12.4986H47.7269V20.45H46.3916V12.4986ZM48.3339 12.4986L51.9151 12.4986V13.5912H50.8225V20.45H49.4265V13.5912L48.3339 13.5912V12.4986ZM52.5221 12.4986H53.8574V20.45H52.5221V12.4986ZM54.5858 12.4986H57.8028V13.5912H55.9212V15.8977H57.2565V16.9902H55.9212V19.4181H57.8028V20.5107H54.5858V12.4986ZM58.3491 18.7505V17.6579H59.6237V18.7505C59.6237 19.1754 59.8058 19.4788 60.2914 19.4788C60.7163 19.4788 60.8984 19.1754 60.8984 18.7505V18.447C60.8984 17.9614 60.7163 17.7186 60.2914 17.2937L59.5023 16.5046C58.7132 15.7763 58.4098 15.2907 58.4098 14.3802V14.1374C58.4098 13.1663 58.9561 12.3772 60.2914 12.3772C61.6268 12.3772 62.173 13.0449 62.173 14.1981V14.8658H60.9591V14.1981C60.9591 13.7126 60.777 13.5305 60.3521 13.5305C59.9879 13.5305 59.7451 13.7126 59.7451 14.1981V14.3802C59.7451 14.8051 59.9879 15.1086 60.3521 15.4728L61.2019 16.3226C61.9303 17.0509 62.2944 17.5365 62.2944 18.3863V18.7505C62.2944 19.843 61.6875 20.6321 60.3521 20.6321C58.8953 20.5714 58.3491 19.7823 58.3491 18.7505Z" fill="#FB8F34"/>
</svg>
