<svg width="50" height="36" viewBox="0 0 50 36" fill="none" xmlns="http://www.w3.org/2000/svg">
<path d="M25.6272 29.3179C25.4339 29.3102 25.2478 29.2428 25.0944 29.1251C24.941 29.0073 24.8278 28.845 24.7703 28.6603L16.7992 3.35192L9.36608 16.7434C9.28748 16.8967 9.16726 17.0248 9.01922 17.1129C8.87119 17.201 8.70134 17.2456 8.52912 17.2416H0.956528C0.830914 17.2416 0.706535 17.2169 0.590483 17.1688C0.474431 17.1207 0.368967 17.0503 0.280144 16.9615C0.191321 16.8726 0.120866 16.7672 0.0727955 16.6511C0.024725 16.5351 0 16.4107 0 16.2851C0.00509434 16.033 0.107507 15.7926 0.2858 15.6144C0.464093 15.4361 0.704435 15.3336 0.956528 15.3286H7.83163L16.0818 0.502236C16.1679 0.337644 16.3011 0.202394 16.4643 0.113682C16.6275 0.0249701 16.8135 -0.0131949 16.9985 0.00403964C17.1831 0.0245767 17.358 0.0973583 17.5028 0.213842C17.6475 0.330325 17.7559 0.485676 17.8155 0.661658L25.7866 25.6113L33.8973 6.46066C33.9751 6.29225 34.0984 6.14892 34.2534 6.04682C34.4083 5.94472 34.5886 5.88789 34.7741 5.88275C34.9623 5.88726 35.1452 5.94609 35.3008 6.05216C35.4564 6.15823 35.578 6.30701 35.6509 6.48059L39.6365 16.4445H48.2852C48.5126 16.4776 48.7205 16.5915 48.8709 16.7653C49.0212 16.9391 49.104 17.1613 49.104 17.3911C49.104 17.6209 49.0212 17.8431 48.8709 18.0169C48.7205 18.1907 48.5126 18.3046 48.2852 18.3377H38.9988C38.811 18.3428 38.6262 18.2901 38.4694 18.1867C38.3126 18.0833 38.1913 17.9343 38.122 17.7598L34.6545 9.33027L26.4044 28.7599C26.337 28.9142 26.2292 29.0474 26.0924 29.1456C25.9556 29.2438 25.7949 29.3033 25.6272 29.3179Z" fill="white"/>
<path d="M48.6041 21.9841C48.1925 21.5672 47.7023 21.2361 47.1618 21.0101C46.6213 20.7842 46.0413 20.6678 45.4554 20.6678C44.8696 20.6678 44.2896 20.7842 43.7491 21.0101C43.2086 21.2361 42.7184 21.5672 42.3068 21.9841L41.2905 22.9805L40.2941 21.9841C39.8875 21.5401 39.3952 21.1829 38.8469 20.9341C38.2986 20.6853 37.7057 20.55 37.1038 20.5363C36.5018 20.5226 35.9033 20.6309 35.3443 20.8545C34.7853 21.0781 34.2773 21.4125 33.8509 21.8376C33.4244 22.2627 33.0884 22.7696 32.863 23.3279C32.6376 23.8862 32.5275 24.4844 32.5393 25.0864C32.5511 25.6883 32.6845 26.2817 32.9316 26.8308C33.1787 27.3798 33.5343 27.8732 33.977 28.2813L34.9933 29.2976L41.2905 35.6147L47.6874 29.2976L48.6838 28.2813C49.1007 27.8698 49.4317 27.3795 49.6577 26.839C49.8837 26.2985 50 25.7185 50 25.1327C50 24.5469 49.8837 23.9669 49.6577 23.4264C49.4317 22.8859 49.1007 22.3956 48.6838 21.9841H48.6041Z" fill="white"/>
</svg>
