<svg width="50" height="33" viewBox="0 0 50 33" fill="none" xmlns="http://www.w3.org/2000/svg">
<path d="M48.1255 21.0355L49.9888 17.389C50.0154 17.2319 49.9945 17.0705 49.9289 16.9253C49.8633 16.7801 49.7559 16.6577 49.6204 16.5738C49.4849 16.4899 49.3275 16.4484 49.1683 16.4544C49.0091 16.4604 48.8553 16.5138 48.7265 16.6076L41.7141 21.9571C36.5594 18.7113 30.788 16.5693 24.764 15.6659L25.1246 12.6005C25.1246 12.6005 17.2106 12.3801 14.2653 13.462C12.4412 14.354 10.9724 15.8369 10.0979 17.6695C6.59167 19.3168 3.4925 21.7181 1.02184 24.7019L3.02539 25.6436L1.88338 26.4451C3.76361 27.3698 5.71292 28.1468 7.71371 28.7692C8.63846 27.4162 9.31675 25.9104 9.71726 24.3213C9.91906 25.9849 9.91906 27.6667 9.71726 29.3302C11.6886 29.86 13.6982 30.2351 15.7279 30.4522C15.9277 30.8738 16.2242 31.2423 16.5932 31.5278C16.9622 31.8133 17.3934 32.0076 17.8517 32.0951C20.665 32.3339 23.4935 32.3339 26.3067 32.0951V29.8711C32.0387 28.6049 37.3461 25.8787 41.7141 21.9571L48.7065 27.0461C48.8331 27.1441 48.9868 27.2008 49.1467 27.2085C49.3066 27.2163 49.4651 27.1747 49.6006 27.0895C49.7362 27.0042 49.8422 26.8794 49.9044 26.7319C49.9667 26.5844 49.9822 26.4213 49.9487 26.2647L48.1255 22.8587C47.9813 22.5765 47.9061 22.264 47.9061 21.947C47.9061 21.6301 47.9813 21.3177 48.1255 21.0355ZM6.05078 24.2211C5.77978 24.2211 5.51987 24.1134 5.32825 23.9218C5.13662 23.7302 5.02895 23.4703 5.02895 23.1993C5.07546 22.9679 5.20069 22.7597 5.38331 22.6102C5.56593 22.4606 5.79468 22.3788 6.03073 22.3788C6.26678 22.3788 6.49556 22.4606 6.67818 22.6102C6.8608 22.7597 6.98599 22.9679 7.03251 23.1993C7.01716 23.4597 6.90277 23.7045 6.71279 23.8833C6.5228 24.0621 6.27161 24.1615 6.0107 24.161L6.05078 24.2211Z" fill="white"/>
<path d="M49.2274 0.99993C48.3046 1.46565 47.5126 2.15431 46.9233 3.00349C46.4026 3.86626 45.6679 4.57991 44.7903 5.07528C43.9128 5.57065 42.9221 5.83095 41.9144 5.83095C40.9067 5.83095 39.916 5.57065 39.0385 5.07528C38.1609 4.57991 37.4262 3.86626 36.9055 3.00349C36.5515 2.30884 36.0124 1.72559 35.3476 1.31824C34.6829 0.910898 33.9184 0.695313 33.1388 0.695312C32.3592 0.695313 31.5947 0.910898 30.93 1.31824C30.2652 1.72559 29.7261 2.30884 29.3721 3.00349C28.8515 3.86626 28.1167 4.57991 27.2391 5.07528C26.3616 5.57065 25.371 5.83095 24.3633 5.83095C23.3555 5.83095 22.3649 5.57065 21.4873 5.07528C20.6098 4.57991 19.8751 3.86626 19.3544 3.00349C19.0004 2.30884 18.4612 1.72559 17.7965 1.31824C17.1317 0.910898 16.3673 0.695312 15.5877 0.695312C14.808 0.695312 14.0436 0.910898 13.3789 1.31824C12.7141 1.72559 12.1749 2.30884 11.821 3.00349C11.3003 3.86626 10.5656 4.57991 9.688 5.07528C8.81045 5.57065 7.8198 5.83095 6.81208 5.83095C5.80436 5.83095 4.81371 5.57065 3.93616 5.07528C3.0586 4.57991 2.32388 3.86626 1.80319 3.00349C1.33033 2.36655 0.762766 1.80576 0.120208 1.34056L0 9.35479H49.1873L49.2274 0.99993Z" fill="white"/>
</svg>
