<svg width="50" height="50" viewBox="0 0 50 50" fill="none" xmlns="http://www.w3.org/2000/svg">
<path d="M37.4615 13.1555C37.4598 15.079 37.0112 16.9757 36.151 18.6961C35.2908 20.4165 34.0426 21.9135 32.5048 23.069C30.2915 23.1027 28.1189 23.6694 26.1712 24.7213C26.5693 22.5416 26.4355 20.298 25.7811 18.1811C25.9735 17.6414 26.1957 17.1128 26.4466 16.5977C27.1843 15.1384 28.2055 13.8409 29.4506 12.781C30.6958 11.7211 32.1398 10.92 33.6982 10.4247C34.7577 10.0693 35.8629 9.86837 36.9797 9.82812C37.2939 10.9096 37.456 12.0294 37.4615 13.1555Z" fill="white"/>
<path d="M29.5443 34.9786C30.0236 38.2214 29.1984 41.522 27.2495 44.1578C26.5986 45.0623 25.8264 45.873 24.9547 46.5673C24.083 45.873 23.3109 45.0623 22.6599 44.1578C21.5305 42.5984 20.7772 40.7989 20.4587 38.9C20.1402 37.001 20.2653 35.0542 20.8241 33.2117C22.5939 31.8867 24.0186 30.155 24.9777 28.1631C25.9368 30.155 27.3615 31.8867 29.1313 33.2117C29.3077 33.7909 29.4456 34.3812 29.5443 34.9786Z" fill="white"/>
<path d="M12.5401 13.1555C12.5494 12.0313 12.7037 10.9129 12.9991 9.82812C14.1236 9.86649 15.2367 10.0674 16.3036 10.4247C18.1313 11.0158 19.7962 12.0245 21.1664 13.3708C22.5366 14.7171 23.5745 16.3641 24.1977 18.1811C23.5521 20.2996 23.4183 22.5411 23.8075 24.7213C21.87 23.6644 19.7036 23.0972 17.4968 23.069C15.9591 21.9135 14.711 20.4165 13.8508 18.6961C12.9906 16.9757 12.5419 15.079 12.5401 13.1555Z" fill="white"/>
<path d="M23.096 26.9701C21.4925 28.4952 20.2803 30.3844 19.5621 32.4776C19.1022 32.8033 18.619 33.0948 18.1163 33.3496C16.6619 34.099 15.0731 34.5519 13.4421 34.6819C11.8112 34.8119 10.1706 34.6164 8.61586 34.1068C7.51811 33.7895 6.47399 33.31 5.51794 32.6841C5.91732 31.6338 6.44945 30.639 7.10136 29.7238C8.06076 28.3997 9.27229 27.2781 10.6664 26.4236C12.0605 25.569 13.6096 24.9983 15.2249 24.7441C15.7986 24.7441 16.3493 24.7441 16.923 24.6064C18.7582 25.8839 20.8769 26.6951 23.096 26.9701Z" fill="white"/>
<path d="M26.9055 26.9715C29.0846 26.6943 31.1677 25.9082 32.9866 24.6768C34.9094 24.7087 36.7987 25.1852 38.5066 26.069C40.2146 26.9528 41.6948 28.22 42.8314 29.7712C43.52 30.6659 44.0907 31.6453 44.5295 32.6856C43.5943 33.3158 42.5744 33.8103 41.5004 34.1543C39.9456 34.6638 38.305 34.8593 36.6741 34.7293C35.0431 34.5993 33.4543 34.1464 31.9999 33.3969C31.4972 33.1422 31.014 32.8507 30.5542 32.5249C29.8146 30.4011 28.5612 28.4934 26.9055 26.9715Z" fill="white"/>
<path d="M25.0007 0.695312C27.4548 0.703586 29.8522 1.43507 31.8929 2.79829C33.9336 4.1615 35.5273 6.09596 36.4746 8.35991C35.3681 8.43972 34.2747 8.64768 33.2161 8.97954C31.4728 9.53026 29.8565 10.4226 28.4618 11.6046C27.067 12.7866 25.9218 14.2345 25.0926 15.8639C25.0886 15.948 25.0886 16.0322 25.0926 16.1163C24.2749 14.4227 23.1237 12.9116 21.7081 11.6734C20.2925 10.4353 18.6416 9.49566 16.8542 8.9107C15.7951 8.58101 14.7019 8.37309 13.5956 8.29106C14.5489 6.05073 16.1364 4.13807 18.1628 2.78848C20.1892 1.4389 22.566 0.711298 25.0007 0.695312Z" fill="white"/>
<path d="M1.36436 27.9126C0.619336 26.456 0.169052 24.8666 0.0392295 23.2357C-0.0905934 21.6048 0.102532 19.9643 0.607745 18.4081C1.11296 16.852 1.92027 15.4108 2.98335 14.1672C4.04643 12.9235 5.34444 11.9018 6.80301 11.1606C8.23011 10.4223 9.7907 9.97754 11.3926 9.85254C11.1142 10.9318 10.9754 12.0424 10.9795 13.157C10.974 15.0327 11.3518 16.8898 12.0897 18.6142C12.8276 20.3387 13.9102 21.8942 15.2708 23.1853H14.9954C13.1698 23.4523 11.4166 24.0836 9.83971 25.0415C8.26286 25.9995 6.89462 27.2646 5.81626 28.7617C5.16646 29.6656 4.62715 30.644 4.20988 31.676C3.01989 30.6238 2.05242 29.3443 1.36436 27.9126Z" fill="white"/>
<path d="M19.2868 49.3224C17.2653 49.6417 15.1963 49.4583 13.2625 48.7882C11.3288 48.1182 9.58974 46.9822 8.19925 45.4805C6.80875 43.9789 5.80953 42.1578 5.28986 40.1784C4.7702 38.1989 4.74611 36.1219 5.21969 34.1309C6.1617 34.7169 7.17107 35.1869 8.22586 35.5306C9.62698 35.9843 11.0903 36.2166 12.563 36.2191C14.7572 36.2243 16.9209 35.705 18.8737 34.7046L19.1261 34.5669C18.792 36.414 18.8352 38.3096 19.2533 40.1396C19.6713 41.9695 20.4555 43.6959 21.5586 45.2147C22.219 46.1181 22.9899 46.9353 23.8534 47.6471C22.4573 48.5028 20.905 49.0723 19.2868 49.3224Z" fill="white"/>
<path d="M45.0571 38.9499C44.8028 40.5669 44.2325 42.1178 43.3786 43.5142C42.5247 44.9107 41.4041 46.1252 40.0807 47.0884C38.7573 48.0517 37.2572 48.7447 35.6659 49.128C34.0746 49.5113 32.4234 49.5774 30.8066 49.3224C29.1822 49.0682 27.6231 48.4991 26.217 47.6471C27.08 46.9348 27.8508 46.1177 28.5118 45.2147C29.6008 43.7363 30.383 42.0549 30.8126 40.2697C31.2422 38.4844 31.3103 36.6313 31.013 34.8193V34.5669L31.2426 34.7046C33.2054 35.7003 35.3752 36.2192 37.5761 36.2191C39.0488 36.2166 40.5122 35.9843 41.9133 35.5306C42.9661 35.1818 43.9749 34.7121 44.9194 34.1309C45.2757 35.7133 45.3225 37.3497 45.0571 38.9499Z" fill="white"/>
<path d="M48.6371 27.9126C47.9063 29.3684 46.8921 30.6634 45.6539 31.7219C44.7419 29.4551 43.2431 27.4719 41.3114 25.9757C39.3797 24.4796 37.0847 23.5244 34.6619 23.2082C36.0179 21.9087 37.097 20.3484 37.8345 18.6211C38.5719 16.8938 38.9524 15.0352 38.9532 13.157C38.946 12.0431 38.8073 10.934 38.5401 9.85254C40.5804 10.0134 42.5493 10.6753 44.2725 11.7795C45.9957 12.8836 47.4198 14.3959 48.4185 16.1823C49.4172 17.9686 49.9597 19.9738 49.9978 22.02C50.036 24.0662 49.5686 26.0903 48.6371 27.9126Z" fill="white"/>
</svg>
