<svg width="50" height="22" viewBox="0 0 50 22" fill="none" xmlns="http://www.w3.org/2000/svg">
<path d="M25.7093 4.33496C25.7662 4.83235 25.6478 5.33397 25.3746 5.75349L24.8646 6.67797C24.7554 6.86569 24.7212 7.0877 24.7689 7.29955V7.65021C24.7862 7.72453 24.7866 7.80177 24.77 7.87625C24.7535 7.95072 24.7204 8.02058 24.6733 8.08059L23.5416 9.57879C23.4248 9.71692 23.3607 9.89202 23.3607 10.0729C23.3607 10.2539 23.4248 10.4289 23.5416 10.567L24.7052 11.8103C24.8088 11.9257 24.9458 12.0061 25.0971 12.0403C25.2484 12.0746 25.4066 12.061 25.5499 12.0015L26.2831 11.7146C26.3088 11.6993 26.3386 11.6923 26.3684 11.6948C26.3982 11.6972 26.4265 11.7089 26.4494 11.7283C26.4722 11.7476 26.4884 11.7735 26.4958 11.8025C26.5031 11.8315 26.5012 11.8621 26.4903 11.8899L26.2034 13.1172C26.1747 13.2349 26.1727 13.3575 26.1976 13.4761C26.2224 13.5947 26.2734 13.7063 26.3469 13.8026L26.6178 14.1373C26.663 14.2052 26.6955 14.2808 26.7135 14.3604L27.08 16.5919C27.1023 16.72 27.1687 16.8364 27.2676 16.9208C27.3666 17.0052 27.4919 17.0523 27.622 17.0541H28.3073C28.3973 17.0533 28.4856 17.0295 28.5638 16.9848C28.6419 16.9402 28.7073 16.8762 28.7536 16.7991L28.9449 16.5122L30.1562 14.5996C30.3142 14.342 30.3815 14.039 30.3475 13.7388L29.9172 10.9177C29.8592 10.539 29.6669 10.1938 29.3752 9.9454L27.9726 8.76594C27.9336 8.7274 27.9026 8.68149 27.8814 8.63087C27.8603 8.58025 27.8494 8.52594 27.8494 8.47108C27.8494 8.41622 27.8603 8.36191 27.8814 8.31129C27.9026 8.26068 27.9336 8.21476 27.9726 8.17622L28.5783 7.52272C28.6144 7.47769 28.6632 7.44456 28.7184 7.42772C28.7736 7.41089 28.8326 7.41109 28.8877 7.42831C28.9428 7.44552 28.9914 7.47896 29.0272 7.52423C29.063 7.5695 29.0843 7.62455 29.0883 7.68212V7.90524C29.1037 8.00376 29.154 8.09347 29.2301 8.15788C29.3062 8.22229 29.403 8.25708 29.5028 8.25589H30.2041C30.359 8.24613 30.512 8.2947 30.6329 8.39204C30.7538 8.48938 30.834 8.62841 30.8575 8.78185L31.0488 10.1208C31.0798 10.3126 31.1513 10.4957 31.2585 10.6578C31.3656 10.8199 31.5061 10.9574 31.6704 11.0611C31.6707 9.40514 31.0644 7.80639 29.966 6.56706C28.8676 5.32774 27.3533 4.53368 25.7093 4.33496Z" fill="white"/>
<path d="M25.5021 16.1457L25.0717 16.0182C25.0266 15.9979 24.9777 15.9875 24.9283 15.9875C24.8788 15.9875 24.83 15.9979 24.7848 16.0182L24.211 16.2732C24.076 16.3366 23.9572 16.4298 23.8633 16.5458C23.7694 16.6617 23.7031 16.7974 23.6691 16.9426V17.0223C23.6594 17.0533 23.6405 17.0806 23.6149 17.1005C23.5892 17.1205 23.5581 17.1321 23.5257 17.1339H22.9519C22.9204 17.138 22.8884 17.1326 22.86 17.1184C22.8316 17.1042 22.8081 17.0818 22.7925 17.0542L22.5056 16.3051L22.3781 15.9863C22.3034 15.7983 22.1614 15.6448 21.9796 15.5559L21.6449 15.3647C21.5805 15.3241 21.5261 15.2696 21.4855 15.2053L20.9914 14.4402C20.9511 14.3748 20.8978 14.3183 20.8347 14.2744C20.7716 14.2305 20.7002 14.2002 20.6248 14.1852L18.8237 13.7549C19.3542 14.9453 20.2168 15.9573 21.308 16.6698C22.3993 17.3822 23.6729 17.7647 24.9761 17.7714C25.5132 17.7738 26.0486 17.7095 26.57 17.5802L25.6615 16.2413C25.6163 16.1978 25.5618 16.1651 25.5021 16.1457Z" fill="white"/>
<path d="M19.286 10.1692C19.4576 9.87987 19.7069 9.64437 20.0055 9.48943C20.3041 9.33449 20.6401 9.26629 20.9755 9.29253C21.3576 9.29745 21.7286 9.165 22.0212 8.91926C22.3137 8.67351 22.5083 8.33083 22.5694 7.95368C22.7288 7.4277 22.2666 6.75828 22.2666 6.12072C22.2666 5.48317 22.7447 5.33974 22.7128 4.94127C22.7206 4.86177 22.7206 4.78165 22.7128 4.70215C21.4068 5.17988 20.2795 6.04799 19.4839 7.1886C18.6883 8.3292 18.2631 9.68702 18.2659 11.0777V11.2371C18.4572 10.7589 19.015 10.5836 19.286 10.1692Z" fill="white"/>
<path d="M0 11.0453C6.63208 17.6726 15.6242 21.3953 25 21.3953C34.3758 21.3953 43.3679 17.6726 50 11.0453C43.3679 4.41805 34.3758 0.695312 25 0.695312C15.6242 0.695312 6.63208 4.41805 0 11.0453ZM24.9602 18.68C23.4537 18.6643 21.9855 18.2032 20.7405 17.3548C19.4955 16.5064 18.5294 15.3086 17.9637 13.9122C17.3981 12.5158 17.2582 10.9833 17.5617 9.50762C17.8652 8.03192 18.5986 6.679 19.6694 5.61923C20.7403 4.55946 22.1007 3.8402 23.5795 3.55202C25.0582 3.26383 26.5892 3.41959 27.9796 3.99971C29.37 4.57983 30.5577 5.55838 31.3932 6.81211C32.2286 8.06584 32.6744 9.53873 32.6745 11.0453C32.6788 12.0566 32.4818 13.0586 32.0948 13.993C31.7079 14.9273 31.1388 15.7752 30.4207 16.4874C29.7027 17.1995 28.85 17.7615 27.9125 18.1407C26.975 18.5199 25.9714 18.7086 24.9602 18.6959V18.68Z" fill="white"/>
</svg>
