<svg width="69" height="22" viewBox="0 0 69 22" fill="none" xmlns="http://www.w3.org/2000/svg">
<path d="M4.76551 2.5948V6.49113C4.76551 7.76862 4.25451 8.72673 2.72153 8.72673H0.549805L0.549805 0.359202L2.72153 0.359202C4.25451 0.359202 4.76551 1.31732 4.76551 2.5948ZM2.52991 7.57698C3.10478 7.57698 3.36027 7.25762 3.36027 6.74663L3.36027 2.33931C3.36027 1.82831 3.16865 1.50893 2.52991 1.50893H1.95505L1.95505 7.57698H2.52991ZM5.65975 0.359202L9.04509 0.359202V1.50893H7.06499V3.93616H8.47021V5.08589H7.06499V7.64086L9.04509 7.64086V8.79059H5.65975L5.65975 0.359202ZM9.74769 6.55499V2.46704C9.74769 1.12568 10.3864 0.231445 11.8556 0.231445C13.3885 0.231445 13.8357 1.1257 13.8357 2.33931V3.36128H12.5582V2.21155C12.5582 1.70056 12.3666 1.38119 11.8556 1.38119C11.3446 1.38119 11.1529 1.76443 11.1529 2.27543V6.8105C11.1529 7.3215 11.3446 7.70474 11.8556 7.70474C12.3666 7.70474 12.5582 7.38536 12.5582 6.87436V5.34138H13.8357V6.8105C13.8357 8.02411 13.3247 8.91835 11.8556 8.91835C10.3864 8.85447 9.74769 7.83248 9.74769 6.55499ZM14.7299 0.359202L18.1152 0.359202V1.50893H16.1351V3.93616H17.5404V5.08589H16.1351V7.64086H18.1152V8.79059L14.7299 8.79059V0.359202ZM20.0953 3.42516V8.72673H18.8817V0.359202L20.2869 0.359202L21.8199 5.14977V0.359202H22.9697V8.72673H21.7561L20.0953 3.42516ZM23.7362 0.359202L27.5047 0.359202V1.50893L26.355 1.50893V8.72673H24.9498V1.50893H23.8V0.359202L23.7362 0.359202ZM32.6786 3.55291L31.9121 8.72673H30.5707L29.421 0.359202L30.7623 0.359202L31.4011 5.66076L32.1037 0.359202H33.2534L34.0199 5.66076L34.6587 0.359202L35.8723 0.359202L34.7864 8.72673H33.5089L32.6786 3.55291ZM36.4471 6.55499V2.46704C36.4471 1.12568 37.0859 0.231445 38.555 0.231445C40.0241 0.231445 40.7267 1.18956 40.7267 2.46704V6.55499C40.7267 7.83248 40.088 8.79059 38.555 8.79059C37.0859 8.85446 36.4471 7.83248 36.4471 6.55499ZM39.2576 6.8105V2.27543C39.2576 1.76443 39.066 1.38119 38.555 1.38119C38.044 1.38119 37.8524 1.76443 37.8524 2.27543V6.8105C37.8524 7.3215 38.044 7.70474 38.555 7.70474C39.066 7.64087 39.2576 7.3215 39.2576 6.8105ZM43.0262 4.89428V8.72673H41.621V0.359202L43.6649 0.359202C45.0702 0.359202 45.5812 1.06181 45.5812 2.21155V3.29742C45.5812 4.19166 45.2618 4.70265 44.4314 4.89428L45.7728 8.72673H44.3037L43.0262 4.89428ZM43.0262 1.50893V4.12778H43.4733C43.9843 4.12778 44.1759 3.87228 44.1759 3.42516V2.21155C44.1759 1.76443 43.9843 1.50893 43.4733 1.50893H43.0262ZM47.8806 4.63876V8.72673H46.4754V0.359202L47.8806 0.359202V4.0639L49.4136 0.359202L50.8189 0.359202L49.1581 4.12778L50.8189 8.72673H49.3497L47.8806 4.63876ZM52.799 8.72673L54.3958 0.359202L55.9927 0.359202L57.5895 8.72673H56.1204L55.8649 7.19373H54.3958L54.1403 8.72673H52.799ZM54.5874 6.04401H55.7372L55.1623 2.65868L54.5874 6.04401ZM59.2502 3.42516V8.72673H58.0366V0.359202L59.4419 0.359202L60.9749 5.14977V0.359202L62.1246 0.359202V8.72673H60.911L59.2502 3.42516ZM67.2984 2.5948V6.49113C67.2984 7.76862 66.7874 8.72673 65.2544 8.72673H63.0827V0.359202L65.2544 0.359202C66.7874 0.359202 67.2984 1.31732 67.2984 2.5948ZM65.0628 7.57698C65.6377 7.57698 65.8932 7.25762 65.8932 6.74663V2.33931C65.8932 1.82831 65.7015 1.50893 65.0628 1.50893H64.4879V7.57698H65.0628Z" fill="#9C203D"/>
<path d="M0.549805 12.687H3.93515V13.8367H1.95505L1.95505 16.2639H3.36027V17.4137H1.95505L1.95505 19.9686H3.93515L3.93515 21.1184H0.549805L0.549805 12.687ZM4.51002 18.8828V14.7948C4.51002 13.4535 5.14875 12.5592 6.61786 12.5592C8.15084 12.5592 8.59796 13.4535 8.59796 14.6671V15.6891H7.32048V14.6032C7.32048 14.0922 7.12885 13.7728 6.61786 13.7728C6.10687 13.7728 5.91524 14.1561 5.91524 14.6671V19.2022C5.91524 19.7132 6.10687 20.0964 6.61786 20.0964C7.12885 20.0964 7.32048 19.777 7.32048 19.266V17.733H8.59796V19.2022C8.59796 20.4158 8.08697 21.31 6.61786 21.31C5.14875 21.1823 4.51002 20.2241 4.51002 18.8828ZM9.36446 18.8828L9.36446 14.7948C9.36446 13.4535 10.0032 12.5592 11.4723 12.5592C12.9414 12.5592 13.644 13.5174 13.644 14.7948L13.644 18.8828C13.644 20.1603 13.0053 21.1184 11.4723 21.1184C10.0671 21.1823 9.36446 20.2241 9.36446 18.8828ZM12.2388 19.1383L12.2388 14.6032C12.2388 14.0922 12.0472 13.709 11.5362 13.709C11.0252 13.709 10.8336 14.0922 10.8336 14.6032L10.8336 19.1383C10.8336 19.6493 11.0252 20.0325 11.5362 20.0325C12.0472 19.9686 12.2388 19.6493 12.2388 19.1383ZM15.688 15.8168L15.688 21.1184H14.4744L14.4744 12.7509H15.8796L17.4126 17.5414V12.7509H18.5624V21.1184H17.3487L15.688 15.8168ZM19.3927 18.8828V14.7948C19.3927 13.4535 20.0315 12.5592 21.5006 12.5592C22.9697 12.5592 23.6723 13.5174 23.6723 14.7948V18.8828C23.6723 20.1603 23.0336 21.1184 21.5006 21.1184C20.0315 21.1823 19.3927 20.2241 19.3927 18.8828ZM22.2032 19.1383V14.6032C22.2032 14.0922 22.0116 13.709 21.5006 13.709C20.9896 13.709 20.798 14.0922 20.798 14.6032V19.1383C20.798 19.6493 20.9896 20.0325 21.5006 20.0325C22.0116 19.9686 22.2032 19.6493 22.2032 19.1383ZM28.3351 15.6252L27.3131 21.0545H26.6744L25.6524 15.6252V21.0545H24.5027V12.687H26.1634L27.0576 17.4137L27.888 12.687H29.6765V21.0545H28.399L28.3351 15.6252ZM30.443 12.687H31.8482V21.0545H30.443V12.687ZM32.6147 18.8828V14.7948C32.6147 13.4535 33.2534 12.5592 34.7225 12.5592C36.2555 12.5592 36.7026 13.4535 36.7026 14.6671V15.6891H35.4252V14.6032C35.4252 14.0922 35.2335 13.7728 34.7225 13.7728C34.2115 13.7728 34.0199 14.1561 34.0199 14.6671V19.2022C34.0199 19.7132 34.2115 20.0964 34.7225 20.0964C35.2335 20.0964 35.4252 19.777 35.4252 19.266V17.733H36.7026V19.2022C36.7026 20.4158 36.1916 21.31 34.7225 21.31C33.2534 21.1823 32.6147 20.2241 32.6147 18.8828ZM41.3016 16.5833H43.2817V21.0545H42.2597V20.1603C42.0681 20.799 41.6848 21.1823 40.9183 21.1823C39.7047 21.1823 39.1299 20.2242 39.1299 18.9467V14.8587C39.1299 13.5173 39.7686 12.6231 41.2377 12.6231C42.7707 12.6231 43.2817 13.5174 43.2817 14.731V15.4974H42.0042V14.6671C42.0042 14.1561 41.8126 13.8367 41.3016 13.8367C40.7906 13.8367 40.599 14.22 40.599 14.731V19.266C40.599 19.777 40.7906 20.1603 41.3016 20.1603C41.7487 20.1603 42.0042 19.9048 42.0042 19.3299V17.8608H41.3655V16.5833H41.3016ZM45.645 17.2221V21.0545H44.2398V12.687H46.2838C47.689 12.687 48.2 13.3896 48.2 14.5393V15.6252C48.2 16.5194 47.8806 17.0304 47.0503 17.2221L48.3916 21.0545H46.9225L45.645 17.2221ZM45.645 13.8367V16.4556H46.0922C46.6032 16.4556 46.7948 16.2001 46.7948 15.753V14.5393C46.7948 14.0922 46.6032 13.8367 46.0922 13.8367H45.645ZM48.8387 18.8828V14.7948C48.8387 13.4535 49.4775 12.5592 50.9466 12.5592C52.4157 12.5592 53.1183 13.5174 53.1183 14.7948V18.8828C53.1183 20.1603 52.4796 21.1184 50.9466 21.1184C49.4775 21.1823 48.8387 20.2241 48.8387 18.8828ZM51.7131 19.1383V14.6032C51.7131 14.0922 51.5215 13.709 51.0105 13.709C50.4995 13.709 50.3078 14.0922 50.3078 14.6032V19.1383C50.3078 19.6493 50.4995 20.0325 51.0105 20.0325C51.5215 19.9686 51.7131 19.6493 51.7131 19.1383ZM56.7592 15.8807L55.9927 21.0545H54.6513L53.5016 12.687H54.8429L55.4817 17.9886L56.1843 12.687H57.334L58.1005 17.9886L58.7393 12.687H59.9529L58.867 21.0545H57.5256L56.7592 15.8807ZM60.4639 12.687H64.2324V13.8367H63.0827V21.0545H61.6136V13.8367H60.4639V12.687ZM67.4262 17.3498H66.0848V21.0545H64.6796V12.687H66.0848V16.2639H67.4262V12.687H68.8314V21.0545H67.4262V17.3498Z" fill="#9C203D"/>
</svg>
