<svg width="26" height="26" viewBox="0 0 26 26" fill="none" xmlns="http://www.w3.org/2000/svg">
<path d="M15.5979 12.4782C15.5987 13.046 15.3982 13.5957 15.032 14.0296C14.6659 14.4635 14.1577 14.7536 13.5979 14.8482V13.9882C13.5966 13.9357 13.5849 13.8839 13.5636 13.8359C13.5423 13.7878 13.5117 13.7445 13.4737 13.7082C13.4356 13.672 13.3907 13.6437 13.3417 13.6248C13.2927 13.6059 13.2404 13.5969 13.1878 13.5982C13.1363 13.5968 13.0849 13.606 13.037 13.6251C12.9891 13.6442 12.9455 13.6729 12.909 13.7094C12.8725 13.7458 12.8438 13.7894 12.8247 13.8373C12.8056 13.8853 12.7965 13.9366 12.7978 13.9882V14.8282C12.3468 14.752 11.927 14.5484 11.5878 14.2416C11.2486 13.9347 11.0041 13.5372 10.8832 13.0961C10.7623 12.6549 10.77 12.1884 10.9054 11.7515C11.0407 11.3146 11.2982 10.9254 11.6473 10.6299C11.9964 10.3344 12.4228 10.1448 12.8761 10.0834C13.3293 10.0221 13.7907 10.0916 14.2059 10.2837C14.621 10.4758 14.9725 10.7826 15.2192 11.1678C15.4658 11.5531 15.5972 12.0008 15.5979 12.4582V12.4782Z" fill="url(#paint0_linear_24_352)"/>
<path d="M13.1878 5.2981C11.7653 5.29612 10.3742 5.71614 9.19052 6.50498C8.00682 7.29382 7.08371 8.41606 6.53798 9.72968C5.99225 11.0433 5.84843 12.4893 6.12473 13.8847C6.40103 15.28 7.08502 16.5621 8.09016 17.5687C9.0953 18.5752 10.3764 19.261 11.7714 19.5392C13.1664 19.8174 14.6126 19.6756 15.927 19.1318C17.2414 18.5879 18.3649 17.6663 19.1554 16.4837C19.9459 15.3011 20.3678 13.9106 20.3678 12.4881C20.3691 11.5444 20.1844 10.6096 19.8241 9.73737C19.4639 8.8651 18.9352 8.07239 18.2684 7.40461C17.6015 6.73682 16.8095 6.20706 15.9378 5.8456C15.066 5.48415 14.1315 5.2981 13.1878 5.2981ZM13.5978 15.6481V16.2181C13.5952 16.3251 13.5508 16.4268 13.4742 16.5016C13.3976 16.5763 13.2948 16.6181 13.1878 16.6181C13.1357 16.6181 13.0842 16.6077 13.0362 16.5875C12.9882 16.5673 12.9448 16.5376 12.9084 16.5004C12.8721 16.4631 12.8436 16.4189 12.8246 16.3704C12.8056 16.322 12.7965 16.2702 12.7978 16.2181V15.6481C11.9928 15.5464 11.2569 15.1417 10.7398 14.5166C10.2226 13.8914 9.96313 13.0926 10.0141 12.2829C10.0651 11.4731 10.4227 10.7132 11.0141 10.1578C11.6056 9.60245 12.3864 9.29328 13.1978 9.29328C14.0091 9.29328 14.79 9.60245 15.3815 10.1578C15.9729 10.7132 16.3305 11.4731 16.3815 12.2829C16.4325 13.0926 16.173 13.8914 15.6558 14.5166C15.1387 15.1417 14.4027 15.5464 13.5978 15.6481Z" fill="url(#paint1_linear_24_352)"/>
<path d="M14.0878 1.348C14.0878 0.850943 13.6849 0.447998 13.1878 0.447998C12.6908 0.447998 12.2878 0.850943 12.2878 1.348V3.798C12.2878 4.29505 12.6908 4.69801 13.1878 4.69801C13.6849 4.69801 14.0878 4.29505 14.0878 3.798V1.348Z" fill="url(#paint2_linear_24_352)"/>
<path d="M14.0878 21.7281C14.0878 21.2311 13.6849 20.8281 13.1878 20.8281C12.6908 20.8281 12.2878 21.2311 12.2878 21.7281V24.1681C12.2878 24.6652 12.6908 25.0681 13.1878 25.0681C13.6849 25.0681 14.0878 24.6652 14.0878 24.1681V21.7281Z" fill="url(#paint3_linear_24_352)"/>
<path d="M4.47793 4.04802C4.30938 4.21839 4.21484 4.44837 4.21484 4.68802C4.21484 4.92767 4.30938 5.15765 4.47793 5.32802L6.20793 7.04802C6.3783 7.21657 6.60827 7.31111 6.84793 7.31111C7.08758 7.31111 7.31756 7.21657 7.48793 7.04802C7.65586 6.87935 7.75014 6.65104 7.75014 6.41302C7.75014 6.17501 7.65586 5.94668 7.48793 5.77802L5.73793 4.04802C5.56848 3.88545 5.34275 3.79468 5.10793 3.79468C4.8731 3.79468 4.64738 3.88545 4.47793 4.04802Z" fill="url(#paint4_linear_24_352)"/>
<path d="M18.898 18.468C18.73 18.6367 18.6357 18.865 18.6357 19.103C18.6357 19.341 18.73 19.5694 18.898 19.738L20.628 21.468C20.7966 21.6359 21.0249 21.7302 21.263 21.7302C21.501 21.7302 21.7293 21.6359 21.898 21.468C22.0659 21.2993 22.1602 21.071 22.1602 20.833C22.1602 20.595 22.0659 20.3667 21.898 20.198L20.168 18.468C19.9993 18.3001 19.771 18.2058 19.533 18.2058C19.2949 18.2058 19.0666 18.3001 18.898 18.468Z" fill="url(#paint5_linear_24_352)"/>
<path d="M0.87793 12.7582C0.87793 12.9969 0.972751 13.2258 1.14153 13.3946C1.31032 13.5633 1.53924 13.6582 1.77793 13.6582H4.21793C4.45663 13.6582 4.68555 13.5633 4.85433 13.3946C5.02311 13.2258 5.11793 12.9969 5.11793 12.7582C5.11793 12.5195 5.02311 12.2905 4.85433 12.1218C4.68555 11.953 4.45663 11.8582 4.21793 11.8582H1.73793C1.50624 11.8685 1.28747 11.9678 1.12724 12.1355C0.967014 12.3032 0.877701 12.5262 0.87793 12.7582Z" fill="url(#paint6_linear_24_352)"/>
<path d="M21.2681 12.7582C21.2681 12.8764 21.2913 12.9934 21.3366 13.1026C21.3818 13.2118 21.4481 13.311 21.5317 13.3946C21.6152 13.4781 21.7145 13.5444 21.8237 13.5896C21.9328 13.6349 22.0499 13.6582 22.1681 13.6582H24.6081C24.8468 13.6582 25.0757 13.5633 25.2445 13.3946C25.4132 13.2258 25.5081 12.9969 25.5081 12.7582C25.5055 12.5203 25.4098 12.2929 25.2416 12.1246C25.0734 11.9564 24.846 11.8608 24.6081 11.8582H22.1681C22.0499 11.8582 21.9328 11.8814 21.8237 11.9267C21.7145 11.9719 21.6152 12.0382 21.5317 12.1218C21.4481 12.2053 21.3818 12.3045 21.3366 12.4137C21.2913 12.5229 21.2681 12.64 21.2681 12.7582Z" fill="url(#paint7_linear_24_352)"/>
<path d="M4.47803 21.4682C4.6484 21.6367 4.87838 21.7312 5.11803 21.7312C5.35768 21.7312 5.58766 21.6367 5.75803 21.4682L7.48803 19.7382C7.65596 19.5695 7.75024 19.3412 7.75024 19.1032C7.75024 18.8652 7.65596 18.6368 7.48803 18.4682C7.31766 18.2996 7.08768 18.2051 6.84803 18.2051C6.60838 18.2051 6.3784 18.2996 6.20803 18.4682L4.47803 20.1982C4.3101 20.3668 4.21582 20.5951 4.21582 20.8332C4.21582 21.0712 4.3101 21.2995 4.47803 21.4682Z" fill="url(#paint8_linear_24_352)"/>
<path d="M18.898 7.0481C19.0666 7.21603 19.2949 7.3103 19.533 7.3103C19.771 7.3103 19.9993 7.21603 20.168 7.0481L21.898 5.32809C22.0665 5.15773 22.161 4.92775 22.161 4.6881C22.161 4.44844 22.0665 4.21846 21.898 4.0481C21.7293 3.88017 21.501 3.78589 21.263 3.78589C21.0249 3.78589 20.7966 3.88017 20.628 4.0481L18.898 5.77809C18.73 5.94676 18.6357 6.17509 18.6357 6.4131C18.6357 6.65111 18.73 6.87943 18.898 7.0481Z" fill="url(#paint9_linear_24_352)"/>
<defs>
<linearGradient id="paint0_linear_24_352" x1="25.1779" y1="24.4682" x2="2.49788" y2="1.78817" gradientUnits="userSpaceOnUse">
<stop stop-color="#FF9700"/>
<stop offset="1" stop-color="#FFC635"/>
</linearGradient>
<linearGradient id="paint1_linear_24_352" x1="25.1778" y1="24.4681" x2="2.48779" y2="1.78811" gradientUnits="userSpaceOnUse">
<stop stop-color="#FF9700"/>
<stop offset="1" stop-color="#FFC635"/>
</linearGradient>
<linearGradient id="paint2_linear_24_352" x1="30.1378" y1="19.508" x2="7.45776" y2="-3.17191" gradientUnits="userSpaceOnUse">
<stop stop-color="#FF9700"/>
<stop offset="1" stop-color="#FFC635"/>
</linearGradient>
<linearGradient id="paint3_linear_24_352" x1="19.9378" y1="29.7081" x2="-2.74221" y2="7.01819" gradientUnits="userSpaceOnUse">
<stop stop-color="#FF9700"/>
<stop offset="1" stop-color="#FFC635"/>
</linearGradient>
<linearGradient id="paint4_linear_24_352" x1="25.0379" y1="24.6081" x2="2.35787" y2="1.92807" gradientUnits="userSpaceOnUse">
<stop stop-color="#FF9700"/>
<stop offset="1" stop-color="#FFC635"/>
</linearGradient>
<linearGradient id="paint5_linear_24_352" x1="25.038" y1="24.608" x2="2.3579" y2="1.92804" gradientUnits="userSpaceOnUse">
<stop stop-color="#FF9700"/>
<stop offset="1" stop-color="#FFC635"/>
</linearGradient>
<linearGradient id="paint6_linear_24_352" x1="19.9379" y1="29.7082" x2="-2.7421" y2="7.01818" gradientUnits="userSpaceOnUse">
<stop stop-color="#FF9700"/>
<stop offset="1" stop-color="#FFC635"/>
</linearGradient>
<linearGradient id="paint7_linear_24_352" x1="30.1381" y1="19.5082" x2="7.45802" y2="-3.17182" gradientUnits="userSpaceOnUse">
<stop stop-color="#FF9700"/>
<stop offset="1" stop-color="#FFC635"/>
</linearGradient>
<linearGradient id="paint8_linear_24_352" x1="17.828" y1="31.8182" x2="-4.85198" y2="9.13818" gradientUnits="userSpaceOnUse">
<stop stop-color="#FF9700"/>
<stop offset="1" stop-color="#FFC635"/>
</linearGradient>
<linearGradient id="paint9_linear_24_352" x1="32.2479" y1="17.3981" x2="9.56799" y2="-5.28191" gradientUnits="userSpaceOnUse">
<stop stop-color="#FF9700"/>
<stop offset="1" stop-color="#FFC635"/>
</linearGradient>
</defs>
</svg>
