<svg width="50" height="32" viewBox="0 0 50 32" fill="none" xmlns="http://www.w3.org/2000/svg">
<path d="M17.368 31.3123H22.7175V21.9863H27.3894V31.3658H32.7389V0.695312H17.5107L17.368 31.3123ZM25.5884 9.66465H28.1027V12.1789H25.5884V9.66465ZM21.0949 5.15323H23.627V7.721H21.0949V5.15323Z" fill="white"/>
<path d="M0 22.0394V31.3118H5.22467V28.3874L7.59626 26.9252L10.0214 28.3874V31.3118H15.2461V22.0394L7.54277 17.3496L0 22.0394Z" fill="white"/>
<path d="M46.2732 13.8192V11.2871H38.4273V13.8727H34.7718V31.3656H39.8895V25.5525H44.8467V31.2408H50V13.7479L46.2732 13.8192ZM46.2732 21.2907H38.4273V19.5075H46.3445L46.2732 21.2907Z" fill="white"/>
</svg>
