<svg width="50" height="55" viewBox="0 0 50 55" fill="none" xmlns="http://www.w3.org/2000/svg">
<path d="M48.4019 3.58601C47.2407 4.65238 46.2217 9.72358 46.0322 9.98424C48.8047 9.03636 48.5677 3.56232 48.4019 3.58601Z" fill="white"/>
<path d="M45.5345 13.113C48.3307 13.6106 50.1554 8.75273 49.9895 8.68164C48.4966 8.89491 45.653 13.2789 45.5345 13.113Z" fill="white"/>
<path d="M44.2076 16.6671C44.3734 16.359 44.5156 16.0273 44.6578 15.7192C45.2836 14.2076 45.6751 12.6095 45.8189 10.9798C45.8754 10.1909 45.8754 9.39901 45.8189 8.61012C45.7724 7.93277 45.6773 7.25962 45.5346 6.59585C45.6532 5.4798 45.4848 4.35195 45.0451 3.31929C44.6055 2.28662 43.9094 1.38342 43.0227 0.695312C43.4387 2.74816 44.243 4.70264 45.3924 6.45368C45.5337 7.15762 45.6286 7.87011 45.6768 8.58647C45.7123 9.16255 45.7123 9.74022 45.6768 10.3163C45.4161 9.27363 44.255 6.09823 42.8805 6.09823C43.1857 7.90831 44.1792 9.53019 45.653 10.6244C45.6648 10.7505 45.6648 10.8774 45.653 11.0035C45.5719 11.9409 45.4054 12.8689 45.1554 13.7761C44.9422 12.8993 43.6151 9.58168 42.0511 9.48689C42.1368 10.432 42.4626 11.3397 42.9976 12.1235C43.5326 12.9074 44.2591 13.5415 45.1081 13.9657C44.9185 14.5818 44.7289 15.1742 44.4919 15.7429C44.2549 16.3117 44.1602 16.4539 43.9943 16.8093C43.9943 15.8615 42.7621 12.3069 40.9848 12.4017C41.1033 12.4017 41.2454 15.9562 43.8995 16.9989L43.3545 17.9468C43.2123 18.1837 43.0227 18.397 42.8805 18.634C42.314 17.6854 41.434 16.9645 40.3924 16.596C40.3924 16.596 40.6293 13.4918 36.9326 13.397C33.2358 13.3022 27.4537 21.3591 27.4537 21.3591C27.4537 21.3591 28.994 13.9183 20.3446 13.0889C9.3255 12.0462 0.368023 1.24036 0.723479 1.45364C1.07893 1.66691 -5.98277 23.2549 17.6195 29.3925C13.1553 33.5776 7.88084 36.8036 2.1216 38.8713C8.26422 40.7178 14.7442 41.1551 21.0792 40.1509V43.1367H23.2831V39.6295C23.915 39.4874 24.5548 39.3215 25.2026 39.1319V44.5111H27.4064V38.3973C29.7048 37.4783 31.74 36.0048 33.3306 34.1082C34.4941 32.5717 35.2078 30.7421 35.3923 28.8237C35.7477 25.6009 36.7904 19.1553 39.4919 19.2264C40.4041 19.2251 41.3125 19.3446 42.1933 19.5819L41.98 19.8662L41.5298 20.3165L41.2692 20.5772H41.3876L41.6246 20.3639L42.0511 19.9137L42.3355 19.5819C42.9162 19.7186 43.4438 20.0236 43.8521 20.4586C43.6663 19.8246 43.3953 19.2188 43.0464 18.6577C43.2335 18.4226 43.4076 18.1773 43.5678 17.923C43.8047 17.5439 44.018 17.141 44.2313 16.7382C46.9564 17.9941 49.9896 13.3021 49.8237 13.1836C48.3782 12.923 44.9422 16.2405 44.2076 16.6671ZM37.9279 16.6671C37.7704 16.6375 37.6282 16.5538 37.5259 16.4305C37.4236 16.3072 37.3677 16.152 37.3677 15.9918C37.3677 15.8316 37.4236 15.6764 37.5259 15.553C37.6282 15.4297 37.7704 15.346 37.9279 15.3164C38.0853 15.346 38.2274 15.4297 38.3297 15.553C38.432 15.6764 38.488 15.8316 38.488 15.9918C38.488 16.152 38.432 16.3072 38.3297 16.4305C38.2274 16.5538 38.0853 16.6375 37.9279 16.6671Z" fill="white"/>
<path d="M43.1885 41.7625H43.7572V40.3643H43.544C43.1964 40.2402 42.906 39.9938 42.7271 39.671C42.5483 39.3481 42.4933 38.9712 42.5724 38.6107C42.7315 38.5878 42.8768 38.5078 42.9814 38.3858C43.086 38.2638 43.1427 38.1079 43.1411 37.9472C43.1411 37.8569 43.1233 37.7676 43.0888 37.6842C43.0543 37.6009 43.0036 37.5251 42.9398 37.4613C42.876 37.3975 42.8003 37.3468 42.7169 37.3123C42.6335 37.2778 42.5442 37.26 42.4539 37.26V35.8145C42.4539 35.6259 42.379 35.4451 42.2457 35.3118C42.1123 35.1785 41.9315 35.1035 41.743 35.1035H35.7951C35.6043 35.1034 35.4209 35.1776 35.2838 35.3103C35.1467 35.443 35.0666 35.6238 35.0605 35.8145V37.26C34.9702 37.26 34.8808 37.2778 34.7974 37.3123C34.7141 37.3468 34.6383 37.3975 34.5745 37.4613C34.5107 37.5251 34.4601 37.6009 34.4255 37.6842C34.391 37.7676 34.3732 37.8569 34.3732 37.9472C34.3728 38.1153 34.4361 38.2772 34.5505 38.4004C34.6648 38.5236 34.8217 38.5987 34.9893 38.6107C35.0684 38.9712 35.0135 39.3481 34.8346 39.671C34.6558 39.9938 34.3654 40.2402 34.0178 40.3643H33.8282V41.7625H34.3732C34.6243 42.3743 34.8148 43.0092 34.9419 43.6582L31.4822 43.4686C31.4526 43.0725 31.2755 42.7018 30.9859 42.4298C30.6964 42.1578 30.3154 42.0042 29.9182 41.9994C29.5489 41.9998 29.1916 42.1309 28.9097 42.3695C28.6278 42.608 28.4394 42.9386 28.3779 43.3027L14.918 42.5681C14.2895 42.5681 13.6867 42.8178 13.2423 43.2622C12.7979 43.7066 12.5483 44.3094 12.5483 44.9378C12.5483 45.5663 12.7979 46.169 13.2423 46.6134C13.6867 47.0578 14.2895 47.3075 14.918 47.3075L28.3779 46.5966C28.4409 46.9762 28.6416 47.3193 28.9416 47.5602C29.2416 47.8011 29.62 47.9229 30.0042 47.9024C30.3885 47.8818 30.7517 47.7204 31.0243 47.4489C31.297 47.1774 31.46 46.8149 31.4822 46.4308L34.9419 46.2412C34.8327 46.9097 34.6417 47.5623 34.3732 48.1843H33.8282V49.6062H34.0178C34.3635 49.7255 34.6534 49.9674 34.8325 50.2863C35.0116 50.6052 35.0674 50.9787 34.9893 51.336C34.807 51.336 34.6323 51.4085 34.5034 51.5373C34.3745 51.6662 34.3021 51.841 34.3021 52.0232C34.3021 52.2055 34.3745 52.3803 34.5034 52.5091C34.6323 52.638 34.807 52.7105 34.9893 52.7105V53.9664C34.9955 54.1571 35.0756 54.3379 35.2127 54.4706C35.3498 54.6033 35.5332 54.6774 35.724 54.6773H41.8378C42.0263 54.6773 42.2071 54.6024 42.3405 54.4691C42.4738 54.3358 42.5487 54.155 42.5487 53.9664V52.7105C42.7309 52.7105 42.9058 52.638 43.0346 52.5091C43.1635 52.3803 43.2359 52.2055 43.2359 52.0232C43.2338 51.861 43.1762 51.7044 43.0728 51.5794C42.9693 51.4543 42.8262 51.3684 42.6672 51.336C42.5891 50.9787 42.645 50.6052 42.8241 50.2863C43.0031 49.9674 43.2931 49.7255 43.6388 49.6062H43.852V48.1843H43.307C42.8424 47.1808 42.5918 46.0915 42.5714 44.9859C42.551 43.8802 42.7612 42.7824 43.1885 41.7625Z" fill="white"/>
</svg>
