<svg width="50" height="50" viewBox="0 0 50 50" fill="none" xmlns="http://www.w3.org/2000/svg">
<path d="M29.8822 24.4221C29.8839 25.5747 29.4769 26.6906 28.7336 27.5715C27.9902 28.4523 26.9586 29.0412 25.8221 29.2333V27.4874C25.8195 27.3808 25.7959 27.2757 25.7526 27.1782C25.7094 27.0807 25.6473 26.9926 25.57 26.9191C25.4927 26.8456 25.4017 26.788 25.3021 26.7497C25.2026 26.7113 25.0964 26.693 24.9898 26.6957C24.8851 26.6929 24.7809 26.7115 24.6836 26.7503C24.5862 26.7891 24.4978 26.8473 24.4238 26.9214C24.3497 26.9954 24.2915 27.0838 24.2527 27.1812C24.2139 27.2785 24.1953 27.3827 24.1981 27.4874V29.1926C23.2825 29.0379 22.4302 28.6247 21.7416 28.0017C21.0529 27.3788 20.5567 26.572 20.3113 25.6764C20.0658 24.7808 20.0814 23.8338 20.3563 22.9468C20.6311 22.0598 21.1536 21.2698 21.8624 20.6699C22.5712 20.07 23.4366 19.6851 24.3568 19.5606C25.2771 19.4361 26.2137 19.5771 27.0564 19.9672C27.8991 20.3572 28.6128 20.9799 29.1135 21.7619C29.6141 22.544 29.8808 23.4529 29.8822 24.3815V24.4221Z" fill="white"/>
<path d="M24.9898 9.84572C22.1021 9.8417 19.2782 10.6943 16.8752 12.2957C14.4722 13.8971 12.5983 16.1753 11.4904 18.842C10.3826 21.5087 10.0906 24.4441 10.6515 27.2768C11.2124 30.1095 12.6009 32.7122 14.6414 34.7555C16.6819 36.7988 19.2826 38.1909 22.1145 38.7558C24.9464 39.3206 27.8822 39.0328 30.5505 37.9286C33.2187 36.8245 35.4995 34.9537 37.1043 32.553C38.709 30.1522 39.5655 27.3294 39.5655 24.4417C39.5682 22.5259 39.1932 20.6284 38.4619 18.8576C37.7306 17.0869 36.6573 15.4776 35.3036 14.122C33.9498 12.7664 32.3421 11.6909 30.5724 10.9572C28.8027 10.2234 26.9056 9.84572 24.9898 9.84572ZM25.8221 30.8567V32.0138C25.8168 32.231 25.7268 32.4375 25.5713 32.5893C25.4158 32.741 25.2071 32.8259 24.9898 32.8258C24.8841 32.8259 24.7795 32.8047 24.6821 32.7637C24.5847 32.7226 24.4965 32.6625 24.4227 32.5868C24.3489 32.5111 24.291 32.4214 24.2525 32.323C24.2139 32.2246 24.1954 32.1195 24.1981 32.0138V30.8567C22.564 30.6502 21.0701 29.8287 20.0202 28.5596C18.9704 27.2905 18.4436 25.669 18.5471 24.0251C18.6505 22.3813 19.3765 20.8387 20.5772 19.7112C21.7779 18.5837 23.363 17.9561 25.0101 17.9561C26.6572 17.9561 28.2424 18.5837 29.4431 19.7112C30.6438 20.8387 31.3697 22.3813 31.4732 24.0251C31.5766 25.669 31.0499 27.2905 30 28.5596C28.9502 29.8287 27.4562 30.6502 25.8221 30.8567Z" fill="white"/>
<path d="M26.8168 1.82704C26.8168 0.817996 25.9988 0 24.9898 0C23.9807 0 23.1628 0.817996 23.1628 1.82704V6.80064C23.1628 7.80969 23.9807 8.6277 24.9898 8.6277C25.9988 8.6277 26.8168 7.80969 26.8168 6.80064V1.82704Z" fill="white"/>
<path d="M26.8168 43.1991C26.8168 42.1901 25.9988 41.3721 24.9898 41.3721C23.9807 41.3721 23.1628 42.1901 23.1628 43.1991V48.1524C23.1628 49.1615 23.9807 49.9795 24.9898 49.9795C25.9988 49.9795 26.8168 49.1615 26.8168 48.1524V43.1991Z" fill="white"/>
<path d="M7.30815 7.30824C6.96599 7.6541 6.77408 8.12096 6.77408 8.60747C6.77408 9.09397 6.96599 9.56084 7.30815 9.90669L10.8201 13.3984C11.166 13.7405 11.6328 13.9325 12.1194 13.9325C12.6059 13.9325 13.0727 13.7405 13.4186 13.3984C13.7595 13.056 13.9509 12.5925 13.9509 12.1093C13.9509 11.6261 13.7595 11.1626 13.4186 10.8202L9.866 7.30824C9.52202 6.97822 9.06377 6.79395 8.58707 6.79395C8.11038 6.79395 7.65214 6.97822 7.30815 7.30824Z" fill="white"/>
<path d="M36.5814 36.5811C36.2405 36.9235 36.0491 37.387 36.0491 37.8702C36.0491 38.3534 36.2405 38.8169 36.5814 39.1593L40.0934 42.6713C40.4358 43.0122 40.8993 43.2036 41.3825 43.2036C41.8657 43.2036 42.3292 43.0122 42.6716 42.6713C43.0125 42.3288 43.2039 41.8654 43.2039 41.3822C43.2039 40.899 43.0125 40.4355 42.6716 40.0931L39.1596 36.5811C38.8172 36.2402 38.3537 36.0488 37.8705 36.0488C37.3873 36.0488 36.9238 36.2402 36.5814 36.5811Z" fill="white"/>
<path d="M8.93078e-07 24.9901C8.93078e-07 25.4747 0.192491 25.9394 0.535127 26.2821C0.877763 26.6247 1.34248 26.8172 1.82704 26.8172H6.78035C7.26491 26.8172 7.72963 26.6247 8.07226 26.2821C8.4149 25.9394 8.60739 25.4747 8.60739 24.9901C8.60739 24.5056 8.4149 24.0409 8.07226 23.6982C7.72963 23.3556 7.26491 23.1631 6.78035 23.1631H1.74584C1.27549 23.184 0.831376 23.3857 0.50611 23.7261C0.180844 24.0665 -0.000464329 24.5193 8.93078e-07 24.9901Z" fill="white"/>
<path d="M41.3926 24.9901C41.3926 25.2301 41.4399 25.4676 41.5317 25.6893C41.6235 25.911 41.7581 26.1124 41.9278 26.2821C42.0974 26.4517 42.2988 26.5863 42.5205 26.6781C42.7422 26.7699 42.9798 26.8172 43.2197 26.8172H48.173C48.6576 26.8172 49.1223 26.6247 49.4649 26.2821C49.8075 25.9394 50 25.4747 50 24.9901C49.9947 24.5072 49.8006 24.0455 49.4591 23.7041C49.1176 23.3626 48.6559 23.1684 48.173 23.1631H43.2197C42.9798 23.1631 42.7422 23.2104 42.5205 23.3022C42.2988 23.394 42.0974 23.5286 41.9278 23.6982C41.7581 23.8679 41.6235 24.0693 41.5317 24.291C41.4399 24.5126 41.3926 24.7502 41.3926 24.9901Z" fill="white"/>
<path d="M7.30812 42.6711C7.65397 43.0132 8.12084 43.2052 8.60734 43.2052C9.09385 43.2052 9.56072 43.0132 9.90657 42.6711L13.4185 39.1591C13.7595 38.8167 13.9508 38.3532 13.9508 37.87C13.9508 37.3869 13.7595 36.9233 13.4185 36.5809C13.0727 36.2388 12.6058 36.0469 12.1193 36.0469C11.6328 36.0469 11.1659 36.2388 10.8201 36.5809L7.30812 40.0929C6.96721 40.4353 6.77582 40.8988 6.77582 41.382C6.77582 41.8652 6.96721 42.3287 7.30812 42.6711Z" fill="white"/>
<path d="M36.5814 13.3988C36.9238 13.7397 37.3873 13.9311 37.8705 13.9311C38.3537 13.9311 38.8172 13.7397 39.1596 13.3988L42.6716 9.90711C43.0137 9.56126 43.2056 9.09439 43.2056 8.60789C43.2056 8.12138 43.0137 7.65451 42.6716 7.30866C42.3292 6.96775 41.8657 6.77637 41.3825 6.77637C40.8993 6.77637 40.4358 6.96775 40.0934 7.30866L36.5814 10.8206C36.2405 11.163 36.0491 11.6265 36.0491 12.1097C36.0491 12.5929 36.2405 13.0564 36.5814 13.3988Z" fill="white"/>
</svg>
