<svg width="76" height="30" viewBox="0 0 76 30" fill="none" xmlns="http://www.w3.org/2000/svg">
<path d="M0.0415039 1.06163H2.9686C4.92 1.06163 5.6296 2.0373 5.6296 3.63391V6.1175C5.6296 7.7141 4.92 8.7785 2.9686 8.7785H1.99292V12.77H0.0415039V1.06163ZM2.0816 2.65823V7.27065H2.79119C3.50079 7.27065 3.76692 6.91581 3.76692 6.29491V3.63391C3.76692 3.013 3.50079 2.65823 2.79119 2.65823H2.0816ZM5.89569 12.77L8.1132 1.15031H10.3307L12.5482 12.77H10.5081L10.1533 10.6412H8.1132L7.75843 12.77H5.89569ZM8.37934 9.04465H9.97593L9.17761 4.3435L8.37934 9.04465ZM15.564 7.35932V12.6813H13.6126V1.06163H16.451C18.4024 1.06163 19.112 2.0373 19.112 3.63391V5.14182C19.112 6.38362 18.6685 7.09322 17.5154 7.35932L19.3781 12.6813H17.338L15.564 7.35932ZM15.564 2.65823V6.29491H16.1849C16.8945 6.29491 17.1606 5.94013 17.1606 5.31923V3.63391C17.1606 3.013 16.8945 2.65823 16.1849 2.65823H15.564ZM19.8216 1.06163H25.055V2.65823H23.4584V12.6813H21.507V2.65823H19.9104V1.06163H19.8216ZM27.8934 5.40791V12.77H26.2081V1.15031H28.1595L30.2882 7.80282V1.15031H31.8849V12.77H30.1996L27.8934 5.40791ZM33.5702 1.06163H38.2713V2.65823H35.5216V6.02882H37.473V7.62541H35.5216V11.1734H38.2713V12.77H33.5702V1.06163ZM41.4645 7.35932V12.6813H39.5131V1.06163H42.3515C44.3029 1.06163 45.0125 2.0373 45.0125 3.63391V5.14182C45.0125 6.38362 44.569 7.09322 43.4159 7.35932L45.2786 12.6813H43.2385L41.4645 7.35932ZM41.4645 2.65823V6.29491H42.0854C42.795 6.29491 43.0611 5.94013 43.0611 5.31923V3.63391C43.0611 3.013 42.795 2.65823 42.0854 2.65823H41.4645ZM45.9882 10.1977V8.68983H47.8509V10.2864C47.8509 10.9073 48.117 11.3508 48.8266 11.3508C49.4475 11.3508 49.7136 10.9073 49.7136 10.2864V9.84292C49.7136 9.13332 49.4475 8.77855 48.8266 8.15765L47.6735 7.0045C46.5204 5.9401 46.0769 5.2305 46.0769 3.9V3.54523C46.0769 2.12602 46.9639 0.9729 48.8266 0.9729C50.778 0.9729 51.5763 1.9486 51.5763 3.63391V4.60964H49.8023V3.63391C49.8023 2.9243 49.5362 2.65823 48.9153 2.65823C48.3831 2.65823 48.0283 2.9243 48.0283 3.63391V3.9C48.0283 4.5209 48.3831 4.96444 48.9153 5.49664L50.1571 6.73841C51.2215 7.80281 51.7537 8.51244 51.7537 9.75424V10.2864C51.7537 11.883 50.8667 13.0362 48.9153 13.0362C46.7865 12.8588 45.9882 11.7943 45.9882 10.1977ZM56.7209 7.62541H54.8582V12.77H52.8181V1.15031H54.7695V6.1175H56.6322V1.15031H58.5836V12.77H56.6322V7.62541H56.7209ZM60.0028 1.06163H61.9542V12.6813H60.0028V1.06163ZM63.196 1.06163H66.1231C68.0745 1.06163 68.7841 2.0373 68.7841 3.63391V6.1175C68.7841 7.7141 68.0745 8.7785 66.1231 8.7785H65.2361V12.77H63.2847L63.196 1.06163ZM65.2361 2.65823V7.27065H65.9457C66.6553 7.27065 66.9215 6.91581 66.9215 6.29491V3.63391C66.9215 3.013 66.6553 2.65823 65.9457 2.65823H65.2361ZM69.5825 10.1977V8.68983H71.4451V10.2864C71.4451 10.9073 71.7112 11.3508 72.4208 11.3508C73.0417 11.3508 73.3078 10.9073 73.3078 10.2864V9.84292C73.3078 9.13332 73.0417 8.77855 72.4208 8.15765L71.2677 7.0045C70.1146 5.9401 69.6711 5.2305 69.6711 3.9V3.54523C69.6711 2.12602 70.5581 0.9729 72.4208 0.9729C74.3722 0.9729 75.1706 1.9486 75.1706 3.63391V4.60964H73.3966V3.63391C73.3966 2.9243 73.1305 2.65823 72.5096 2.65823C71.9773 2.65823 71.6225 2.9243 71.6225 3.63391V3.9C71.6225 4.5209 71.9773 4.96444 72.5096 5.49664L73.7513 6.73841C74.8157 7.80281 75.348 8.51244 75.348 9.75424V10.2864C75.348 11.883 74.461 13.0362 72.5096 13.0362C70.3807 12.8588 69.5825 11.7943 69.5825 10.1977Z" fill="#28567B"/>
<path d="M0.0415039 18.0035H4.65392V19.6001H1.99292V22.9707H3.94433V24.5673H1.99292V29.7119H0.0415039V18.0035ZM5.36351 26.6961V21.0193C5.36351 19.1566 6.25051 17.9148 8.29061 17.9148C10.3307 17.9148 11.3064 19.2453 11.3064 21.0193V26.6961C11.3064 28.4701 10.4194 29.8006 8.29061 29.8006C6.25051 29.8006 5.36351 28.4701 5.36351 26.6961ZM9.35502 26.9622V20.6645C9.35502 19.9549 9.08894 19.4227 8.37934 19.4227C7.66974 19.4227 7.40361 19.9549 7.40361 20.6645V26.9622C7.40361 27.6718 7.66974 28.204 8.37934 28.204C9.00024 28.204 9.35502 27.6718 9.35502 26.9622ZM14.4996 24.3012V29.6232H12.5482V18.0035H15.3866C17.338 18.0035 18.0476 18.9792 18.0476 20.5758V22.0837C18.0476 23.3255 17.6041 24.0351 16.451 24.3012L18.3137 29.6232H16.2736L14.4996 24.3012ZM14.4996 19.6001V23.2368H15.1205C15.8301 23.2368 16.0962 22.882 16.0962 22.2611V20.5758C16.0962 19.9549 15.8301 19.6001 15.1205 19.6001H14.4996ZM21.2409 18.0035H26.4741V19.6001H24.8776V29.6232H22.9261V19.6001H21.3295V18.0035H21.2409ZM31.1752 24.5673H29.3126V29.7119H27.3611V18.0922H29.3126V23.0594H31.1752V18.0922H33.1267V29.7119H31.1752V24.5673ZM34.4572 18.0035H39.1583V19.6001H36.4086V22.9707H38.36V24.5673H36.4086V28.1153H39.1583V29.7119H34.4572V18.0035ZM45.456 23.5029H48.2057V29.7119H46.7865V28.4701C46.5204 29.3571 45.9882 29.8893 44.9238 29.8893C43.2385 29.8893 42.4402 28.5588 42.4402 26.7848V21.108C42.4402 19.2453 43.3272 18.0035 45.3673 18.0035C47.4961 18.0035 48.2057 19.2453 48.2057 20.9306V21.995H46.4317V20.8419C46.4317 20.1323 46.1656 19.6888 45.456 19.6888C44.7464 19.6888 44.4803 20.221 44.4803 20.9306V27.2283C44.4803 27.9379 44.7464 28.4701 45.456 28.4701C46.0769 28.4701 46.4317 28.1153 46.4317 27.317V25.2769H45.5447V23.5029H45.456ZM49.2701 26.6961V21.0193C49.2701 19.1566 50.1571 17.9148 52.1972 17.9148C54.2373 17.9148 55.213 19.2453 55.213 21.0193V26.6961C55.213 28.4701 54.326 29.8006 52.1972 29.8006C50.2458 29.8006 49.2701 28.4701 49.2701 26.6961ZM53.2616 26.9622V20.6645C53.2616 19.9549 52.9955 19.4227 52.2859 19.4227C51.5763 19.4227 51.3102 19.9549 51.3102 20.6645V26.9622C51.3102 27.6718 51.5763 28.204 52.2859 28.204C52.9955 28.204 53.2616 27.6718 53.2616 26.9622ZM55.8339 29.7119L58.0514 18.0922H60.2689L62.4865 29.7119H60.4463L60.0915 27.5831H58.0514L57.6966 29.7119H55.8339ZM58.2288 25.9865H59.8254L59.0271 21.2854L58.2288 25.9865ZM63.4621 18.0035H65.4135V28.0266H67.7197V29.6232H63.4621V18.0035ZM68.4293 27.1396V25.543H70.2921V27.1396C70.2921 27.7605 70.5581 28.204 71.2677 28.204C71.8886 28.204 72.1547 27.7605 72.1547 27.1396V26.6961C72.1547 25.9865 71.8886 25.6317 71.2677 25.0108L70.1146 23.8577C68.9615 22.7933 68.5181 22.0837 68.5181 20.7532V20.3984C68.5181 18.9792 69.405 17.8261 71.2677 17.8261C73.2191 17.8261 74.0175 18.8018 74.0175 20.4871V21.4628H72.2435V20.4871C72.2435 19.7775 71.9774 19.5114 71.3565 19.5114C70.8243 19.5114 70.4695 19.7775 70.4695 20.4871V20.7532C70.4695 21.3741 70.8243 21.8176 71.3565 22.3498L72.5982 23.5916C73.6626 24.656 74.1948 25.3656 74.1948 26.6074V27.1396C74.1948 28.7362 73.3079 29.8893 71.3565 29.8893C69.2277 29.8006 68.4293 28.7362 68.4293 27.1396Z" fill="#28567B"/>
</svg>
