<svg width="23" height="22" viewBox="0 0 23 22" fill="none" xmlns="http://www.w3.org/2000/svg">
<path d="M16.6578 5.47806C16.6571 6.31624 16.4616 7.14279 16.0867 7.89249C15.7119 8.64218 15.1679 9.29453 14.4979 9.79807C13.5334 9.81272 12.5866 10.0597 11.7379 10.5181C11.9113 9.56823 11.853 8.59054 11.5679 7.66806C11.6517 7.43288 11.7485 7.20253 11.8578 6.97806C12.1793 6.34214 12.6243 5.77673 13.1669 5.31485C13.7095 4.85297 14.3388 4.50388 15.0179 4.28806C15.4796 4.13316 15.9612 4.04561 16.4479 4.02808C16.5848 4.49933 16.6554 4.98732 16.6578 5.47806Z" fill="url(#paint0_linear_24_363)"/>
<path d="M13.2078 14.9881C13.4166 16.4012 13.057 17.8395 12.2078 18.9881C11.9241 19.3822 11.5876 19.7355 11.2078 20.0381C10.8279 19.7355 10.4914 19.3822 10.2078 18.9881C9.71558 18.3085 9.38731 17.5244 9.24852 16.6969C9.10974 15.8694 9.16423 15.021 9.40776 14.2181C10.179 13.6407 10.7998 12.8861 11.2178 12.0181C11.6357 12.8861 12.2566 13.6407 13.0278 14.2181C13.1046 14.4705 13.1647 14.7277 13.2078 14.9881Z" fill="url(#paint1_linear_24_363)"/>
<path d="M5.79785 5.47806C5.80192 4.98814 5.86916 4.50081 5.99786 4.02808C6.4879 4.04479 6.97293 4.13235 7.43787 4.28806C8.23434 4.54563 8.95985 4.98519 9.55695 5.57187C10.154 6.15855 10.6063 6.87624 10.8779 7.66806C10.5965 8.59124 10.5382 9.56799 10.7078 10.5181C9.86354 10.0575 8.91947 9.81035 7.95782 9.79807C7.28774 9.29453 6.74387 8.64218 6.36902 7.89249C5.99417 7.14279 5.79863 6.31624 5.79785 5.47806Z" fill="url(#paint2_linear_24_363)"/>
<path d="M10.3978 11.498C9.69902 12.1626 9.17079 12.9859 8.85779 13.898C8.6574 14.04 8.44683 14.167 8.22778 14.278C7.594 14.6046 6.90164 14.802 6.19092 14.8586C5.4802 14.9153 4.76528 14.8301 4.08777 14.608C3.60941 14.4697 3.15441 14.2607 2.73779 13.988C2.91183 13.5303 3.14372 13.0968 3.4278 12.698C3.84588 12.121 4.37382 11.6323 4.98132 11.2599C5.58882 10.8875 6.26388 10.6388 6.96777 10.528C7.21777 10.528 7.45776 10.528 7.70776 10.468C8.50749 11.0247 9.43077 11.3782 10.3978 11.498Z" fill="url(#paint3_linear_24_363)"/>
<path d="M12.0579 11.498C13.0074 11.3772 13.9152 11.0347 14.7078 10.498C15.5457 10.512 16.369 10.7196 17.1133 11.1047C17.8575 11.4899 18.5026 12.0421 18.9979 12.718C19.2979 13.1079 19.5466 13.5347 19.7379 13.988C19.3303 14.2627 18.8859 14.4782 18.4178 14.6281C17.7403 14.8501 17.0254 14.9353 16.3147 14.8786C15.604 14.822 14.9116 14.6246 14.2778 14.298C14.0588 14.187 13.8482 14.06 13.6478 13.918C13.3256 12.9926 12.7794 12.1612 12.0579 11.498Z" fill="url(#paint4_linear_24_363)"/>
<path d="M11.2278 0.0480957C12.2972 0.0517011 13.3419 0.370461 14.2312 0.964508C15.1205 1.55856 15.8149 2.40153 16.2278 3.38809C15.7456 3.42287 15.2691 3.5135 14.8078 3.65811C14.0481 3.8981 13.3438 4.28696 12.736 4.80203C12.1282 5.31711 11.6292 5.94808 11.2678 6.65811C11.2661 6.69476 11.2661 6.73145 11.2678 6.7681C10.9115 6.03008 10.4098 5.37158 9.79297 4.83203C9.1761 4.29249 8.45668 3.88302 7.6778 3.62811C7.21626 3.48444 6.73987 3.39384 6.25781 3.35809C6.67321 2.38182 7.365 1.54834 8.24805 0.960236C9.1311 0.372127 10.1668 0.0550616 11.2278 0.0480957Z" fill="url(#paint5_linear_24_363)"/>
<path d="M0.927801 11.9081C0.60314 11.2734 0.40692 10.5808 0.350347 9.87006C0.293774 9.15934 0.377932 8.44448 0.598089 7.76636C0.818245 7.08824 1.17005 6.46022 1.63331 5.91827C2.09656 5.37633 2.6622 4.93109 3.2978 4.60809C3.91968 4.28638 4.59974 4.09256 5.2978 4.03809C5.17647 4.50842 5.11599 4.99237 5.1178 5.47809C5.1154 6.29546 5.28 7.10471 5.60157 7.85617C5.92313 8.60763 6.39488 9.28546 6.9878 9.84808H6.8678C6.07227 9.96446 5.30824 10.2395 4.6211 10.657C3.93396 11.0744 3.33772 11.6257 2.8678 12.2781C2.58464 12.672 2.34962 13.0984 2.16779 13.5481C1.64923 13.0896 1.22763 12.532 0.927801 11.9081Z" fill="url(#paint6_linear_24_363)"/>
<path d="M8.73784 21.2382C7.85694 21.3773 6.95533 21.2974 6.11266 21.0054C5.26998 20.7134 4.51217 20.2184 3.90624 19.564C3.3003 18.9096 2.86487 18.1161 2.63841 17.2535C2.41196 16.3909 2.40146 15.4858 2.60784 14.6182C3.01833 14.8735 3.45819 15.0783 3.91783 15.2281C4.5284 15.4258 5.16608 15.5271 5.80785 15.5282C6.76401 15.5304 7.70686 15.3041 8.55785 14.8682L8.66783 14.8082C8.52222 15.6131 8.54108 16.4391 8.72325 17.2366C8.90543 18.034 9.24714 18.7863 9.72783 19.4482C10.0156 19.8418 10.3515 20.198 10.7278 20.5081C10.1195 20.881 9.44302 21.1292 8.73784 21.2382Z" fill="url(#paint7_linear_24_363)"/>
<path d="M19.9678 16.7182C19.8569 17.4228 19.6084 18.0986 19.2363 18.7072C18.8642 19.3157 18.3759 19.8449 17.7992 20.2647C17.2225 20.6844 16.5688 20.9864 15.8754 21.1535C15.1819 21.3205 14.4624 21.3493 13.7578 21.2382C13.05 21.1274 12.3706 20.8794 11.7578 20.5081C12.1339 20.1977 12.4698 19.8416 12.7578 19.4482C13.2324 18.8039 13.5732 18.0712 13.7604 17.2933C13.9476 16.5153 13.9773 15.7078 13.8478 14.9182V14.8082L13.9478 14.8682C14.8031 15.3021 15.7487 15.5282 16.7078 15.5282C17.3495 15.5271 17.9872 15.4258 18.5978 15.2281C19.0566 15.0762 19.4962 14.8715 19.9078 14.6182C20.063 15.3077 20.0834 16.0209 19.9678 16.7182Z" fill="url(#paint8_linear_24_363)"/>
<path d="M21.528 11.9081C21.2095 12.5425 20.7675 13.1068 20.228 13.5681C19.8305 12.5803 19.1774 11.7161 18.3356 11.0641C17.4939 10.4121 16.4938 9.99586 15.438 9.85809C16.0289 9.2918 16.4991 8.61187 16.8205 7.85916C17.1419 7.10646 17.3077 6.29652 17.308 5.47809C17.3048 4.99268 17.2444 4.50933 17.128 4.03809C18.0171 4.1082 18.8751 4.39663 19.626 4.87778C20.3769 5.35893 20.9975 6.01795 21.4327 6.79639C21.8679 7.57482 22.1043 8.44862 22.1209 9.3403C22.1375 10.232 21.9339 11.114 21.528 11.9081Z" fill="url(#paint9_linear_24_363)"/>
<defs>
<linearGradient id="paint0_linear_24_363" x1="36.0877" y1="23.618" x2="-5.88217" y2="-7.5717" gradientUnits="userSpaceOnUse">
<stop stop-color="#234968"/>
<stop offset="1" stop-color="#306A9B"/>
</linearGradient>
<linearGradient id="paint1_linear_24_363" x1="30.8376" y1="30.678" x2="-11.1322" y2="-0.501672" gradientUnits="userSpaceOnUse">
<stop stop-color="#234968"/>
<stop offset="1" stop-color="#306A9B"/>
</linearGradient>
<linearGradient id="paint2_linear_24_363" x1="34.0079" y1="26.418" x2="-7.96205" y2="-4.77211" gradientUnits="userSpaceOnUse">
<stop stop-color="#234968"/>
<stop offset="1" stop-color="#306A9B"/>
</linearGradient>
<linearGradient id="paint3_linear_24_363" x1="30.8077" y1="30.728" x2="-11.1723" y2="-0.461829" gradientUnits="userSpaceOnUse">
<stop stop-color="#234968"/>
<stop offset="1" stop-color="#306A9B"/>
</linearGradient>
<linearGradient id="paint4_linear_24_363" x1="34.0678" y1="26.338" x2="-7.90212" y2="-4.85194" gradientUnits="userSpaceOnUse">
<stop stop-color="#234968"/>
<stop offset="1" stop-color="#306A9B"/>
</linearGradient>
<linearGradient id="paint5_linear_24_363" x1="37.1577" y1="22.1781" x2="-4.81225" y2="-9.01178" gradientUnits="userSpaceOnUse">
<stop stop-color="#234968"/>
<stop offset="1" stop-color="#306A9B"/>
</linearGradient>
<linearGradient id="paint6_linear_24_363" x1="31.6877" y1="29.5481" x2="-10.2823" y2="-1.64179" gradientUnits="userSpaceOnUse">
<stop stop-color="#234968"/>
<stop offset="1" stop-color="#306A9B"/>
</linearGradient>
<linearGradient id="paint7_linear_24_363" x1="28.5278" y1="33.7981" x2="-13.4421" y2="2.60815" gradientUnits="userSpaceOnUse">
<stop stop-color="#234968"/>
<stop offset="1" stop-color="#306A9B"/>
</linearGradient>
<linearGradient id="paint8_linear_24_363" x1="31.7777" y1="29.4182" x2="-10.1922" y2="-1.77166" gradientUnits="userSpaceOnUse">
<stop stop-color="#234968"/>
<stop offset="1" stop-color="#306A9B"/>
</linearGradient>
<linearGradient id="paint9_linear_24_363" x1="37.2379" y1="22.0781" x2="-4.73204" y2="-9.11181" gradientUnits="userSpaceOnUse">
<stop stop-color="#234968"/>
<stop offset="1" stop-color="#306A9B"/>
</linearGradient>
</defs>
</svg>
