<svg width="22" height="23" viewBox="0 0 22 23" fill="none" xmlns="http://www.w3.org/2000/svg">
<path d="M20.5078 1.29813C20.0178 1.74813 19.5878 3.88814 19.5078 3.99814C20.6778 3.59814 20.5778 1.28813 20.5078 1.29813Z" fill="url(#paint0_linear_24_374)"/>
<path d="M19.2979 5.31799C20.4779 5.52799 21.2479 3.478 21.1779 3.448C20.5479 3.538 19.3479 5.38799 19.2979 5.31799Z" fill="url(#paint1_linear_24_374)"/>
<path d="M18.7378 6.81812C18.8078 6.68812 18.8678 6.54812 18.9278 6.41812C19.1919 5.78024 19.3571 5.10582 19.4178 4.41812C19.4417 4.08521 19.4417 3.75103 19.4178 3.41812C19.3982 3.13229 19.3581 2.84822 19.2978 2.56812C19.3479 2.09715 19.2768 1.6212 19.0913 1.18542C18.9058 0.749649 18.612 0.368503 18.2378 0.078125C18.4134 0.944416 18.7528 1.76919 19.2378 2.50812C19.2974 2.80518 19.3375 3.10584 19.3578 3.40814C19.3728 3.65124 19.3728 3.89502 19.3578 4.13812C19.2478 3.69812 18.7578 2.35812 18.1778 2.35812C18.3066 3.12197 18.7259 3.80639 19.3478 4.26813C19.3528 4.32134 19.3528 4.37491 19.3478 4.42813C19.3136 4.82371 19.2433 5.21532 19.1378 5.59811C19.0478 5.22811 18.4878 3.82812 17.8278 3.78812C17.864 4.18696 18.0015 4.56998 18.2272 4.90076C18.453 5.23154 18.7596 5.49912 19.1178 5.67813C19.0378 5.93813 18.9578 6.18813 18.8578 6.42813C18.7578 6.66813 18.7178 6.72814 18.6478 6.87814C18.6478 6.47814 18.1278 4.97813 17.3778 5.01813C17.4278 5.01813 17.4878 6.51813 18.6078 6.95813L18.3778 7.35812C18.3178 7.45812 18.2378 7.54813 18.1778 7.64813C17.9388 7.24784 17.5674 6.94363 17.1278 6.78812C17.1278 6.78812 17.2278 5.47814 15.6678 5.43814C14.1078 5.39814 11.6678 8.79813 11.6678 8.79813C11.6678 8.79813 12.3178 5.65814 8.66782 5.30814C4.01782 4.86814 0.237823 0.308132 0.387823 0.398132C0.537823 0.488132 -2.44217 9.59814 7.51783 12.1881C5.63397 13.9542 3.40818 15.3156 0.977819 16.1881C3.56997 16.9673 6.30447 17.1519 8.97782 16.7281V17.9881H9.90784V16.5081C10.1745 16.4481 10.4445 16.3781 10.7178 16.2981V18.5681H11.6478V15.9881C12.6177 15.6003 13.4766 14.9785 14.1478 14.1781C14.6388 13.5297 14.94 12.7577 15.0178 11.9481C15.1678 10.5881 15.6078 7.86813 16.7478 7.89813C17.1328 7.89759 17.5161 7.94802 17.8878 8.04813L17.7978 8.16812L17.6078 8.35812L17.4978 8.46814H17.5478L17.6478 8.37814L17.8278 8.18814L17.9478 8.04813C18.1929 8.10583 18.4155 8.23453 18.5878 8.41812C18.5094 8.15057 18.395 7.89492 18.2478 7.65814C18.3268 7.55892 18.4002 7.4554 18.4678 7.34811C18.5678 7.18811 18.6578 7.01811 18.7478 6.84811C19.8978 7.37811 21.1778 5.39811 21.1078 5.34811C20.4978 5.23811 19.0478 6.63812 18.7378 6.81812ZM16.0878 6.81812C16.0214 6.80561 15.9614 6.7703 15.9182 6.71826C15.8751 6.66622 15.8514 6.60075 15.8514 6.53314C15.8514 6.46553 15.8751 6.40003 15.9182 6.34799C15.9614 6.29595 16.0214 6.26064 16.0878 6.24814C16.1543 6.26064 16.2143 6.29595 16.2574 6.34799C16.3006 6.40003 16.3242 6.46553 16.3242 6.53314C16.3242 6.60075 16.3006 6.66622 16.2574 6.71826C16.2143 6.7703 16.1543 6.80561 16.0878 6.81812Z" fill="url(#paint2_linear_24_374)"/>
<path d="M18.3079 17.4082H18.5479V16.8181H18.4579C18.3112 16.7658 18.1887 16.6618 18.1132 16.5256C18.0377 16.3894 18.0145 16.2303 18.0479 16.0782C18.115 16.0685 18.1764 16.0347 18.2205 15.9832C18.2647 15.9317 18.2886 15.866 18.2879 15.7982C18.2879 15.7601 18.2804 15.7224 18.2658 15.6872C18.2513 15.652 18.2299 15.62 18.203 15.5931C18.176 15.5662 18.1441 15.5448 18.1089 15.5302C18.0737 15.5157 18.036 15.5081 17.9979 15.5081V14.8982C17.9979 14.8186 17.9663 14.7423 17.91 14.686C17.8538 14.6298 17.7775 14.5981 17.6979 14.5981H15.1879C15.1074 14.5981 15.03 14.6294 14.9722 14.6854C14.9143 14.7414 14.8805 14.8177 14.8779 14.8982V15.5081C14.8398 15.5081 14.8021 15.5157 14.7669 15.5302C14.7318 15.5448 14.6998 15.5662 14.6729 15.5931C14.6459 15.62 14.6246 15.652 14.61 15.6872C14.5954 15.7224 14.5879 15.7601 14.5879 15.7982C14.5877 15.8691 14.6145 15.9374 14.6627 15.9894C14.711 16.0414 14.7772 16.0731 14.8479 16.0782C14.8813 16.2303 14.8581 16.3894 14.7826 16.5256C14.7071 16.6618 14.5846 16.7658 14.4379 16.8181H14.3579V17.4082H14.5879C14.6939 17.6664 14.7742 17.9343 14.8279 18.2082L13.3679 18.1282C13.3554 17.961 13.2807 17.8046 13.1585 17.6898C13.0363 17.575 12.8755 17.5102 12.7079 17.5081C12.5521 17.5083 12.4013 17.5637 12.2823 17.6643C12.1634 17.765 12.0839 17.9045 12.0579 18.0582L6.37793 17.7482C6.11271 17.7482 5.85834 17.8535 5.67081 18.041C5.48327 18.2286 5.37793 18.483 5.37793 18.7482C5.37793 19.0134 5.48327 19.2677 5.67081 19.4553C5.85834 19.6428 6.11271 19.7482 6.37793 19.7482L12.0579 19.4482C12.0845 19.6083 12.1692 19.7531 12.2958 19.8548C12.4224 19.9564 12.5821 20.0078 12.7442 19.9992C12.9064 19.9905 13.0596 19.9224 13.1747 19.8078C13.2898 19.6932 13.3586 19.5403 13.3679 19.3782L14.8279 19.2982C14.7818 19.5803 14.7012 19.8557 14.5879 20.1182H14.3579V20.7182H14.4379C14.5838 20.7685 14.7062 20.8706 14.7817 21.0052C14.8573 21.1397 14.8808 21.2974 14.8479 21.4482C14.771 21.4482 14.6972 21.4787 14.6429 21.5331C14.5885 21.5875 14.5579 21.6612 14.5579 21.7382C14.5579 21.8151 14.5885 21.8888 14.6429 21.9432C14.6972 21.9976 14.771 22.0282 14.8479 22.0282V22.5582C14.8505 22.6386 14.8843 22.7149 14.9422 22.7709C15 22.8269 15.0774 22.8582 15.1579 22.8582H17.7379C17.8175 22.8582 17.8938 22.8266 17.95 22.7703C18.0063 22.714 18.0379 22.6377 18.0379 22.5582V22.0282C18.1148 22.0282 18.1886 21.9976 18.243 21.9432C18.2974 21.8888 18.3279 21.8151 18.3279 21.7382C18.327 21.6697 18.3027 21.6036 18.2591 21.5508C18.2154 21.4981 18.155 21.4618 18.0879 21.4482C18.055 21.2974 18.0785 21.1397 18.1541 21.0052C18.2297 20.8706 18.352 20.7685 18.4979 20.7182H18.5879V20.1182H18.3579C18.1618 19.6947 18.0561 19.235 18.0475 18.7684C18.0389 18.3018 18.1276 17.8386 18.3079 17.4082Z" fill="url(#paint3_linear_24_374)"/>
<defs>
<linearGradient id="paint0_linear_24_374" x1="33.1078" y1="22.5982" x2="14.3577" y2="-5.94183" gradientUnits="userSpaceOnUse">
<stop stop-color="#306A9B"/>
<stop offset="1" stop-color="#498CBA"/>
</linearGradient>
<linearGradient id="paint1_linear_24_374" x1="32.4779" y1="23.0079" x2="13.728" y2="-5.52207" gradientUnits="userSpaceOnUse">
<stop stop-color="#306A9B"/>
<stop offset="1" stop-color="#498CBA"/>
</linearGradient>
<linearGradient id="paint2_linear_24_374" x1="23.4378" y1="28.9381" x2="4.69784" y2="0.408115" gradientUnits="userSpaceOnUse">
<stop stop-color="#306A9B"/>
<stop offset="1" stop-color="#498CBA"/>
</linearGradient>
<linearGradient id="paint3_linear_24_374" x1="20.7279" y1="30.7282" x2="1.97788" y2="2.18816" gradientUnits="userSpaceOnUse">
<stop stop-color="#306A9B"/>
<stop offset="1" stop-color="#498CBA"/>
</linearGradient>
</defs>
</svg>
