<svg width="32" height="14" viewBox="0 0 32 14" fill="none" xmlns="http://www.w3.org/2000/svg">
<path d="M16.3678 2.77808C16.4035 3.09014 16.3292 3.40486 16.1578 3.66806L15.8378 4.24808C15.7693 4.36585 15.7479 4.50515 15.7778 4.63806V4.85806C15.7886 4.90469 15.7889 4.95315 15.7785 4.99988C15.7681 5.04661 15.7474 5.09043 15.7178 5.12808L15.0078 6.06805C14.9345 6.15471 14.8943 6.26458 14.8943 6.37808C14.8943 6.49159 14.9345 6.60142 15.0078 6.68808L15.7378 7.46808C15.8029 7.5405 15.8888 7.59093 15.9837 7.61243C16.0787 7.63392 16.1779 7.62542 16.2678 7.58807L16.7278 7.40808C16.7439 7.39846 16.7626 7.3941 16.7813 7.39563C16.8 7.39716 16.8178 7.40451 16.8321 7.41663C16.8464 7.42875 16.8566 7.44504 16.8612 7.46323C16.8658 7.48142 16.8646 7.50059 16.8578 7.51807L16.6778 8.28806C16.6598 8.36191 16.6586 8.43885 16.6741 8.51324C16.6897 8.58764 16.7217 8.65764 16.7678 8.71808L16.9378 8.92807C16.9662 8.97069 16.9865 9.01812 16.9978 9.06805L17.2278 10.4681C17.2418 10.5485 17.2834 10.6215 17.3455 10.6744C17.4076 10.7274 17.4862 10.7569 17.5678 10.7581H17.9978C18.0543 10.7576 18.1097 10.7426 18.1587 10.7146C18.2077 10.6866 18.2487 10.6464 18.2778 10.5981L18.3978 10.4181L19.1578 9.21808C19.2569 9.05649 19.2991 8.86642 19.2778 8.67807L19.0078 6.90808C18.9715 6.6705 18.8508 6.45393 18.6678 6.29807L17.7878 5.55807C17.7633 5.53389 17.7439 5.50508 17.7306 5.47333C17.7173 5.44157 17.7105 5.4075 17.7105 5.37308C17.7105 5.33866 17.7173 5.30458 17.7306 5.27283C17.7439 5.24107 17.7633 5.21226 17.7878 5.18808L18.1678 4.77808C18.1905 4.74983 18.2211 4.72904 18.2557 4.71848C18.2904 4.70791 18.3274 4.70804 18.3619 4.71884C18.3965 4.72964 18.427 4.75062 18.4495 4.77902C18.4719 4.80743 18.4853 4.84196 18.4878 4.87808V5.01807C18.4974 5.07988 18.529 5.13617 18.5768 5.17657C18.6245 5.21698 18.6853 5.23881 18.7478 5.23807H19.1878C19.285 5.23194 19.381 5.26242 19.4569 5.32349C19.5327 5.38456 19.583 5.47179 19.5978 5.56805L19.7178 6.40808C19.7373 6.52845 19.7821 6.64331 19.8494 6.74503C19.9166 6.84675 20.0047 6.933 20.1078 6.99808C20.108 5.9591 19.7276 4.95605 19.0385 4.1785C18.3493 3.40094 17.3993 2.90275 16.3678 2.77808Z" fill="url(#paint0_linear_24_392)"/>
<path d="M16.2379 10.188L15.9679 10.108C15.9396 10.0953 15.9089 10.0887 15.8779 10.0887C15.8468 10.0887 15.8162 10.0953 15.7879 10.108L15.4279 10.268C15.3432 10.3078 15.2686 10.3663 15.2097 10.439C15.1508 10.5117 15.1092 10.5969 15.0879 10.688V10.738C15.0818 10.7574 15.0699 10.7745 15.0538 10.787C15.0377 10.7996 15.0182 10.8069 14.9979 10.808H14.6379C14.6181 10.8106 14.598 10.8072 14.5802 10.7982C14.5624 10.7893 14.5476 10.7753 14.5379 10.758L14.3579 10.288L14.2779 10.088C14.231 9.97001 14.1419 9.87372 14.0279 9.81796L13.8179 9.69797C13.7775 9.67251 13.7433 9.63834 13.7179 9.59796L13.4079 9.11798C13.3826 9.07691 13.3491 9.04148 13.3096 9.01395C13.27 8.98641 13.2251 8.96737 13.1779 8.95798L12.0479 8.68799C12.3807 9.43483 12.9219 10.0698 13.6065 10.5168C14.2912 10.9638 15.0902 11.2037 15.9079 11.208C16.2449 11.2094 16.5808 11.1691 16.9079 11.088L16.3379 10.248C16.3095 10.2207 16.2753 10.2002 16.2379 10.188Z" fill="url(#paint1_linear_24_392)"/>
<path d="M12.3378 6.43808C12.4455 6.25656 12.6018 6.1088 12.7892 6.0116C12.9765 5.91439 13.1873 5.8716 13.3978 5.88806C13.6375 5.89115 13.8703 5.80805 14.0538 5.65387C14.2374 5.49969 14.3594 5.28469 14.3978 5.04807C14.4978 4.71807 14.2078 4.29807 14.2078 3.89807C14.2078 3.49807 14.5078 3.40808 14.4878 3.15808C14.4926 3.1082 14.4926 3.05794 14.4878 3.00806C13.6684 3.30778 12.9611 3.85244 12.4619 4.56805C11.9628 5.28367 11.696 6.13556 11.6978 7.00806V7.10806C11.8178 6.80806 12.1678 6.69808 12.3378 6.43808Z" fill="url(#paint2_linear_24_392)"/>
<path d="M0.237793 6.98798C4.39876 11.1459 10.0404 13.4816 15.9228 13.4816C21.8052 13.4816 27.4468 11.1459 31.6078 6.98798C27.4468 2.83003 21.8052 0.494385 15.9228 0.494385C10.0404 0.494385 4.39876 2.83003 0.237793 6.98798ZM15.8978 11.778C14.9526 11.7681 14.0315 11.4788 13.2504 10.9465C12.4693 10.4142 11.8631 9.66273 11.5082 8.78665C11.1533 7.91057 11.0656 6.94907 11.256 6.02322C11.4464 5.09737 11.9065 4.24855 12.5784 3.58365C13.2502 2.91875 14.1038 2.46749 15.0315 2.28668C15.9593 2.10588 16.9199 2.2036 17.7922 2.56757C18.6646 2.93153 19.4097 3.54547 19.9339 4.33206C20.458 5.11865 20.7377 6.04274 20.7378 6.98798C20.7405 7.62246 20.6169 8.25114 20.3741 8.83734C20.1313 9.42354 19.7743 9.95553 19.3238 10.4023C18.8732 10.8491 18.3383 11.2017 17.7501 11.4396C17.1619 11.6775 16.5322 11.7959 15.8978 11.788V11.778Z" fill="url(#paint3_linear_24_392)"/>
<defs>
<linearGradient id="paint0_linear_24_392" x1="-5.83219" y1="-16.8019" x2="35.0877" y2="24.3381" gradientUnits="userSpaceOnUse">
<stop stop-color="#507D4C"/>
<stop offset="1" stop-color="#396035"/>
</linearGradient>
<linearGradient id="paint1_linear_24_392" x1="-9.01215" y1="-13.6419" x2="31.9077" y2="27.4981" gradientUnits="userSpaceOnUse">
<stop stop-color="#507D4C"/>
<stop offset="1" stop-color="#396035"/>
</linearGradient>
<linearGradient id="paint2_linear_24_392" x1="-7.25224" y1="-15.392" x2="33.6678" y2="25.748" gradientUnits="userSpaceOnUse">
<stop stop-color="#507D4C"/>
<stop offset="1" stop-color="#396035"/>
</linearGradient>
<linearGradient id="paint3_linear_24_392" x1="-6.80221" y1="-15.842" x2="34.1177" y2="25.298" gradientUnits="userSpaceOnUse">
<stop stop-color="#507D4C"/>
<stop offset="1" stop-color="#396035"/>
</linearGradient>
</defs>
</svg>
