<svg width="50" height="59" viewBox="0 0 50 59" fill="none" xmlns="http://www.w3.org/2000/svg">
<path d="M24.8922 20.2412C24.8922 20.2412 34.3807 31.7015 34.3807 36.9387C34.4544 38.2323 34.2632 39.5273 33.8189 40.7445C33.3745 41.9616 32.6865 43.0752 31.7968 44.0171C30.907 44.959 29.8343 45.7093 28.6444 46.2221C27.4545 46.7349 26.1725 46.9994 24.8768 46.9994C23.5811 46.9994 22.2991 46.7349 21.1092 46.2221C19.9193 45.7093 18.8466 44.959 17.9569 44.0171C17.0671 43.0752 16.3789 41.9616 15.9346 40.7445C15.4902 39.5273 15.2991 38.2323 15.3727 36.9387C15.3727 31.7015 24.8922 20.2412 24.8922 20.2412Z" fill="white"/>
<path d="M0 0L6.16144 58.1332H43.8386L50 0H0ZM37.5231 51.2632H12.2304L8.28714 12.7542C8.70939 13.0792 9.08283 13.463 9.39615 13.894C9.77153 14.4654 10.2775 14.9394 10.872 15.2768C11.4666 15.6143 12.1327 15.8056 12.8157 15.8349C13.4957 15.8109 14.1597 15.6216 14.7502 15.2834C15.3406 14.9453 15.8398 14.4684 16.2046 13.894C16.4722 13.4451 16.8444 13.0676 17.2897 12.794C17.7351 12.5203 18.2402 12.3587 18.7617 12.3229C19.9631 12.3229 20.5791 13.0622 21.2877 13.894C21.6352 14.4884 22.1325 14.9815 22.7297 15.3241C23.3269 15.6668 24.0035 15.8471 24.692 15.8471C25.3805 15.8471 26.0571 15.6668 26.6543 15.3241C27.2515 14.9815 27.7486 14.4884 28.0961 13.894C28.3531 13.4359 28.7228 13.051 29.1704 12.776C29.6179 12.501 30.1284 12.3451 30.6532 12.3229C31.8855 12.3229 32.4707 13.0622 33.21 13.894C33.5729 14.4702 34.0717 14.9485 34.6626 15.287C35.2535 15.6254 35.9184 15.8135 36.5989 15.8349C37.2789 15.8109 37.9428 15.6216 38.5332 15.2834C39.1237 14.9453 39.6229 14.4684 39.9877 13.894C40.3794 13.3162 40.9231 12.8577 41.5589 12.5693L37.5231 51.2632Z" fill="white"/>
<path d="M34.3807 36.969C34.4544 38.2626 34.2632 39.5576 33.8189 40.7747C33.3745 41.9919 32.6865 43.1055 31.7968 44.0474C30.907 44.9892 29.8343 45.7396 28.6444 46.2524C27.4545 46.7652 26.1725 47.0297 24.8768 47.0297C23.5811 47.0297 22.2991 46.7652 21.1092 46.2524C19.9193 45.7396 18.8466 44.9892 17.9569 44.0474C17.0671 43.1055 16.3789 41.9919 15.9346 40.7747C15.4902 39.5576 15.2991 38.2626 15.3727 36.969C15.3727 31.7318 24.8922 20.2715 24.8922 20.2715C24.8922 20.2715 34.3807 31.701 34.3807 36.969Z" fill="white"/>
<path d="M34.3807 36.969C34.4544 38.2626 34.2632 39.5576 33.8189 40.7747C33.3745 41.9919 32.6865 43.1055 31.7968 44.0474C30.907 44.9892 29.8343 45.7396 28.6444 46.2524C27.4545 46.7652 26.1725 47.0297 24.8768 47.0297C23.5811 47.0297 22.2991 46.7652 21.1092 46.2524C19.9193 45.7396 18.8466 44.9892 17.9569 44.0474C17.0671 43.1055 16.3789 41.9919 15.9346 40.7747C15.4902 39.5576 15.2991 38.2626 15.3727 36.969C15.3727 31.7318 24.8922 20.2715 24.8922 20.2715C24.8922 20.2715 34.3807 31.701 34.3807 36.969Z" fill="white"/>
</svg>
