<svg width="82" height="50" viewBox="0 0 82 50" fill="none" xmlns="http://www.w3.org/2000/svg">
<path d="M0.470889 1.07699H3.49372C5.50894 1.07699 6.24175 2.08457 6.24175 3.73339V6.29821C6.24175 7.94703 5.50894 9.04625 3.49372 9.04625H2.48613V13.1683H0.470889V1.07699ZM2.48613 2.7258V7.48907H3.21892C3.95173 7.48907 4.22651 7.12263 4.22651 6.48142V3.73339C4.22651 3.09218 3.95173 2.7258 3.21892 2.7258H2.48613ZM7.24934 1.07699H12.1042V2.7258H9.26458V6.20663H11.2798V7.85544H9.26458V11.5195H12.1042V13.1683H7.24934V1.07699ZM12.9286 13.1683L15.2187 1.16857H17.5087L19.7987 13.1683H17.6919L17.3255 10.9699H15.2187L14.8523 13.1683H12.9286ZM15.4934 9.32109H17.1423L16.3179 4.46619L15.4934 9.32109ZM20.5315 10.0539V4.19139C20.5315 2.26777 21.4476 0.985352 23.5544 0.985352C25.7528 0.985352 26.394 2.26776 26.394 4.00818V5.47383H24.562V3.9166C24.562 3.18379 24.2872 2.7258 23.5544 2.7258C22.8216 2.7258 22.5467 3.27537 22.5467 4.00818V10.5119C22.5467 11.2447 22.8216 11.7943 23.5544 11.7943C24.2872 11.7943 24.562 11.3363 24.562 10.6035V8.40508H26.394V10.5119C26.394 12.2523 25.6612 13.5347 23.5544 13.5347C21.4476 13.2599 20.5315 11.8859 20.5315 10.0539ZM27.6764 1.07699H32.5313V2.7258H29.6916V6.20663H31.7069V7.85544H29.6916V11.5195H32.5313V13.1683H27.6764V1.07699ZM35.8289 11.3363L34.8213 14.0843H33.7221L33.9969 11.2447L35.8289 11.3363ZM44.6227 1.07699V10.4203C44.6227 12.1607 43.8899 13.2599 41.8746 13.2599C39.7678 13.2599 39.2182 12.0691 39.2182 10.6035V8.22187H41.1418V10.6951C41.1418 11.3363 41.325 11.6111 41.8746 11.6111C42.4242 11.6111 42.6074 11.2447 42.6074 10.6035V1.07699H44.6227ZM51.7675 1.07699V10.1455C51.7675 11.9775 50.9431 13.2599 48.9279 13.2599C46.821 13.2599 45.905 12.0691 45.905 10.1455V1.07699H47.9203V10.4203C47.9203 11.1531 48.1951 11.6111 48.9279 11.6111C49.6607 11.6111 49.9355 11.1531 49.9355 10.4203V1.07699H51.7675ZM53.0499 10.5119V8.95467H54.9736V10.6035C54.9736 11.2447 55.2484 11.7027 55.9812 11.7027C56.6224 11.7027 56.8972 11.2447 56.8972 10.6035V10.1455C56.8972 9.41266 56.6224 9.04629 55.9812 8.40508L54.7904 7.21422C53.5996 6.11501 53.1416 5.3822 53.1416 4.00818V3.64181C53.1416 2.17619 54.0576 0.985352 55.9812 0.985352C57.9964 0.985352 58.8208 1.99296 58.8208 3.73339V4.74103H56.9888V3.73339C56.9888 3.00058 56.714 2.7258 56.0728 2.7258C55.5232 2.7258 55.1568 3.00058 55.1568 3.73339V4.00818C55.1568 4.64939 55.5232 5.10744 56.0728 5.65705L57.3552 6.93943C58.4544 8.03864 59.004 8.77148 59.004 10.0539V10.6035C59.004 12.2523 58.088 13.4431 56.0728 13.4431C53.7828 13.2599 53.0499 12.1607 53.0499 10.5119ZM59.8284 1.07699H65.2329V2.7258H63.5841V13.0767H61.5689V2.7258H59.8284V1.07699ZM66.3321 1.07699H68.3473V13.0767H66.3321V1.07699ZM69.7214 10.0539V4.19139C69.7214 2.26777 70.6373 0.985352 72.7442 0.985352C74.9426 0.985352 75.5839 2.26776 75.5839 4.00818V5.47383H73.7518V3.9166C73.7518 3.18379 73.477 2.7258 72.7442 2.7258C72.0114 2.7258 71.7366 3.27537 71.7366 4.00818V10.5119C71.7366 11.2447 72.0114 11.7943 72.7442 11.7943C73.477 11.7943 73.7518 11.3363 73.7518 10.6035V8.40508H75.5839V10.5119C75.5839 12.2523 74.851 13.5347 72.7442 13.5347C70.6373 13.2599 69.7214 11.8859 69.7214 10.0539ZM76.8662 1.07699H81.7211V2.7258H78.8815V6.20663H80.8967V7.85544H78.8815V11.5195H81.7211V13.1683H76.8662V1.07699Z" fill="#4485B4"/>
<path d="M0.10498 31.2133L2.39501 19.2135H4.68504L6.97507 31.2133H4.86825L4.50183 29.0149H2.39501L2.02864 31.2133H0.10498ZM2.6698 27.366H4.31867L3.49424 22.5112L2.6698 27.366ZM9.7231 23.6104V31.2133H7.98272V19.2135H9.9979L12.1963 26.0836V19.2135H13.8452V31.2133H12.1048L9.7231 23.6104ZM21.2649 22.4196V28.0072C21.2649 29.8393 20.5321 31.2133 18.3336 31.2133H15.2192V19.2135H18.3336C20.5321 19.1219 21.2649 20.496 21.2649 22.4196ZM18.1504 29.5645C18.9748 29.5645 19.3412 29.1065 19.3412 28.3737V22.0532C19.3412 21.3204 19.0664 20.8624 18.1504 20.8624H17.326V29.5645H18.1504ZM24.5625 28.6485V26.9997H26.4861V28.6485C26.4861 29.2897 26.7609 29.7477 27.4938 29.7477C28.135 29.7477 28.4098 29.2897 28.4098 28.6485V28.1905C28.4098 27.4576 28.135 27.0912 27.4938 26.45L26.303 25.2592C25.1121 24.16 24.6541 23.4272 24.6541 22.0532V21.6868C24.6541 20.2212 25.5701 19.0303 27.4938 19.0303C29.509 19.0303 30.3334 20.0379 30.3334 21.7784V22.786H28.5013V21.7784C28.5013 21.0456 28.2265 20.7708 27.5853 20.7708C27.0357 20.7708 26.6693 21.0456 26.6693 21.7784V22.0532C26.6693 22.6944 27.0357 23.1524 27.5853 23.702L28.8678 24.9844C29.967 26.0836 30.5166 26.8165 30.5166 28.0989V28.6485C30.5166 30.2973 29.6006 31.4881 27.5853 31.4881C25.3869 31.3049 24.5625 30.2057 24.5625 28.6485ZM31.1578 19.1219H36.5622V20.7708H34.9134V31.1217H32.8982V20.7708H31.2494V19.1219H31.1578ZM39.6767 25.7172V31.2133H37.6615V19.2135H40.5927C42.6079 19.2135 43.3407 20.2211 43.3407 21.87V23.4272C43.3407 24.7096 42.8828 25.4424 41.6919 25.7172L43.6155 31.2133H41.5087L39.6767 25.7172ZM39.6767 20.7708V24.5264H40.3179C41.0507 24.5264 41.3255 24.16 41.3255 23.5188V21.7784C41.3255 21.1372 41.0507 20.7708 40.3179 20.7708H39.6767ZM44.6232 28.0989V22.2364C44.6232 20.3128 45.5392 19.0303 47.646 19.0303C49.7528 19.0303 50.7604 20.4044 50.7604 22.2364V28.0989C50.7604 29.9309 49.8444 31.3049 47.646 31.3049C45.5392 31.3049 44.6232 29.9309 44.6232 28.0989ZM48.7452 28.3737V21.87C48.7452 21.1371 48.4704 20.5876 47.7376 20.5876C47.0048 20.5876 46.73 21.1371 46.73 21.87V28.3737C46.73 29.1065 47.0048 29.6561 47.7376 29.6561C48.3788 29.6561 48.7452 29.1065 48.7452 28.3737ZM53.7833 23.6104V31.2133H52.0429V19.2135H54.0581L56.2565 26.0836V19.2135H57.9054V31.2133H56.1649L53.7833 23.6104ZM62.3938 24.8012H65.2334V31.2133H63.7678V29.9309C63.493 30.8469 62.9434 31.3965 61.8442 31.3965C60.1038 31.3965 59.2794 30.0225 59.2794 28.1905V22.328C59.2794 20.4043 60.1954 19.1219 62.3022 19.1219C64.5006 19.1219 65.2334 20.4044 65.2334 22.1448V23.244H63.4014V22.0532C63.4014 21.3204 63.1266 20.8624 62.3938 20.8624C61.661 20.8624 61.3862 21.412 61.3862 22.1448V28.6485C61.3862 29.3813 61.661 29.9309 62.3938 29.9309C63.035 29.9309 63.4014 29.5645 63.4014 28.74V26.3584H62.4854V24.8012H62.3938Z" fill="#4485B4"/>
<path d="M0.10498 37.6934H2.12022V49.6931H0.10498V37.6934ZM5.23462 42.1818V49.7847H3.58582V37.6934H5.60105L7.79945 44.5634V37.6934H9.44831V49.6931H7.70787L5.23462 42.1818ZM10.6391 47.1283V45.4795H12.5627V47.1283C12.5627 47.7695 12.8376 48.2275 13.5704 48.2275C14.2116 48.2275 14.4864 47.7695 14.4864 47.1283V46.6703C14.4864 45.9374 14.2116 45.5711 13.5704 44.9299L12.3795 43.739C11.1887 42.6398 10.7307 41.907 10.7307 40.533V40.1666C10.7307 38.701 11.6467 37.5101 13.5704 37.5101C15.5856 37.5101 16.41 38.5178 16.41 40.2582V41.2658H14.578V40.2582C14.578 39.5254 14.3032 39.2506 13.6619 39.2506C13.1123 39.2506 12.7459 39.5254 12.7459 40.2582V40.533C12.7459 41.1742 13.1123 41.6322 13.6619 42.1818L14.9444 43.4642C16.0436 44.5634 16.5932 45.2963 16.5932 46.5787V47.1283C16.5932 48.7771 15.6772 49.9679 13.6619 49.9679C11.4635 49.8763 10.6391 48.6855 10.6391 47.1283ZM17.2344 37.6934H22.6389V39.3422H20.99V49.6931H18.9748V39.3422H17.326L17.2344 37.6934ZM23.7381 37.6934H25.7533V49.6931H23.7381V37.6934ZM26.8525 37.6934H32.257V39.3422H30.6082V49.6931H28.5929V39.3422H26.9441V37.6934H26.8525ZM39.2187 37.6934V46.7619C39.2187 48.5939 38.3943 49.8763 36.379 49.8763C34.2722 49.8763 33.3562 48.6855 33.3562 46.7619V37.6934H35.3714V47.0367C35.3714 47.7695 35.6462 48.2275 36.379 48.2275C37.1118 48.2275 37.3867 47.7695 37.3867 47.0367V37.6934H39.2187ZM40.3179 37.6934H45.7224V39.3422H44.0735V49.6931H42.0583V39.3422H40.4095V37.6934H40.3179ZM46.8216 37.6934H48.8368V49.6931H46.8216V37.6934ZM50.2108 46.5787V40.7162C50.2108 38.7926 51.1268 37.5101 53.2337 37.5101C55.3405 37.5101 56.3481 38.8842 56.3481 40.7162V46.5787C56.3481 48.4107 55.4321 49.7847 53.2337 49.7847C51.1268 49.8763 50.2108 48.5023 50.2108 46.5787ZM54.3329 46.9451V40.4414C54.3329 39.7086 54.0581 39.1589 53.3252 39.1589C52.5924 39.1589 52.3177 39.7086 52.3177 40.4414V46.9451C52.3177 47.6779 52.5924 48.2275 53.3252 48.2275C53.9665 48.1359 54.3329 47.6779 54.3329 46.9451ZM59.371 42.1818V49.7847H57.6305V37.6934H59.6458L61.8441 44.5634V37.6934H63.493V49.6931H61.7526L59.371 42.1818ZM64.7754 47.1283V45.4795H66.699V47.1283C66.699 47.7695 66.9738 48.2275 67.7066 48.2275C68.3479 48.2275 68.6227 47.7695 68.6227 47.1283V46.6703C68.6227 45.9374 68.3479 45.5711 67.7066 44.9299L66.5158 43.739C65.325 42.6398 64.867 41.907 64.867 40.533V40.1666C64.867 38.701 65.783 37.5101 67.7066 37.5101C69.7219 37.5101 70.5463 38.5178 70.5463 40.2582V41.2658H68.7142V40.2582C68.7142 39.5254 68.4394 39.2506 67.7982 39.2506C67.2486 39.2506 66.8822 39.5254 66.8822 40.2582V40.533C66.8822 41.1742 67.2486 41.6322 67.7982 42.1818L69.0807 43.4642C70.1799 44.5634 70.7295 45.2963 70.7295 46.5787V47.1283C70.7295 48.7771 69.8135 49.9679 67.7982 49.9679C65.5998 49.8763 64.7754 48.6855 64.7754 47.1283Z" fill="#4485B4"/>
</svg>
