<svg width="22" height="18" viewBox="0 0 22 18" fill="none" xmlns="http://www.w3.org/2000/svg">
<path d="M5.61759 2.52818C5.61758 2.8589 5.51938 3.18217 5.33543 3.45702C5.15149 3.73186 4.89007 3.9459 4.58434 4.072C4.2786 4.1981 3.94231 4.23058 3.61809 4.16533C3.29387 4.10007 2.99633 3.94003 2.76318 3.70547C2.53003 3.47092 2.37177 3.17242 2.30847 2.84781C2.24516 2.52321 2.27967 2.18712 2.4076 1.88214C2.53553 1.57717 2.75114 1.31705 3.02708 1.13476C3.30302 0.952462 3.62688 0.856204 3.95759 0.858184C4.39877 0.860826 4.82097 1.03794 5.132 1.35084C5.44302 1.66374 5.6176 2.087 5.61759 2.52818Z" fill="url(#paint0_linear_24_319)"/>
<path d="M12.0676 9.98805C12.0676 10.3169 11.937 10.6323 11.7045 10.8649C11.4719 11.0974 11.1565 11.228 10.8276 11.228C10.4988 11.228 10.1834 11.0974 9.95083 10.8649C9.71829 10.6323 9.58765 10.3169 9.58765 9.98805C9.58765 9.65918 9.71829 9.34378 9.95083 9.11123C10.1834 8.87869 10.4988 8.74805 10.8276 8.74805C11.1565 8.74805 11.4719 8.87869 11.7045 9.11123C11.937 9.34378 12.0676 9.65918 12.0676 9.98805Z" fill="url(#paint1_linear_24_319)"/>
<path d="M6.08768 4.63818H1.73768C1.37932 4.64319 1.03675 4.78642 0.781479 5.03797C0.526204 5.28952 0.377954 5.62994 0.367676 5.98818V9.98818C0.387292 10.1454 0.463668 10.2901 0.582445 10.395C0.701223 10.4998 0.854221 10.5577 1.01268 10.5577C1.17113 10.5577 1.32413 10.4998 1.44291 10.395C1.56168 10.2901 1.63806 10.1454 1.65768 9.98818V6.25818H1.85768V16.2582C1.86031 16.458 1.94154 16.6488 2.08378 16.7891C2.22602 16.9295 2.41783 17.0082 2.61768 17.0082C2.81578 17.0056 3.00505 16.9257 3.14514 16.7857C3.28524 16.6456 3.36509 16.4563 3.36768 16.2582V11.9182C3.38575 11.7838 3.45197 11.6606 3.55404 11.5713C3.6561 11.482 3.78709 11.4328 3.92268 11.4328C4.05826 11.4328 4.18925 11.482 4.29131 11.5713C4.39338 11.6606 4.4596 11.7838 4.47768 11.9182V16.2282C4.47768 16.4271 4.55669 16.6179 4.69735 16.7585C4.838 16.8992 5.02876 16.9782 5.22768 16.9782C5.42578 16.9756 5.61505 16.8957 5.75514 16.7556C5.89524 16.6156 5.97509 16.4263 5.97768 16.2282V6.22818H6.17768V9.98818C6.17768 10.1606 6.24616 10.3259 6.36806 10.4478C6.48995 10.5697 6.65528 10.6382 6.82768 10.6382C7.00007 10.6382 7.1654 10.5697 7.2873 10.4478C7.40919 10.3259 7.47768 10.1606 7.47768 9.98818V5.98818C7.46726 5.62651 7.31623 5.28315 7.05668 5.03106C6.79712 4.77898 6.4495 4.63803 6.08768 4.63818Z" fill="url(#paint2_linear_24_319)"/>
<path d="M10.9276 14.798C10.9766 14.7966 11.0253 14.8052 11.0708 14.8233C11.1163 14.8414 11.1577 14.8686 11.1923 14.9033C11.227 14.9379 11.2542 14.9792 11.2723 15.0248C11.2904 15.0703 11.299 15.119 11.2976 15.168V16.538C11.3002 16.7042 11.3674 16.863 11.485 16.9806C11.6026 17.0982 11.7613 17.1654 11.9276 17.168C12.0947 17.168 12.255 17.1016 12.3731 16.9834C12.4912 16.8653 12.5576 16.705 12.5576 16.538V12.988L14.3676 11.188C14.4124 11.1434 14.4479 11.0904 14.4721 11.032C14.4963 10.9737 14.5088 10.9111 14.5088 10.848C14.5088 10.7848 14.4963 10.7222 14.4721 10.6639C14.4479 10.6055 14.4124 10.5526 14.3676 10.508C14.3227 10.4601 14.2685 10.422 14.2083 10.396C14.1481 10.3699 14.0832 10.3564 14.0176 10.3564C13.952 10.3564 13.8871 10.3699 13.8269 10.396C13.7667 10.422 13.7125 10.4601 13.6676 10.508L12.5776 11.508C12.413 11.6484 12.204 11.7263 11.9876 11.728H9.87762C9.66088 11.7281 9.45138 11.6499 9.28762 11.508L8.19762 10.508C8.15273 10.4601 8.09852 10.422 8.03832 10.396C7.97812 10.3699 7.91322 10.3564 7.84762 10.3564C7.78203 10.3564 7.71713 10.3699 7.65693 10.396C7.59673 10.422 7.54251 10.4601 7.49762 10.508C7.45288 10.5526 7.41737 10.6055 7.39314 10.6639C7.36892 10.7222 7.35645 10.7848 7.35645 10.848C7.35645 10.9111 7.36892 10.9737 7.39314 11.032C7.41737 11.0904 7.45288 11.1434 7.49762 11.188L9.29762 12.988V16.548C9.30025 16.716 9.36883 16.8762 9.48857 16.9941C9.60831 17.1119 9.7696 17.178 9.93762 17.178C10.1039 17.1754 10.2627 17.1082 10.3802 16.9906C10.4978 16.873 10.565 16.7142 10.5676 16.548V15.168C10.5663 15.1199 10.5746 15.072 10.5921 15.0271C10.6096 14.9823 10.6359 14.9414 10.6695 14.9069C10.703 14.8724 10.7432 14.845 10.7875 14.8263C10.8319 14.8076 10.8795 14.7979 10.9276 14.798Z" fill="url(#paint3_linear_24_319)"/>
<path d="M17.7377 4.18812C18.0688 4.19009 18.3931 4.09358 18.6692 3.91084C18.9454 3.7281 19.161 3.46739 19.2886 3.16183C19.4162 2.85627 19.4502 2.51967 19.386 2.19479C19.3219 1.86991 19.1627 1.57143 18.9285 1.33728C18.6944 1.10312 18.3959 0.943868 18.071 0.879749C17.7461 0.815631 17.4095 0.849545 17.104 0.977181C16.7984 1.10482 16.5377 1.32041 16.3549 1.59657C16.1722 1.87273 16.0757 2.19698 16.0777 2.52812C16.0803 2.96757 16.256 3.38827 16.5668 3.69901C16.8775 4.00976 17.2982 4.18549 17.7377 4.18812Z" fill="url(#paint4_linear_24_319)"/>
<path d="M19.8477 4.63818H15.5277C15.1659 4.63803 14.8182 4.77898 14.5587 5.03106C14.2991 5.28315 14.1481 5.62651 14.1377 5.98818V9.98818C14.1573 10.1454 14.2337 10.2901 14.3525 10.395C14.4712 10.4998 14.6242 10.5577 14.7827 10.5577C14.9412 10.5577 15.0941 10.4998 15.2129 10.395C15.3317 10.2901 15.4081 10.1454 15.4277 9.98818V6.25818H15.6277V10.1682L14.6277 12.1682H15.6277V16.2582C15.6491 16.4435 15.7378 16.6144 15.877 16.7385C16.0162 16.8626 16.1962 16.9312 16.3827 16.9312C16.5692 16.9312 16.7492 16.8626 16.8884 16.7385C17.0276 16.6144 17.1163 16.4435 17.1377 16.2582V12.1382H18.2377V16.2282C18.2591 16.4135 18.3478 16.5844 18.487 16.7085C18.6262 16.8326 18.8062 16.9011 18.9927 16.9011C19.1792 16.9011 19.3592 16.8326 19.4984 16.7085C19.6376 16.5844 19.7263 16.4135 19.7477 16.2282V12.1382H20.7477L19.7477 10.1382V6.25818H19.9477V9.98818C19.9673 10.1454 20.0437 10.2901 20.1625 10.395C20.2812 10.4998 20.4342 10.5577 20.5927 10.5577C20.7512 10.5577 20.9041 10.4998 21.0229 10.395C21.1417 10.2901 21.2181 10.1454 21.2377 9.98818V5.98818C21.2273 5.62651 21.0763 5.28315 20.8167 5.03106C20.5571 4.77898 20.2095 4.63803 19.8477 4.63818Z" fill="url(#paint5_linear_24_319)"/>
<defs>
<linearGradient id="paint0_linear_24_319" x1="2.28759" y1="2.52818" x2="5.61759" y2="2.52818" gradientUnits="userSpaceOnUse">
<stop stop-color="#F43742"/>
<stop offset="1" stop-color="#FF6464"/>
</linearGradient>
<linearGradient id="paint1_linear_24_319" x1="9.58765" y1="9.95805" x2="12.0676" y2="9.95805" gradientUnits="userSpaceOnUse">
<stop stop-color="#F43742"/>
<stop offset="1" stop-color="#FF6464"/>
</linearGradient>
<linearGradient id="paint2_linear_24_319" x1="0.367676" y1="10.8082" x2="7.47768" y2="10.8082" gradientUnits="userSpaceOnUse">
<stop stop-color="#F43742"/>
<stop offset="1" stop-color="#FF6464"/>
</linearGradient>
<linearGradient id="paint3_linear_24_319" x1="7.35762" y1="13.758" x2="14.5076" y2="13.758" gradientUnits="userSpaceOnUse">
<stop stop-color="#F43742"/>
<stop offset="1" stop-color="#FF6464"/>
</linearGradient>
<linearGradient id="paint4_linear_24_319" x1="16.0577" y1="2.52812" x2="19.3877" y2="2.52812" gradientUnits="userSpaceOnUse">
<stop stop-color="#F43742"/>
<stop offset="1" stop-color="#FF6464"/>
</linearGradient>
<linearGradient id="paint5_linear_24_319" x1="14.1377" y1="10.8082" x2="21.2377" y2="10.8082" gradientUnits="userSpaceOnUse">
<stop stop-color="#F43742"/>
<stop offset="1" stop-color="#FF6464"/>
</linearGradient>
</defs>
</svg>
