<svg width="50" height="49" viewBox="0 0 50 49" fill="none" xmlns="http://www.w3.org/2000/svg">
<path d="M13.7639 19.4174L23.1075 26.8131V18.2198L13.7639 10.8242V19.4174Z" fill="white"/>
<path d="M26.4425 18.4291L36.1038 10.7393L36.0244 19.5846L26.4425 27.2534V18.4291Z" fill="white"/>
<path d="M0 41.143L9.34356 48.5597V39.9665L0 32.5498V41.143Z" fill="white"/>
<path d="M10.9978 21.2713L0.703735 29.4424L10.9978 37.6135L21.2918 29.4424L10.9978 21.2713Z" fill="white"/>
<path d="M24.6523 -0.000209108L14.3583 8.1709L24.6523 16.342L34.9463 8.17089L24.6523 -0.000209108Z" fill="white"/>
<path d="M12.6787 40.1541L22.3399 32.4854L22.287 41.3097L12.6787 48.9995V40.1541Z" fill="white"/>
<path d="M27.6602 41.1416L37.0037 48.4952V39.902L27.6602 32.4854V41.1416Z" fill="white"/>
<path d="M38.6561 21.2732L28.3621 29.4443L38.6561 37.6154L48.9501 29.4443L38.6561 21.2732Z" fill="white"/>
<path d="M40.3387 40.1541L50 32.4854L49.947 41.3097L40.3387 48.9995V40.1541Z" fill="white"/>
</svg>
