<svg width="17" height="24" viewBox="0 0 17 24" fill="none" xmlns="http://www.w3.org/2000/svg">
<path d="M5.86781 23.5381V20.9081H4.1078V19.4281H5.86781V17.1681H5.59779C4.01299 16.866 2.5951 15.9905 1.6151 14.709C0.635092 13.4274 0.161709 11.8296 0.285446 10.221C0.409183 8.61244 1.12136 7.10586 2.28584 5.98924C3.45032 4.87262 4.98544 4.22428 6.59779 4.16812C8.00853 4.17029 9.38051 4.62995 10.5078 5.47812L10.7378 5.64812L14.2478 2.13813H12.1178V0.578125H16.7378V5.17812H15.2578V3.17813L11.7378 6.60812L11.8978 6.83812C12.7009 7.94582 13.1316 9.27991 13.1278 10.6481C13.1173 12.2098 12.5542 13.7173 11.5383 14.9035C10.5224 16.0896 9.11932 16.8777 7.5778 17.1281H7.30782V19.3881H9.06779V20.8681H7.30782V23.4981L5.86781 23.5381ZM6.6078 5.53813C5.60369 5.54602 4.62435 5.85074 3.79301 6.41394C2.96168 6.97713 2.31552 7.77364 1.93581 8.70322C1.5561 9.6328 1.4598 10.6539 1.65907 11.6381C1.85835 12.6223 2.34429 13.5255 3.05571 14.2342C3.76713 14.9428 4.67227 15.4252 5.65721 15.6206C6.64215 15.8161 7.6629 15.7158 8.59099 15.3325C9.51908 14.9491 10.3131 14.2998 10.873 13.4663C11.4329 12.6328 11.7338 11.6523 11.7378 10.6481C11.7378 9.97632 11.6049 9.31115 11.3466 8.69098C11.0883 8.07081 10.7098 7.50791 10.2329 7.03474C9.75597 6.56156 9.19012 6.18747 8.56795 5.93404C7.94578 5.6806 7.27959 5.55285 6.6078 5.55813V5.53813Z" fill="url(#paint0_linear_24_295)"/>
<path d="M8.81778 8.948H4.4978V9.978H8.81778V8.948Z" fill="url(#paint1_linear_24_295)"/>
<path d="M8.81778 11.408H4.4978V12.438H8.81778V11.408Z" fill="url(#paint2_linear_24_295)"/>
<defs>
<linearGradient id="paint0_linear_24_295" x1="-12.5922" y1="-11.8319" x2="26.4378" y2="27.1982" gradientUnits="userSpaceOnUse">
<stop stop-color="#FF8578"/>
<stop offset="1" stop-color="#FE4E36"/>
</linearGradient>
<linearGradient id="paint1_linear_24_295" x1="-13.6221" y1="-10.812" x2="25.4079" y2="28.2178" gradientUnits="userSpaceOnUse">
<stop stop-color="#FF8578"/>
<stop offset="1" stop-color="#FE4E36"/>
</linearGradient>
<linearGradient id="paint2_linear_24_295" x1="-14.8521" y1="-9.58204" x2="24.1779" y2="29.4478" gradientUnits="userSpaceOnUse">
<stop stop-color="#FF8578"/>
<stop offset="1" stop-color="#FE4E36"/>
</linearGradient>
</defs>
</svg>
