<svg width="21" height="20" viewBox="0 0 21 20" fill="none" xmlns="http://www.w3.org/2000/svg">
<path fill-rule="evenodd" clip-rule="evenodd" d="M16.5 4.49988C16.5 5.32831 15.8284 5.99988 15 5.99988C14.3824 5.99988 13.852 5.62662 13.622 5.09338C12.9267 5.20087 12.3995 5.39882 11.9495 5.67571C11.2264 6.12074 10.6507 6.79899 9.9 7.79988C9.52592 8.29865 9.11209 8.6922 8.6931 8.99988H13.5854C13.7913 8.41728 14.3469 7.99988 15 7.99988C15.8284 7.99988 16.5 8.67145 16.5 9.49988C16.5 10.3283 15.8284 10.9999 15 10.9999C14.3469 10.9999 13.7913 10.5825 13.5854 9.99988H8.95033C9.16885 10.094 9.376 10.2019 9.57455 10.324C10.4764 10.879 11.1507 11.7008 11.9 12.6999C12.4336 13.4113 13.0588 13.7347 13.6332 13.8811C13.8688 13.3614 14.3922 12.9999 15 12.9999C15.8284 12.9999 16.5 13.6715 16.5 14.4999C16.5 15.3283 15.8284 15.9999 15 15.9999C14.3061 15.9999 13.7223 15.5288 13.551 14.889C12.7735 14.7214 11.8566 14.3087 11.1 13.2999C10.3493 12.299 9.77363 11.6207 9.05045 11.1757C8.53602 10.8591 7.92051 10.6457 7.06838 10.5528C6.79635 10.8288 6.41816 10.9999 6 10.9999C5.17157 10.9999 4.5 10.3283 4.5 9.49988C4.5 8.67145 5.17157 7.99988 6 7.99988C6.52726 7.99988 6.99098 8.27192 7.25846 8.6833C7.84998 8.42076 8.52736 7.9634 9.1 7.19988C9.84934 6.20076 10.5236 5.37902 11.4255 4.82405C12.0299 4.45206 12.7142 4.21242 13.5561 4.09224C13.7336 3.46191 14.3129 2.99988 15 2.99988C15.8284 2.99988 16.5 3.67145 16.5 4.49988Z" fill="#818181"/>
</svg>
