<svg width="298" height="250" viewBox="0 0 298 250" fill="none" xmlns="http://www.w3.org/2000/svg">
<circle cx="125" cy="125" r="102.936" fill="#FCC49B"/>
<circle cx="150.734" cy="124.372" r="77.2021" fill="#F9A975"/>
<circle cx="125.627" cy="124.373" r="52.0957" fill="#F68F53"/>
<circle cx="125" cy="125" r="121.5" stroke="#4B4B4B" stroke-width="7"/>
<circle cx="150.107" cy="125" r="27.617" fill="#F37839"/>
<path d="M137.012 123.207C137.012 118.141 138.296 114.117 140.866 111.136C143.436 108.155 147.144 106.664 151.99 106.664C154.78 106.664 157.144 107.098 159.082 107.964C161.021 108.83 162.387 110.086 163.179 111.731C163.708 112.817 163.62 113.552 162.915 113.933L160.272 115.343C159.347 115.842 158.583 115.563 157.981 114.506C157.599 113.831 156.887 113.221 155.845 112.678C154.817 112.135 153.605 111.863 152.21 111.863C149.126 111.863 146.968 112.839 145.734 114.792C144.501 116.731 143.884 119.536 143.884 123.207C143.884 126.878 144.501 129.69 145.734 131.643C146.968 133.581 149.126 134.551 152.21 134.551C153.869 134.551 155.264 134.176 156.395 133.427C157.541 132.678 158.334 131.966 158.774 131.291C159.494 130.189 160.257 129.91 161.065 130.454L163.708 132.216C164.428 132.7 164.501 133.435 163.928 134.418C163.077 135.887 161.616 137.142 159.545 138.185C157.475 139.228 154.956 139.749 151.99 139.749C147.217 139.749 143.524 138.258 140.91 135.277C138.311 132.296 137.012 128.273 137.012 123.207ZM170.25 136.643C169.34 135.953 169.119 135.255 169.589 134.551L171.285 131.995C171.843 131.158 172.658 131.114 173.73 131.863C174.553 132.436 175.625 133.031 176.946 133.647C178.283 134.25 179.685 134.551 181.153 134.551C182.181 134.551 183.173 134.433 184.127 134.198C185.082 133.963 185.808 133.508 186.308 132.832C186.807 132.157 187.057 131.357 187.057 130.432C187.057 129.771 186.947 129.191 186.726 128.691C186.506 128.192 186.146 127.781 185.647 127.458C185.148 127.135 184.634 126.863 184.105 126.643C183.18 126.261 182.012 125.887 180.603 125.52C179.208 125.138 177.827 124.683 176.462 124.154C175.243 123.684 174.127 123.038 173.114 122.215C172.1 121.393 171.315 120.468 170.757 119.44C170.199 118.412 169.92 117.039 169.92 115.321C169.92 113.28 170.581 111.532 171.902 110.079C173.224 108.625 174.744 107.692 176.462 107.281C178.18 106.87 179.913 106.664 181.66 106.664C183.393 106.664 185.177 106.929 187.013 107.457C188.863 107.986 190.258 108.647 191.198 109.44C192.123 110.218 192.35 110.923 191.881 111.554L190.096 113.955C189.494 114.778 188.687 114.844 187.673 114.154C187.027 113.713 186.139 113.221 185.008 112.678C183.892 112.135 182.725 111.863 181.506 111.863C180.639 111.863 179.839 111.936 179.105 112.083C178.385 112.23 177.747 112.582 177.189 113.14C176.631 113.698 176.352 114.389 176.352 115.211C176.352 116.004 176.557 116.65 176.968 117.149C177.379 117.634 177.835 118.001 178.334 118.251C178.833 118.486 179.34 118.684 179.854 118.845C181.44 119.359 182.857 119.815 184.105 120.211C185.353 120.593 186.506 121.019 187.563 121.489C189.032 122.149 190.155 122.81 190.933 123.471C191.712 124.132 192.35 125.035 192.85 126.18C193.364 127.326 193.621 128.691 193.621 130.277C193.621 132.627 192.872 134.573 191.374 136.114C189.876 137.642 188.209 138.626 186.374 139.066C184.553 139.521 182.776 139.749 181.043 139.749C178.488 139.749 176.41 139.499 174.81 139C173.209 138.515 171.689 137.73 170.25 136.643ZM200.229 139C199.201 139 198.687 138.449 198.687 137.348V109.065C198.687 107.964 199.201 107.413 200.229 107.413H207.916C214.671 107.413 219.238 108.779 221.617 111.51C224.01 114.242 225.207 118.126 225.207 123.163C225.207 128.199 224.01 132.098 221.617 134.859C219.238 137.62 214.671 139 207.916 139H200.229ZM205.119 133.537H207.498C212.05 133.537 214.994 132.693 216.33 131.004C217.667 129.301 218.335 126.687 218.335 123.163C218.335 119.638 217.667 117.039 216.33 115.365C214.994 113.676 212.05 112.832 207.498 112.832H205.119V133.537ZM232.168 139C231.14 139 230.626 138.449 230.626 137.348V109.065C230.626 107.964 231.14 107.413 232.168 107.413H235.516C236.544 107.413 237.058 107.964 237.058 109.065V137.348C237.058 138.449 236.544 139 235.516 139H232.168ZM245.648 139C244.62 139 244.106 138.449 244.106 137.348V109.065C244.106 107.964 244.62 107.413 245.648 107.413H249.217C250.098 107.413 250.538 107.964 250.538 109.065V133.537H263.38C264.481 133.537 265.032 134.015 265.032 134.969V137.568C265.032 138.523 264.481 139 263.38 139H245.648ZM268.71 139C267.653 139 267.308 138.515 267.675 137.546L278.468 109.198C278.924 108.008 279.614 107.413 280.539 107.413H283.623C284.548 107.413 285.238 108.008 285.693 109.198L296.486 137.546C296.853 138.515 296.508 139 295.451 139H291.949C290.98 139 290.304 138.493 289.922 137.48L287.676 131.555H276.486L274.239 137.48C273.857 138.493 273.182 139 272.213 139H268.71ZM278.534 126.092H285.627L282.918 119.088C282.595 118.265 282.396 117.671 282.323 117.303C282.264 116.922 282.198 116.364 282.125 115.629H282.037C281.963 116.364 281.89 116.922 281.816 117.303C281.758 117.671 281.567 118.265 281.244 119.088L278.534 126.092Z" fill="white"/>
</svg>
